<mxfile host="Electron" agent="Mozilla/5.0 (Macintosh; Intel Mac OS X 10_15_7) AppleWebKit/537.36 (KHTML, like Gecko) draw.io/24.7.17 Chrome/128.0.6613.36 Electron/32.0.1 Safari/537.36" version="24.7.17">
  <diagram name="Page-1" id="8f0epFBSj0FaZOxIzZ7w">
    <mxGraphModel dx="1588" dy="1416" grid="1" gridSize="10" guides="1" tooltips="1" connect="1" arrows="1" fold="1" page="1" pageScale="1" pageWidth="1169" pageHeight="827" math="0" shadow="0">
      <root>
        <mxCell id="0" />
        <mxCell id="1" parent="0" />
        <mxCell id="oM49j2kRH9s5FRGwLrnU-50" value="" style="rounded=0;whiteSpace=wrap;html=1;movable=1;resizable=1;rotatable=1;deletable=1;editable=1;locked=0;connectable=1;" vertex="1" parent="1">
          <mxGeometry x="20" y="180" width="410" height="210" as="geometry" />
        </mxCell>
        <mxCell id="oM49j2kRH9s5FRGwLrnU-7" value="" style="whiteSpace=wrap;html=1;aspect=fixed;dashed=1;" vertex="1" parent="1">
          <mxGeometry x="40" y="210" width="150" height="150" as="geometry" />
        </mxCell>
        <mxCell id="oM49j2kRH9s5FRGwLrnU-6" value="" style="shape=image;verticalLabelPosition=bottom;labelBackgroundColor=default;verticalAlign=top;aspect=fixed;imageAspect=0;image=https://www.esa.int/var/esa/storage/images/esa_multimedia/images/2016/10/raspberry_pi_logo/16166824-1-eng-GB/Raspberry_Pi_logo_pillars.jpg;" vertex="1" parent="1">
          <mxGeometry x="81.7" y="216" width="66.6" height="74" as="geometry" />
        </mxCell>
        <mxCell id="oM49j2kRH9s5FRGwLrnU-9" value="" style="shape=image;verticalLabelPosition=bottom;labelBackgroundColor=default;verticalAlign=top;aspect=fixed;imageAspect=0;image=data:image/png,iVBORw0KGgoAAAANSUhEUgAAApMAAAG4CAYAAAAZlWyVAAAABmJLR0QA/wD/AP+gvaeTAAAtAUlEQVR42u3deZhlZX0n8M5M8jwzf8xMJpN5kpnnGY0aNRonGo0JmowmJplkTKJJ3LKYYBIV2QRxwaCIcUHEHUSRuCKoKKBGREVFEdzBFQRRaLqquqoXuvata7tzvreppKG7qs45d63qz+d53ichhFv3nnvuOd/zLr9327Y2aDQaP7l9aNdROwaHXzw4uOtjg0O7bh0YHBkfGBye2zEw3NA0TdM0TdN604pMtlS0mYHBXSNFRvvKwNDI2wYGdj7t9tt3/9y2XhsYGH5MER4vzhscHt4zMTo2sX96eraxf/9CY2lpubG8vNIAAKB3Voo4try83FhcXGzMzs03JianV3bv2TdR5Lf5waGRm3cM7jxxaGjov3UtQBbv6SfuGBx+Unofdw7vnire0HKCIwAAm8tcES737h0tei1HZg/0WA78z44GycHBwV8pQuR3h0f2TM3OzvkGAAC2gHQMjhUjzM3h8KHh066/vvFT7e6N/HeDgyNnFG12anpGNyQAwBa0uLjU2L3nzuliGuOtxdD3A9oSJH/0o33/uej2vHZk197ppaUlRxkAYIubmppZLjoRpwYHh/+spSC5ffueny8mZt6yb9+EMW0AgCNIFlQX0xtnBgZGjqsVJLOqpwiSd4xPTC04nAAAR54Mew/tbAbKY6sutPmPRdfmd8fGJ+cdRgCAIztQFj2Us5WGvIsgeWGxTHzW4QMAoDnk3ZxDOXj/EoXIdz1t587d0ysrCo4DAHBAc1HO0MgP1y0btH379p8uttoZS/oEAICD7d595/SOwV0vXrtXcmjX+XfuG7dyGwCAQ2T+ZFHYfPqOO/b+j0OCZDb7zlY62bsRAAAOZ7TYKaeYP3nu4eZKvqn4l1ZvAwCwpmxik20Xi8U4P3Pwdok/WfwfJxYXFx0hAADWVVT9mS5qTx7/r2HyjjtG/qjYLnHCoQEAYCNzc/MpFXTTQQtvRt49OTmtFhAAAKUUo9pzIyMj//2uIuW7di4sKAcEAEA5u/fsm9ixY+Qp23bs2PFfBwaHLbwBAKC0iWJUu+idfOu27UO7jhoe2TPukAAAUNbs7HxjaGjXddt2DA4/vViRM+mQAABQVqoAFTsnjhRhcueJ+0Yn7HoDAEBp2eimGOaeKoqVD582Nj655JAAAFDWyspKwuRisQBn58vHx41yAwBQzY6B4YYwCQCAMAkAgDAJAIAwCQCAMAkAAMIkAADCJAAAwiQAAMIkAADCpDAJAIAwCQCAMAkAgDAJAIAwCQAAwiQAAMIkAADCJAAAwiQAAMKkMAkAgDAJAIAwCQCAMAkAgDAJAADCJAAAwiQAAMIkAADCJAAAwiQAAAiTAAAIkwAACJMAAAiTAAAgTAIAIEwCACBMAgAgTAIAIEwCAIAwCQCAMAkAgDAJAIAwCQAAwiQAAMIkAADCJAAAwiQAAMIkAAAIkwAACJMAAAiTAAAIkwAAIEwCACBMAgAgTAIAIEwCACBMAgCAMAkAgDAJAIAwCQCAMAkAAMIkAADCJAAAwiQAAMIkAADCJAAACJMAAAiTAAAIkwAACJMAACBMAgAgTAIAIEwCACBMAgAgTAIAgDAJAIAwCQCAMAkAgDAJAIAwKUwCACBMAgAgTAIAIEwCACBMAgCAMAkAgDAJAIAwCQCAMAkAgDApTAIAIEwCACBMAgAgTAIAIEwCAIAwCQCAMAkAgDAJAIAwCQCAMClMAgAgTAIAIEwCACBMAgAgTAIAgDAJAIAwCQCAMAkAgDAJAIAwKUwCACBMAgAgTAIAIEwCACBMAgCAMAkAgDAJAIAwCQCAMAkAgDAJAADCJAAAwiQAAMIkAADCJAAACJMAAAiTAAAIkwAACJMAAAiTAAAgTAIAIEwCACBMAgAgTAIAgDAJAIAwCQCAMAkAgDAJAIAwCQAAwiQAAMIkAADCJAAAwiQAAAiTAAAIkwAACJMAAAiTAAAIk1DRHXuWG//rH/bVar/wrH0OIAAIkwiTwiQACJMgTAIAwiTCJAAgTCJMAgDCJMKkMAkAwiQIkwCAMIkwCQAIkwiTAIAwiTAJAAiTCJPCJAAIkyBMAgDCJMIkACBMIkwCAMIkwqQwCQDCJBxqeaXRGJ9Zqd1g1b6plcb7rp5vvPSimcbLPjDTuPTL843Z/c6RI9H1P15snHXZbOPU9003Xv/R2caNA0sOCgiTAGu78ob9jQedMHpI7/Wvv2CsGSw4MswVDw8nvGPqkPPgXs/c1zj94pnG0rJjBMIkwD0kLN7n2WtPh3hwETJv36Vn6khwuCB5cDvzIzMOEgiTAHf3tNdNbji/9sQLphyoI+ChYqPz4D7FPOvBvbonQZiksm/dtlh7kcuvPm/skNc75m1TtV/vHZ+Zu9trWYBDKzKsmfNgo3PlISeOOlhbXOZIlrluXPiFeQcLhEmESWGSA4b2lT9/5izG2dKe967pUufBay+fdbBAmESYFCY5YGBv+fNnel6Y3MpO+udy16UzLzVvEoRJhElhEmESYRKESYRJYRJhEmEShElhUpgUJhEmESYBYVKYFCarWimyySXXzTcW1MQWJhEmAWFSmBQmq/rQtfPN9/H7Z4w3vn+HRClMIkwCwqQwKUyWNDK63NxZZfW93O+Yfc29oBEmESYBYVKYFCY3dPwa27alcPKKzCJMIkwCwqQwKUyu5Zs/Wv94vvSiGYFSmESYBIRJYVKYPLyj37zxXtAvuWjaiSdMIkwCwqQwKUze3Y9Hlhr3ema593f+p+ecfMIkwiQgTAqTwuS/yb6+Zd/fvYvQefX3FpyAwiTCJCBMCpPC5AG/9eKxSu/x4aeMNUanhBhhEmESECY3scXlRmN8ZqVWm5w99AY8M79S+/XmF+7+essr9d9bWjfVDb4nXjDlJBQmESYBYZIj3Qe/NF8rTGaO5fcUNRcmESYBYZIjW1Zo1x2S/9s3+50IkwiTgDDJEe1JZ03UDpPpncwwOcIkwiQgTHbF0W+ZbDzkxNFa7V++sf9ur5Uh1rqv9djTxg95bye/a7r267336rlDwkDd13roSaOHvLdXXDJT+/Xe9C+z634njzp1rHaYTHvDx2ad2MIkwiQgTHbHk19bvxfsnntEH0mruf/x/fWHol+zwU0m+2+3Eib/8OXjR+S5PLRvufmA85ZPzDYfRP7yDZONP3vNROPxrzjQnnr2ZOMfzp1qnPHBmca7PzfXuP7Hi4cs1NpMYXJu/0rjK7csNN539Xzj5R+aaTzzrVPNz/yEVx/4vPnf/+6cyea5ekHxe/h8UT5qYmbzBt0sort5cKl53XndR2cbzy1C3d+8abL5va5+3jwcv/C9041zrphtXPHN/Y3h0fb30vdzmMz5fNEX55vnwp+eOdE49vypxpU37O/qTln5rXz86/sbb77rd/j0N0427zP5jvKe8j1lm9hsCXvJdfONmwaWmt9tN+V4XPXt/c1zKCNBuS7kuC3UmHI+VSweve4HC83f2OkXzzT+/tx/+x0+7XWTjWefN9V4wXummx0Qb/3kbPPv5hghTAqTwmTHwuTiUqOlILlad3Izh4YqN4Rv3LrY/C7q9ubetwjuf13c7C78wvy6pZX6JUzuGV9uvPOqueYNsM5DR86NP/yn8cbrizB2266lvv+OE44+UTwg5Ib8K8UIQZ3v+KgXjjW3Hv3yzQttCS39GibzYLFWSbFnFCG77INTnZCfY5sQn2Nd5zv6388dbX7H+a479T5X7S8C47POO/x3+AfFg/iusY2DXu4n51051/jjV040f1N1PvNvFt9VHmx/uHOpgTApTAqTbQ2TCSKthsm0XNy3qtxs0htXtRbnRu0XnzPaDAo/GFzquzB5Q/HbSu9JzsV2fub03H72Owt9t8f7SNGjmN7WB58w2tbPm3PmXZ+da+k76rcwmc+SsLzRjlnt3no1fzfX2d94YXt/h/nO04tXJtTVcer71r92/8mrJhpLa/zpz393ofnwea9ntu/z5rUSbjv1eREmhUk9k7Xbh66dP+RpPMPAmdea9t3ti40bi+GlHcVx2Sxz/BJ4PlCUTXrEKe29eR2u9+64Ynhw8KChqF6FyfRaZMisk593tUemHx5A0qOeYNTqVI8yRf4zrLlY4/7dT2Eyw6uPLtkrn+vY0J2tB5Ycs1xf6/YUV3m4S8/d4WoQ15X7QJmexE9ef/f1APltZNi60+dk7qEIk8KkMNmWOZP3P7b1i3SO3ZkfmWnOJ8ux3ej/PzeGPyqGbPLUnnlMO/f111Pyj4aXGn9+1kTHQ9XB7YHHjTbnQaWXotthMr2vOU/u8+zufd70kCQo7evRTkqZZ/fwDj8o3LPlnL+14jBjP4TJqbmVxosvnK7cQ3bxNfMt/d1v377YfPDo5neUh8dP3GOxZ135/GX+Zq6DcefkSunvux3tYSePdX2TDGESYXKLhsnfPb27F+u1gkUmy2dBy3KPr22Xf3V/M9j16lgkkGexTrfCZHqQO90Lsl575AvGGt/8Ufd6SLKQKAsUevV50wP2/i+UD1m9DpPX3LhQe27i266caymI3feY3l2TTnrndGN2f2u/rXOLhVll/lYWMKXXt8yDeLvbBZ+ZE0yESWFSmGw9TD7n7VM9D5P37L25ebD7k8QTYl/2gZm+OAYPqjB3r5Uwee1NC41fPnG05583PaKZl9ppmSf2hy8f74vv+LTiN71Y4jTvVZjMcO+L3jvd0ny9y75S/TvNFJl+uSblXBlpYYV+Kj2U+TsZqWn3/OSyLSvdESaFSWGy5TCZVYL9FCZXVz2/5/Pde2LO0PIp757uu+PQyTCZkiHpJeunz9LJodr8Jh996lhffd4Tihv5RouRehEmry7KOv36C8ZafkDYPV4tiM0U53IWnPTTd3TUi8YaPx6p93BbNkz2suW+hzApTAqTLYfJ1F3rx4tcN3qqVoPks8+b2pRBsm6YzHSCXvWEbNReeUn7A2V+j484ZawvP+89F1/0MkxmQdLz2/RQtdFmCYcLkpnq0o/fUeYW1impsxnC5Bs/btMJYVKYFCbbECbTM9JqL0S7W97P/i5No0vh380aJOuEyawUvd8x/f2Z3vap9vVK751YbntZp3a2FELvhzD5uaIMza89v/XjlN7ud1Sch5fh/r9982Rfn5M5NlVXp/d7mEzvse1whUlhUphsS5iMPJ0eib2SZSfIl6kneHRxM8yqzH8q6hWmxt7zit04nlgsbHnQCaN9EyZvGVpqPOj41t9Pij7nt5ypASmtk5Iq+ewZomxHHcDM08uOMq3KKvXshNKOaRdZVZwe7HzO/B5TzukpZ0+0HFRzvHoZJtMbuVEtxLItC7lurdGDl7mZ7fodJpRm8UzmP6eXNbsypXB+O3riH1csVqzye+t0mMzCqPzmsqAsc3DzPeZ8SQ9vmbnQ511p8Y0wKUwKk20MkylJ0Y4SQe1ouWAvdmH9zVdvWWzpBpNdYVJfc6N5YamTl9XZCVydqJVX9uaWlamPa2HlfnqLs5PNjSW2o0tpo2wh2UpZl4TwVntNTmvhd/OA4veQUJL5gzMbHON83jwA1bm+ZR5nr8Jktrx85Ava0xuZldtLNb6uy4rqCa387Wwh+OGivNjQBuXFUgLnM8U84cxTbWWVeLZE7GWYTGBPNYCNPm9+o3l4zAPz758xfsjDYOqeIkwKk8JkW8NkZK5aP5QIyjZtnZYbS92b6F8VRb1T/66Ombt28XhIG1dQlw2TdXufEiITmusG/C8WpWXq9g5m+7jFmnkye0TX+Zt5qMo+znnAqvuQUuU6l97ObofJdvZGphes7gKV7buXGr9UowxXrhMJdQlLdeQBMNfFutM9El67HSb/4vUHSobVldq5+U3k+trpLSQRJoXJIzhM5gLzuB7XnHz1R7qzJVyGoau+twTAj329PcWM904ut3S+VQ2TqeNYp8RLhrBTsLpV6bFKT2Wd1eP576rKe67zsJBerh1tmkOWYvxl6pVutBNQu8Nku+ZGJnTX7Y1cVWee5GNOa9/uSQlYT6qxOUFGGEZLFNtvR5hs53UHYXLLyEU+vUJ12sLiocOHdV/rcFtmpdeo7uvd80kvQwx1X+twOxJkiLLua81VKLz79k/1rkxQinV3Y3j7+3dUH97+v8Uw0cDe9k9U/+er5kptt9ZKmMzNvmptxQSFdsxZPNyxr7rYKzfTqr2EeSipehxfe/lsS8HocNJjt96xTw/oRtoVJsfb2BuZPdbr9kau+vS3qvccJ3y2ezvWfOd16suu7lrTyTCZ687gXgtkhEnYJL5x62KzV6ZnxYGLCfITXdrW6xlvqfY5/+RVEx3dcuyjX2utTM9GN9dsG1h1W8cM1XZKbo6/WXHRSpUh3KzertoDWqf3s6w89KZm6upnTg9xCvOX3bKvHWEyDwYPO7n1qRUPuKs3stVdqlJB4vdeVu0BJ4tMFjuYq/JgV2kldPGb3agXu5UwmbmRtjoUJqHv3bhjqfGGj832fDvFpxerEQ/XU9wJqRVXZbj3scWQWjf2js7ijU6FyQT1KjfILMrotNt3LTUeWmEx0oOLxThlz5H09nWyHmIrMkpQNRC1EibbOZ0ie9Xne2uHDLVXLZ+01IUOukwJqvK+Ml2mE2Hyt18yXmoYHWESuibTAzKHMysZs7Iv22c9qg92AklweV2xOnixi6M4VYb5MtRbp1BxXXWLRa8XJr/2w2rzis+5onvBKgtzqgT7d161ce9hpptUWdyUPZFX+vyeXTdMpjfyoSf1T2/kwbKIrezfz8NuO+btlpHP+A/nTlW6Rqz3kFMnTOZ4Zy4nwiRrSCmD3MyP9PaqD880L/ztaJnrs/q6KXmRPW2PLoZxM0SSmmudrnHYyvzIzJ/rdqhOSYyy7/GCz3S3BltC4VE1ajSuFyZffOF0pWG15S4HqyzwqTLdYCOfqrCCO8O+Y9P93/tTNUxmmL9dOzqlhmHVQt0b2VOspC47rSMPGzfc1t3rRHoEq5Tw+siX59saJjs55QJhcku4sU+37dO61xOZnqB2rcSs6rPfKT+09jsv7U6ty3tKb1K7wmTef9mbYm7a39m+2PXPmzlhD63wHjdaBJWHqbLH7QNf2hx19qqEyXb1RuYh9OJr5jvSa5uwVPZ9pCh+L1SZdpJFQe0Kk5lHumi9jTDJ+m4SJo+olt6HXBwzfJs6hb2eA1RlxWYWxfRCbt7/r2JNxrXC5A0VSmdlUVKvVNmFKAFnvWNXtuc5u84sbpKRxLJh8sFtGoVIOBoe7VyiObrkArhcPzr5PtaT+ZllF4llqHthsT1h8uNKAAmTbOzmQWFyK7WExNzcD24Z8slcuBQTbncJj1aVXYjyiFPGeto7kILI7QiT53+6fA/QtTct9OzzZhV/2d2XTlpn95Eq15d27v3dL2Gy1fbgDvZGrlquEPjX6/HrhnMqPOSsVUy8SphM7U+9ksIkJaQkiBC2NVp2rejWCux2SJ3OsvO0srd2L2WxwQMqbG25Vpgsu4o3xb2Xe/xVHnt+ufeaecBrSRAq8xqp6zkyunnu2t0Ik+kt3DXW+WOSfbvLvqc3fny28b1iXnWvWpUV52vNr64SJl9xyYyQIExStgdCENsa7fSLN9eFLz2lm6GXblXKJbUaJu+5H+9a7YXvne75502Pdtmhz7WGFLOwrWxN082kG2HyuPO7s6o9FSW24vUwO5S1Gib74bqDMLkppPej1d0+tN63LIRodfeLbit7E0tYmd3f+x7XKvMI1wqTZfc8Xm81arcMVBi1WOvcK7uCOXNnhcnD7wDUaenB24rXxJQ6aiVM5r44M6+upDBJaVVKs2j92Xo9l6mO93+hXM/Xo08d64v3W6XEzeHCZKYglP3vv337Ys8/bx40y86bXKsaQEoblfnvs1JXmOzNsSnbe7zZ2uNOH28pTD6qT647CJObRtU9grX+a9fcuPmGY8ouRnnK2RN98X6/u32xpTCZ+W9l//vd4/0xf/Axp5W7NmRP58Mpuz1fSkQJk2v3zF/17c6tKM5w8Fa8Jh71orGWwuSTzpoQDoRJqkidQYFs87bUX1zZhKMxmcxfdiFCP8hQbithMtvetWs7xm4pWxLp0jWG5cvu6vSVW4TJdWtMHj/a3Gq1I5/lnVszTKaeayth8ug3yxvCJJWc8cEZoWwTt8u+ujnroGX/5a0aJg9XL3H77vL/fbe2qmvXqMVaYfLRJcNkr4rm9ypMlu3xvWeZmp372t9jffK7tmaYzPFqJUxmC0eESSp412fnhLJN2n77JePNYr6b0TtKTvzvl+GmzGMs837ve8y+w/73Gbou+712oyRMGWWLRH/yesPcZdqvPm+scWUx9zYPG3/x+sla8wBTgaOdTtuiw9zZdlKYRJjsovQKCGabs13+1c27O8NFXyy3ACd7Y/eDT3yj3AKcLGg7nKkKC3DWKrjcTXlISTAu836/uMac3SeWXIDz3qs3197HdcJktpXcd9COUzkfypaKOrg99ezJxv42nh6v/sjWHJlaax6vMClMCpMdklWm91IeaNO1DJVt5t0ZPl+yAHFKdEz1QTH2snM8ExDW8qCS2+v1wx7VVYb1UzP0cMoWaX/pRVu3NNBqb+ThZGvCX3/BWOXf/gnvaF8Nyq04MrXe+SRMCpPCZAf9n3+0onuztV7tVd2LsHL193o/DJpV5WXeaxa0raXsHMQsitgsPcf3Wqce35kle73+7xlbs2h5zpmx6fVT3/eLnV3K1h+952403Xyo2yzTfi65bv0HMWFSmBQmO+i4863o3mw11JY2+Z6xGaq7z7PLfd6XXNTbcDVaDE+WHfLNsGGrv7OHnTx22EU83ZSFT2Xea3rW1vLBL5UPpEP7tt52imdeWq7HNQ9L93lWtWtAjtmHr2u9B7tKlYEE2B17lvuybRTahUmEyS5451UW4Wym9sUbt8Y2X2Xn1KXMx/4eTiPMnL6y382nbli7x7jKkGIvF6XsnVguHW4ylL2WKvs+v/WTs5vmvG13mIwPlAzeB7c8jH2pxS3/Mlyeh5cyfy9F6Dc7YVKYFCY7qMqQo9bb9vdb6CJXZfeNi6/pzTzC9AA/tmQpl/QW7Z1cu4ctQ5plP+/TXte7693Zl5ffOvLdn5vbIKiMlu7hXFjcHOdtJ8JknHXZbOXrQebh3jTQWjf2s84rPzL1g8GlTX3NESaFSWGyw8qWAdF61zLUetuupS1zzlWpJJAdLeZ6sEd35mCVfY+Pf8XEhsH04aeU/531ov5ieiUffEL5OXwb7Qn/3AqLVTbLtoqdCpMJ33WKiLdagzIPamX/1t+8aXPfh4VJYVKY7LCtWm9sK7XXXDqzpc65hKvcCMt+/td/tLtDoeNFTb+sxi37/t7+qY1L3LzsA+V7Y3+3mBvb7d66KkWss6BoI5+rsMAjZZXunOz/7Zw6FSajbg3K1PScrFn1IOd52TnBaZ/59uZd/CdMCpPCZIdljpbA1r8toaYfSuS02ysuKR+uMo+vmzUYn11h+C97KJdZRFK2+Plqy/Hpliu+ub/SeysTnhOOyg51r+541O/bg3YyTEbdGpRPLwp11y0XlukzZf/OI4spCf1SWF+YRJjsMxlC/OUTRwW3Pm1r7TKy2WV4ruyq7tUhvaE7O38jK7vd42o79vzyN58/e81E6dfNPMyPfLnzw783F3PhqgxvP7AoZzM6VS71la3Rudpee3l/L8bpdJiMujUoX/jeepUPsj96lb+Tfdtn92++h1thUpgUJrsgJVgEt/5rJ16wtS9sz624o8jvvHS8MTLauUCZVddVC/lncU1ZV317f+W5smvt6NGuIFllLmfaKyv0mCZ0PrBiLcVOru5O713mCWaRU3r8E9pSCLzs4pJuhMmoW4PynCvqHbsnvHqi0t95RtGL3MlA+Y1bF5vXhkz3+INiSsWp75tu/HBna3PGhUlhUpjsglxMhbf+ahki3AzzyFqxffdS437HVDsujzp1rHHjQHsXIyVkVFlhXqY8zuFkGPdPz6x2484Qfye2HbymKDP1kIojEhnByEKdKt7wseorlfNw2+45o1kw9AdrFI/POXjlDRuH9m6Fyahbg/LSGr3ZdbbW/ZNXTVQ+FzaS7/yfPjRz2Ae6PFhd9pX6PfW9CJP5vWdk6e/OmWw89KQDv7U8JPz5WRPNB9e5/Vv7+i5MHqEyfCHE9U8rc3PbCl730eph4/7HjjYvxu0o4J5V8k86q/q5nx63Oitpb9yx1JxnWfXvZTi9HTfv3MASdu5dYyvV9coBrff38gBQ9W/98Ssnmj2n7ZCAtVFP3wOO3fj77GaYjLo1KK/7QfVqAMfW2MAivdr/8o32XKfyO9zoHpTPVrdEUbfD5J7x5X+9rmQebK5z6RXPfOO/Lua4JjCnUsV3ty82ECa3lAu/MC/E9UnLytojRYbLsh1aneOUVcVZQFZn4UbqQmaRS9We0dX2z1fV7y185SUztf5mehIzDDw9X/0DJ3gnVD361HqlwNITVXeRR3rZ7lUjvCY8ZL/l4ZpTG772w8XGU88uv0J6o6oB3Q6TkUoOdWpQVg3imT7yKyfVmzufBUBfv7VeKMrvMJ+x7HSI59W8NnYzTE4Uq+QzJSfn7/uL++rhrk8Zyk8Yf9Dxo5u+hqcwyd1kn90qqy+1zrTHnFa/1MdmleLLv/ic+udeiotnvljmmi2vc+hSCiU9vtnesJW/94wWVx5nOC89b3X/fsJC5pF94fsLa+6PHQl/WQWfhS11FnUcPLw9sLe1XtG6AXp1iDN7n3+i6AXbt8Hin/RwpQf1ya+tfnw3qqXYizBZtwZlvu+qITwPZnVC/8GLc3LsM79xvd9HwlbmAuccTo9w1etjv4fJfK68VnqWs4NXdppLz+Q/FmX4sjFASizlOrV63cse9Zt9m1xhkrt58ydmBboetgzFtTrRfLOqM6R32KBVPOmniHjmKT3n7VPNlgUX6ZG79zNbf/28TtnVzOte4PbU7wm655zK3GAzdLb6eRN2Mz/w/se2/vo5Zu1YBJRSQVVWs6/3frLRQoLf8cXimee/e7r5ebNF5yNOaW0Dho12H+pFmFx9+KhTgzLhrmovdvaYb1dJs3zfCWdZaZ7z8ilnTzQeVyyqqTPNY7XlO+7nMJme1ny+P3rlxL8+wOZ187kzEvL4u4by3/P5AyMbL//QgeN91bf3CyDC5NaRJ8YUEBbsetPaNf9os6ozf7KbLZPoN9r5pYrUnnzgcf39e3vnVe1b/JMQXndKQzdaeo76MUyuhpIEkjq96FV6vdJjdlyN+ZPdalnA1s9h8rKvHqjYcP6n5+4WJrOoLDKdIP+c1eqr14D884svnBZAhMmtJTcPwa77rZtFqvtVhsZWh4j6rWWotxOT5TO0eN9j+vOczErsdhsshst/44X9t4Vrhnc3KozfyzC5euweXqP39eyK9TszNPuXb5jsy3Pygs/Ue7jpVpg894oDfye/64PDZHplU5Xh6DdPNqcgfOeua0kK1effZ2QBYXJLyZBKhs0EvO61DK8tmoP9r4GyXUNt7Wq5gbe7HNHBUpolw/P9FKzeduVcxz5vis8/ts+uMas9R/0cJuN7NWpQ5mGl6s418wsrzXmq/fQdZW5h3XI63QqTWa2d1/nUXdU4VsNkVm6nJFC+iyxYWp3rPHHXv0/IRJjccnJzu9czhbxutJSNyAWFu3tbcVFuZW5Vu1qGFjO/sdPSK/bwU3rfY5cFAd3YeSdzy5746v4oR3bGB2dKrVTvhzAZn/9u9RqUmZNcVY5Jhl/74TtKEGulNFa3wuRn7tqYYLVXfzVMpo5tfOjaA3PDL/rige8jFQfyz6mviTC5JaUEg7DX2ZaFBKlHxuF99ZbeBqzMa6pThqeVgFVnoUW72lHF8HPmcHVzFORlH+hdL3RWEl9yXfmQdXLJa+JZl3V+W8iEkSqfNduE1vXh4hi1YzFX3V7y097fehH71eHnjdqzzmstTKbHMT3HWaiX0aZ7hslsRJFFZPmdRxaQ5d/nWocwuSWNTa/05dymrdKy2jE7wLC+3UXYPrbLCwLy3Xz0a71ZDJXeoAwxP6CLN+/c3LL4pFclqTK/7KguX2uykOP2XdV+f2eWnH5Rp7h7HVVqUKZgditu3VmvuH8r7ZHF3MKUv2qHstUiNlqEVUaC+2pv4+omAZ//3r99jpwfqWl67U0LzdGXjaoIIExueilE2w9DjVutpfh0lT2dOVD4OlMCOvm9pIB5esrG+2DaQeo6ZrvGez+z86HqW7f1/lxMD3DCWqdXt2fxQ4bxl2t8xV+5ZaFUML9tV3ceEjO/OHuLlyn+PtyGPe3z9zJM2+lOhjxIJWxNza209fdU5l7WrjJYqyMM6Xm8ZymxnHsJt/mcKXXUju8GYbLvnXOF2pPtXsxhx4P6N7Nc7FO/rp1zehPuU+9tpA8v6rcMLTWH21spsn64wJPVunW23eu0DANmmPihJ7U3VGZHkgwNt7ofckrtdLpnq4qsvM5K4fXe0+oQa7tkyDk9nTmm7fyOHnbyWDNEdmrqz+kXz2w4L3O5Tfk1C5he8J7p5nUqv92s1n5RUW8zZZd+7fkHwnjmDGcxGsLkEXMDP/GCKUGwTXPSutVrsdXdUSyKyXBSetbS81Kn+HF6dbIjzv5N0EmcRVrpzTi6CDPZAadOr2uGKTOEXmdP8W5L706GvxOkV2++dXaTSsmtLG5aaVNIyFSAtcrmpDB3L86l9KSvVRA+8zw7WSkiq8tzjDNqUOcBL7/DU4reu88Vi4o6fewSgtfqyc12oZmz3G6pApHh7icUwTHzKHOcsqNRipSvWHcpTB5p8jSfm7ZAWL+lWPNmuIlvRpn0ngns6S3JUGku1hkizk0/4Ss3+UziP68IUp+8fn9bC4/3QopQZ5rEZV+Zb/bkZJXx6udNy4rU3DRTYinHJCtGW+2R67XMb7zim/ubCykSPlY/b+ab5X/mn1PeJ8Wic6PuRDA4+AE7DyF5H9mJJzu8XP29hZ6fEx//+v7mwsm/L77/7Gme772bstVl5jhmTmCmi6zuxpTv56/ecOB3mDqy2V8+W2O2ukVnXdfcuNB8H3lP2UUp0x4WXZqFSbr39Jst2gTD6i3DUBm+AwCEySNa6nz93ssEyiotT+gKkgOAMMldMnfrya815F1mjlpWPgIAwiT30I9bbfXb/MhO7OMMAAiTW0YmfGexg20X715yJSsbN/tiBwAQJuma1Kp7xCl2ysnWiLbEAgBhkhpSZPav3jB5RIbI7NiReoezeiMBQJikNc09dl80dsQMaaee4e5xBcoAQJikbVJA+rWXz7Z1+7d+C5EpCnyzLREBQJikcwaL3Q1SY/GXjtsaofL+x442Xnzh9KbfPQUAhEk2lbHpleb2WZt1kU4W1mROpB1sAECYpIf2Lx7YzzZ7ofZ7b+XDTh5tnH7xTOP6Hy829+EFAIRJ+kjqMCZYnlAEy4ed3Psey1941r7GH79yovGaS2eapY4WrakBAGGSzeP2XUuNS78835yT+PtnjDcXuXQyPGbI/elvnGwWXU+oHZ/R/QgAwiRbxsLigYB5zY0LjYu+ON84s+gxPPb8qcZfvH6y8fhXTDQed/p4cy7jQ04cbTzg2AND5hk6zz+nNFH+Xf7/nvGWycap75tuvPHjs819sq+9acHcRwAQJgEAQJgEAECYBABAmAQAQJgEAABhEgAAYRIAAGESAABhEgAAYRIAAIRJAACESQAAhEkAAIRJAACESWESAABhEgAAYRIAAGESAABhEgAAhEkAAIRJAACESQAAhEkAAIRJYRIAAGESAABhEgAAYRIAAGESAACESQAAhEkAAIRJAACESQAAhElhEgAAYRIAAGESAABhEgAAYRIAAIRJAACESQAAhEkAAIRJAACESUcDAABhEgAAYRIAAGESAABhEgAAhEkAAIRJAACESQAAhEkAAIRJAAAQJgEAECYBABAmAQAQJgEAQJgEAECYBABAmAQAQJgEAECYBAAAYRIAAGESAABhEgAAYRIAAIRJAACESQAAhEkAAIRJAACESQAAECYBABAmAQAQJgEAECYBAECYBABAmAQAQJgEAECYBABAmAQAAGESAABhEgAAYRIAAGESAACESQAAhEkAAIRJAACESQAAhEkAABAmAQAQJgEAECYBABAmAQBAmAQAQJgEAECYBABAmAQAQJgEAABhEgAAYRIAAGESAABhEgAAYVKYBABAmAQAQJgEAECYBABAmAQAAGESAABhEgAAYRIAAGESAABhUpgEAECYBABAmAQAQJgEAECYBAAAYRIAAGESAABhEgAAYRIAAGFSmAQAQJgEAECYBABAmAQAQJgEAABhEgAAYRIAAGESAABhEgAAYdLRAABAmAQAQJgEAECYBABAmAQAAGESAABhEgAAYRIAAGESAABhEgAAhEkAAIRJAACESQAAhEkAADgkTA4MDJ82Nj655HAAAFDWyspKY2BwZHHbjsGdJ+4bnZhzSAAAKGt5eTlhcqoIk8NP37t31Dg3AAClLS4uFmFy18i27UO7jhoe2TPukAAAUNbs7FxjaOfItdu2b9/+0wODw/sdEgAAypqYnF4phrnP3RaDQ7uG9i8sOCoAAJSye8++iR07Rp7cDJNFqnzXZJEuHRYAAMoo8uP88PDwzzbD5B2DI48f2bV3wmEBAGAjs3PzjcHBXTduW1X8336ySJcTWZUDAADr2bN3dHpgYOT4bQcbGNr1xtGxiXmHBwCAtSwtLWWIe2ZwcPBn7hYmt2/f8/PFv5hdWlp2lAAAOKx0Pg4Ojpyz7XAGhkbedue+cbvhAABwiAOFykem0wl52DB5222j/6WoZD62f78yQQAA3N2u3XfO7BgcOXXbeop6QU8d2rl7enlFpSAAAA6YmppZGhwaueX66xs/tW0jxXD3e4tVOjMOGwAAGbUu5klODQzsvt+2MootFv9DkTy/NWZ1NwDAES3zJIvdEmcHBnY+YVsVWe5d9FBuHx+fNIESAOAIDZJDO3fN7Bgafva2Om6/fffPFT2UN9+5b2zW4QQAOHI0h7aHmkHymG2tuGXv3v9UBMovFNstTqdIJQAAW1tzsU1zjmTFoe21FK/5EwMDwy8pXnSmeHFVzQEAtqAMaxflf6azarv0YpsqBgZ2PaSYR3nD8MieqdlZtc0BALaCjD5nZ5sUJC/qSL6oVPmf1nopdz4xcyl3Du+empicWjb8DQCw+czOzTf27h2dzpba2SJxzZ1tOmXHjuHfKkLlhUmxRbCcSKKdnp5tTthMwFxeVvgcAKCXVoqNaJaXlxsLC4uN2dn5xsTk9MruPfsmivxW7LG968aBgZHjU8VnWy8V7/PfF3Mqf+2OwZEXDu7cdXlznL3YlnFgcHhux8BwQ9M0TdM0TetNK0LjUjr+iuA4PDS067rifz+32PHwycPDwz/bjhz4/wGY5EZoIbyIKwAAAABJRU5ErkJggg==;clipPath=inset(25% 11% 25.5% 8.33%);" vertex="1" parent="1">
          <mxGeometry x="70" y="301.59000000000003" width="93.9" height="38.41" as="geometry" />
        </mxCell>
        <mxCell id="oM49j2kRH9s5FRGwLrnU-49" value="" style="sketch=0;points=[[0.015,0.015,0],[0.985,0.015,0],[0.985,0.985,0],[0.015,0.985,0],[0.25,0,0],[0.5,0,0],[0.75,0,0],[1,0.25,0],[1,0.5,0],[1,0.75,0],[0.75,1,0],[0.5,1,0],[0.25,1,0],[0,0.75,0],[0,0.5,0],[0,0.25,0]];verticalLabelPosition=bottom;html=1;verticalAlign=top;aspect=fixed;align=center;pointerEvents=1;shape=mxgraph.cisco19.rect;prIcon=web_application_firewall;fillColor=#FAFAFA;strokeColor=#000000;" vertex="1" parent="1">
          <mxGeometry x="400" y="260" width="64" height="50" as="geometry" />
        </mxCell>
        <mxCell id="oM49j2kRH9s5FRGwLrnU-51" value="" style="whiteSpace=wrap;html=1;aspect=fixed;dashed=1;" vertex="1" parent="1">
          <mxGeometry x="210" y="210" width="150" height="150" as="geometry" />
        </mxCell>
        <mxCell id="oM49j2kRH9s5FRGwLrnU-52" value="" style="shape=image;verticalLabelPosition=bottom;labelBackgroundColor=default;verticalAlign=top;aspect=fixed;imageAspect=0;image=https://www.esa.int/var/esa/storage/images/esa_multimedia/images/2016/10/raspberry_pi_logo/16166824-1-eng-GB/Raspberry_Pi_logo_pillars.jpg;" vertex="1" parent="1">
          <mxGeometry x="251.7" y="216" width="66.6" height="74" as="geometry" />
        </mxCell>
        <mxCell id="oM49j2kRH9s5FRGwLrnU-53" value="" style="shape=image;verticalLabelPosition=bottom;labelBackgroundColor=default;verticalAlign=top;aspect=fixed;imageAspect=0;image=data:image/png,iVBORw0KGgoAAAANSUhEUgAAApMAAAG4CAYAAAAZlWyVAAAABmJLR0QA/wD/AP+gvaeTAAAtAUlEQVR42u3deZhlZX0n8M5M8jwzf8xMJpN5kpnnGY0aNRonGo0JmowmJplkTKJJ3LKYYBIV2QRxwaCIcUHEHUSRuCKoKKBGREVFEdzBFQRRaLqquqoXuvata7tzvreppKG7qs45d63qz+d53ichhFv3nnvuOd/zLr9327Y2aDQaP7l9aNdROwaHXzw4uOtjg0O7bh0YHBkfGBye2zEw3NA0TdM0TdN604pMtlS0mYHBXSNFRvvKwNDI2wYGdj7t9tt3/9y2XhsYGH5MER4vzhscHt4zMTo2sX96eraxf/9CY2lpubG8vNIAAKB3Voo4try83FhcXGzMzs03JianV3bv2TdR5Lf5waGRm3cM7jxxaGjov3UtQBbv6SfuGBx+Unofdw7vnire0HKCIwAAm8tcES737h0tei1HZg/0WA78z44GycHBwV8pQuR3h0f2TM3OzvkGAAC2gHQMjhUjzM3h8KHh066/vvFT7e6N/HeDgyNnFG12anpGNyQAwBa0uLjU2L3nzuliGuOtxdD3A9oSJH/0o33/uej2vHZk197ppaUlRxkAYIubmppZLjoRpwYHh/+spSC5ffueny8mZt6yb9+EMW0AgCNIFlQX0xtnBgZGjqsVJLOqpwiSd4xPTC04nAAAR54Mew/tbAbKY6sutPmPRdfmd8fGJ+cdRgCAIztQFj2Us5WGvIsgeWGxTHzW4QMAoDnk3ZxDOXj/EoXIdz1t587d0ysrCo4DAHBAc1HO0MgP1y0btH379p8uttoZS/oEAICD7d595/SOwV0vXrtXcmjX+XfuG7dyGwCAQ2T+ZFHYfPqOO/b+j0OCZDb7zlY62bsRAAAOZ7TYKaeYP3nu4eZKvqn4l1ZvAwCwpmxik20Xi8U4P3Pwdok/WfwfJxYXFx0hAADWVVT9mS5qTx7/r2HyjjtG/qjYLnHCoQEAYCNzc/MpFXTTQQtvRt49OTmtFhAAAKUUo9pzIyMj//2uIuW7di4sKAcEAEA5u/fsm9ixY+Qp23bs2PFfBwaHLbwBAKC0iWJUu+idfOu27UO7jhoe2TPukAAAUNbs7HxjaGjXddt2DA4/vViRM+mQAABQVqoAFTsnjhRhcueJ+0Yn7HoDAEBp2eimGOaeKoqVD582Nj655JAAAFDWyspKwuRisQBn58vHx41yAwBQzY6B4YYwCQCAMAkAgDAJAIAwCQCAMAkAAMIkAADCJAAAwiQAAMIkAADCpDAJAIAwCQCAMAkAgDAJAIAwCQAAwiQAAMIkAADCJAAAwiQAAMKkMAkAgDAJAIAwCQCAMAkAgDAJAADCJAAAwiQAAMIkAADCJAAAwiQAAAiTAAAIkwAACJMAAAiTAAAgTAIAIEwCACBMAgAgTAIAIEwCAIAwCQCAMAkAgDAJAIAwCQAAwiQAAMIkAADCJAAAwiQAAMIkAAAIkwAACJMAAAiTAAAIkwAAIEwCACBMAgAgTAIAIEwCACBMAgCAMAkAgDAJAIAwCQCAMAkAAMIkAADCJAAAwiQAAMIkAADCJAAACJMAAAiTAAAIkwAACJMAACBMAgAgTAIAIEwCACBMAgAgTAIAgDAJAIAwCQCAMAkAgDAJAIAwKUwCACBMAgAgTAIAIEwCACBMAgCAMAkAgDAJAIAwCQCAMAkAgDApTAIAIEwCACBMAgAgTAIAIEwCAIAwCQCAMAkAgDAJAIAwCQCAMClMAgAgTAIAIEwCACBMAgAgTAIAgDAJAIAwCQCAMAkAgDAJAIAwKUwCACBMAgAgTAIAIEwCACBMAgCAMAkAgDAJAIAwCQCAMAkAgDAJAADCJAAAwiQAAMIkAADCJAAACJMAAAiTAAAIkwAACJMAAAiTAAAgTAIAIEwCACBMAgAgTAIAgDAJAIAwCQCAMAkAgDAJAIAwCQAAwiQAAMIkAADCJAAAwiQAAAiTAAAIkwAACJMAAAiTAAAIk1DRHXuWG//rH/bVar/wrH0OIAAIkwiTwiQACJMgTAIAwiTCJAAgTCJMAgDCJMKkMAkAwiQIkwCAMIkwCQAIkwiTAIAwiTAJAAiTCJPCJAAIkyBMAgDCJMIkACBMIkwCAMIkwqQwCQDCJBxqeaXRGJ9Zqd1g1b6plcb7rp5vvPSimcbLPjDTuPTL843Z/c6RI9H1P15snHXZbOPU9003Xv/R2caNA0sOCgiTAGu78ob9jQedMHpI7/Wvv2CsGSw4MswVDw8nvGPqkPPgXs/c1zj94pnG0rJjBMIkwD0kLN7n2WtPh3hwETJv36Vn6khwuCB5cDvzIzMOEgiTAHf3tNdNbji/9sQLphyoI+ChYqPz4D7FPOvBvbonQZiksm/dtlh7kcuvPm/skNc75m1TtV/vHZ+Zu9trWYBDKzKsmfNgo3PlISeOOlhbXOZIlrluXPiFeQcLhEmESWGSA4b2lT9/5izG2dKe967pUufBay+fdbBAmESYFCY5YGBv+fNnel6Y3MpO+udy16UzLzVvEoRJhElhEmESYRKESYRJYRJhEmEShElhUpgUJhEmESYBYVKYFCarWimyySXXzTcW1MQWJhEmAWFSmBQmq/rQtfPN9/H7Z4w3vn+HRClMIkwCwqQwKUyWNDK63NxZZfW93O+Yfc29oBEmESYBYVKYFCY3dPwa27alcPKKzCJMIkwCwqQwKUyu5Zs/Wv94vvSiGYFSmESYBIRJYVKYPLyj37zxXtAvuWjaiSdMIkwCwqQwKUze3Y9Hlhr3ema593f+p+ecfMIkwiQgTAqTwuS/yb6+Zd/fvYvQefX3FpyAwiTCJCBMCpPC5AG/9eKxSu/x4aeMNUanhBhhEmESECY3scXlRmN8ZqVWm5w99AY8M79S+/XmF+7+essr9d9bWjfVDb4nXjDlJBQmESYBYZIj3Qe/NF8rTGaO5fcUNRcmESYBYZIjW1Zo1x2S/9s3+50IkwiTgDDJEe1JZ03UDpPpncwwOcIkwiQgTHbF0W+ZbDzkxNFa7V++sf9ur5Uh1rqv9djTxg95bye/a7r267336rlDwkDd13roSaOHvLdXXDJT+/Xe9C+z634njzp1rHaYTHvDx2ad2MIkwiQgTHbHk19bvxfsnntEH0mruf/x/fWHol+zwU0m+2+3Eib/8OXjR+S5PLRvufmA85ZPzDYfRP7yDZONP3vNROPxrzjQnnr2ZOMfzp1qnPHBmca7PzfXuP7Hi4cs1NpMYXJu/0rjK7csNN539Xzj5R+aaTzzrVPNz/yEVx/4vPnf/+6cyea5ekHxe/h8UT5qYmbzBt0sort5cKl53XndR2cbzy1C3d+8abL5va5+3jwcv/C9041zrphtXPHN/Y3h0fb30vdzmMz5fNEX55vnwp+eOdE49vypxpU37O/qTln5rXz86/sbb77rd/j0N0427zP5jvKe8j1lm9hsCXvJdfONmwaWmt9tN+V4XPXt/c1zKCNBuS7kuC3UmHI+VSweve4HC83f2OkXzzT+/tx/+x0+7XWTjWefN9V4wXummx0Qb/3kbPPv5hghTAqTwmTHwuTiUqOlILlad3Izh4YqN4Rv3LrY/C7q9ubetwjuf13c7C78wvy6pZX6JUzuGV9uvPOqueYNsM5DR86NP/yn8cbrizB2266lvv+OE44+UTwg5Ib8K8UIQZ3v+KgXjjW3Hv3yzQttCS39GibzYLFWSbFnFCG77INTnZCfY5sQn2Nd5zv6388dbX7H+a479T5X7S8C47POO/x3+AfFg/iusY2DXu4n51051/jjV040f1N1PvNvFt9VHmx/uHOpgTApTAqTbQ2TCSKthsm0XNy3qtxs0htXtRbnRu0XnzPaDAo/GFzquzB5Q/HbSu9JzsV2fub03H72Owt9t8f7SNGjmN7WB58w2tbPm3PmXZ+da+k76rcwmc+SsLzRjlnt3no1fzfX2d94YXt/h/nO04tXJtTVcer71r92/8mrJhpLa/zpz393ofnwea9ntu/z5rUSbjv1eREmhUk9k7Xbh66dP+RpPMPAmdea9t3ti40bi+GlHcVx2Sxz/BJ4PlCUTXrEKe29eR2u9+64Ynhw8KChqF6FyfRaZMisk593tUemHx5A0qOeYNTqVI8yRf4zrLlY4/7dT2Eyw6uPLtkrn+vY0J2tB5Ycs1xf6/YUV3m4S8/d4WoQ15X7QJmexE9ef/f1APltZNi60+dk7qEIk8KkMNmWOZP3P7b1i3SO3ZkfmWnOJ8ux3ej/PzeGPyqGbPLUnnlMO/f111Pyj4aXGn9+1kTHQ9XB7YHHjTbnQaWXotthMr2vOU/u8+zufd70kCQo7evRTkqZZ/fwDj8o3LPlnL+14jBjP4TJqbmVxosvnK7cQ3bxNfMt/d1v377YfPDo5neUh8dP3GOxZ135/GX+Zq6DcefkSunvux3tYSePdX2TDGESYXKLhsnfPb27F+u1gkUmy2dBy3KPr22Xf3V/M9j16lgkkGexTrfCZHqQO90Lsl575AvGGt/8Ufd6SLKQKAsUevV50wP2/i+UD1m9DpPX3LhQe27i266caymI3feY3l2TTnrndGN2f2u/rXOLhVll/lYWMKXXt8yDeLvbBZ+ZE0yESWFSmGw9TD7n7VM9D5P37L25ebD7k8QTYl/2gZm+OAYPqjB3r5Uwee1NC41fPnG05583PaKZl9ppmSf2hy8f74vv+LTiN71Y4jTvVZjMcO+L3jvd0ny9y75S/TvNFJl+uSblXBlpYYV+Kj2U+TsZqWn3/OSyLSvdESaFSWGy5TCZVYL9FCZXVz2/5/Pde2LO0PIp757uu+PQyTCZkiHpJeunz9LJodr8Jh996lhffd4Tihv5RouRehEmry7KOv36C8ZafkDYPV4tiM0U53IWnPTTd3TUi8YaPx6p93BbNkz2suW+hzApTAqTLYfJ1F3rx4tcN3qqVoPks8+b2pRBsm6YzHSCXvWEbNReeUn7A2V+j484ZawvP+89F1/0MkxmQdLz2/RQtdFmCYcLkpnq0o/fUeYW1impsxnC5Bs/btMJYVKYFCbbECbTM9JqL0S7W97P/i5No0vh380aJOuEyawUvd8x/f2Z3vap9vVK751YbntZp3a2FELvhzD5uaIMza89v/XjlN7ud1Sch5fh/r9982Rfn5M5NlVXp/d7mEzvse1whUlhUphsS5iMPJ0eib2SZSfIl6kneHRxM8yqzH8q6hWmxt7zit04nlgsbHnQCaN9EyZvGVpqPOj41t9Pij7nt5ypASmtk5Iq+ewZomxHHcDM08uOMq3KKvXshNKOaRdZVZwe7HzO/B5TzukpZ0+0HFRzvHoZJtMbuVEtxLItC7lurdGDl7mZ7fodJpRm8UzmP6eXNbsypXB+O3riH1csVqzye+t0mMzCqPzmsqAsc3DzPeZ8SQ9vmbnQ511p8Y0wKUwKk20MkylJ0Y4SQe1ouWAvdmH9zVdvWWzpBpNdYVJfc6N5YamTl9XZCVydqJVX9uaWlamPa2HlfnqLs5PNjSW2o0tpo2wh2UpZl4TwVntNTmvhd/OA4veQUJL5gzMbHON83jwA1bm+ZR5nr8Jktrx85Ava0xuZldtLNb6uy4rqCa387Wwh+OGivNjQBuXFUgLnM8U84cxTbWWVeLZE7GWYTGBPNYCNPm9+o3l4zAPz758xfsjDYOqeIkwKk8JkW8NkZK5aP5QIyjZtnZYbS92b6F8VRb1T/66Ombt28XhIG1dQlw2TdXufEiITmusG/C8WpWXq9g5m+7jFmnkye0TX+Zt5qMo+znnAqvuQUuU6l97ObofJdvZGphes7gKV7buXGr9UowxXrhMJdQlLdeQBMNfFutM9El67HSb/4vUHSobVldq5+U3k+trpLSQRJoXJIzhM5gLzuB7XnHz1R7qzJVyGoau+twTAj329PcWM904ut3S+VQ2TqeNYp8RLhrBTsLpV6bFKT2Wd1eP576rKe67zsJBerh1tmkOWYvxl6pVutBNQu8Nku+ZGJnTX7Y1cVWee5GNOa9/uSQlYT6qxOUFGGEZLFNtvR5hs53UHYXLLyEU+vUJ12sLiocOHdV/rcFtmpdeo7uvd80kvQwx1X+twOxJkiLLua81VKLz79k/1rkxQinV3Y3j7+3dUH97+v8Uw0cDe9k9U/+er5kptt9ZKmMzNvmptxQSFdsxZPNyxr7rYKzfTqr2EeSipehxfe/lsS8HocNJjt96xTw/oRtoVJsfb2BuZPdbr9kau+vS3qvccJ3y2ezvWfOd16suu7lrTyTCZ687gXgtkhEnYJL5x62KzV6ZnxYGLCfITXdrW6xlvqfY5/+RVEx3dcuyjX2utTM9GN9dsG1h1W8cM1XZKbo6/WXHRSpUh3KzertoDWqf3s6w89KZm6upnTg9xCvOX3bKvHWEyDwYPO7n1qRUPuKs3stVdqlJB4vdeVu0BJ4tMFjuYq/JgV2kldPGb3agXu5UwmbmRtjoUJqHv3bhjqfGGj832fDvFpxerEQ/XU9wJqRVXZbj3scWQWjf2js7ijU6FyQT1KjfILMrotNt3LTUeWmEx0oOLxThlz5H09nWyHmIrMkpQNRC1EibbOZ0ie9Xne2uHDLVXLZ+01IUOukwJqvK+Ml2mE2Hyt18yXmoYHWESuibTAzKHMysZs7Iv22c9qg92AklweV2xOnixi6M4VYb5MtRbp1BxXXWLRa8XJr/2w2rzis+5onvBKgtzqgT7d161ce9hpptUWdyUPZFX+vyeXTdMpjfyoSf1T2/kwbKIrezfz8NuO+btlpHP+A/nTlW6Rqz3kFMnTOZ4Zy4nwiRrSCmD3MyP9PaqD880L/ztaJnrs/q6KXmRPW2PLoZxM0SSmmudrnHYyvzIzJ/rdqhOSYyy7/GCz3S3BltC4VE1ajSuFyZffOF0pWG15S4HqyzwqTLdYCOfqrCCO8O+Y9P93/tTNUxmmL9dOzqlhmHVQt0b2VOspC47rSMPGzfc1t3rRHoEq5Tw+siX59saJjs55QJhcku4sU+37dO61xOZnqB2rcSs6rPfKT+09jsv7U6ty3tKb1K7wmTef9mbYm7a39m+2PXPmzlhD63wHjdaBJWHqbLH7QNf2hx19qqEyXb1RuYh9OJr5jvSa5uwVPZ9pCh+L1SZdpJFQe0Kk5lHumi9jTDJ+m4SJo+olt6HXBwzfJs6hb2eA1RlxWYWxfRCbt7/r2JNxrXC5A0VSmdlUVKvVNmFKAFnvWNXtuc5u84sbpKRxLJh8sFtGoVIOBoe7VyiObrkArhcPzr5PtaT+ZllF4llqHthsT1h8uNKAAmTbOzmQWFyK7WExNzcD24Z8slcuBQTbncJj1aVXYjyiFPGeto7kILI7QiT53+6fA/QtTct9OzzZhV/2d2XTlpn95Eq15d27v3dL2Gy1fbgDvZGrlquEPjX6/HrhnMqPOSsVUy8SphM7U+9ksIkJaQkiBC2NVp2rejWCux2SJ3OsvO0srd2L2WxwQMqbG25Vpgsu4o3xb2Xe/xVHnt+ufeaecBrSRAq8xqp6zkyunnu2t0Ik+kt3DXW+WOSfbvLvqc3fny28b1iXnWvWpUV52vNr64SJl9xyYyQIExStgdCENsa7fSLN9eFLz2lm6GXblXKJbUaJu+5H+9a7YXvne75502Pdtmhz7WGFLOwrWxN082kG2HyuPO7s6o9FSW24vUwO5S1Gib74bqDMLkppPej1d0+tN63LIRodfeLbit7E0tYmd3f+x7XKvMI1wqTZfc8Xm81arcMVBi1WOvcK7uCOXNnhcnD7wDUaenB24rXxJQ6aiVM5r44M6+upDBJaVVKs2j92Xo9l6mO93+hXM/Xo08d64v3W6XEzeHCZKYglP3vv337Ys8/bx40y86bXKsaQEoblfnvs1JXmOzNsSnbe7zZ2uNOH28pTD6qT647CJObRtU9grX+a9fcuPmGY8ouRnnK2RN98X6/u32xpTCZ+W9l//vd4/0xf/Axp5W7NmRP58Mpuz1fSkQJk2v3zF/17c6tKM5w8Fa8Jh71orGWwuSTzpoQDoRJqkidQYFs87bUX1zZhKMxmcxfdiFCP8hQbithMtvetWs7xm4pWxLp0jWG5cvu6vSVW4TJdWtMHj/a3Gq1I5/lnVszTKaeayth8ug3yxvCJJWc8cEZoWwTt8u+ujnroGX/5a0aJg9XL3H77vL/fbe2qmvXqMVaYfLRJcNkr4rm9ypMlu3xvWeZmp372t9jffK7tmaYzPFqJUxmC0eESSp412fnhLJN2n77JePNYr6b0TtKTvzvl+GmzGMs837ve8y+w/73Gbou+712oyRMGWWLRH/yesPcZdqvPm+scWUx9zYPG3/x+sla8wBTgaOdTtuiw9zZdlKYRJjsovQKCGabs13+1c27O8NFXyy3ACd7Y/eDT3yj3AKcLGg7nKkKC3DWKrjcTXlISTAu836/uMac3SeWXIDz3qs3197HdcJktpXcd9COUzkfypaKOrg99ezJxv42nh6v/sjWHJlaax6vMClMCpMdklWm91IeaNO1DJVt5t0ZPl+yAHFKdEz1QTH2snM8ExDW8qCS2+v1wx7VVYb1UzP0cMoWaX/pRVu3NNBqb+ThZGvCX3/BWOXf/gnvaF8Nyq04MrXe+SRMCpPCZAf9n3+0onuztV7tVd2LsHL193o/DJpV5WXeaxa0raXsHMQsitgsPcf3Wqce35kle73+7xlbs2h5zpmx6fVT3/eLnV3K1h+952403Xyo2yzTfi65bv0HMWFSmBQmO+i4863o3mw11JY2+Z6xGaq7z7PLfd6XXNTbcDVaDE+WHfLNsGGrv7OHnTx22EU83ZSFT2Xea3rW1vLBL5UPpEP7tt52imdeWq7HNQ9L93lWtWtAjtmHr2u9B7tKlYEE2B17lvuybRTahUmEyS5451UW4Wym9sUbt8Y2X2Xn1KXMx/4eTiPMnL6y382nbli7x7jKkGIvF6XsnVguHW4ylL2WKvs+v/WTs5vmvG13mIwPlAzeB7c8jH2pxS3/Mlyeh5cyfy9F6Dc7YVKYFCY7qMqQo9bb9vdb6CJXZfeNi6/pzTzC9AA/tmQpl/QW7Z1cu4ctQ5plP+/TXte7693Zl5ffOvLdn5vbIKiMlu7hXFjcHOdtJ8JknHXZbOXrQebh3jTQWjf2s84rPzL1g8GlTX3NESaFSWGyw8qWAdF61zLUetuupS1zzlWpJJAdLeZ6sEd35mCVfY+Pf8XEhsH04aeU/531ov5ieiUffEL5OXwb7Qn/3AqLVTbLtoqdCpMJ33WKiLdagzIPamX/1t+8aXPfh4VJYVKY7LCtWm9sK7XXXDqzpc65hKvcCMt+/td/tLtDoeNFTb+sxi37/t7+qY1L3LzsA+V7Y3+3mBvb7d66KkWss6BoI5+rsMAjZZXunOz/7Zw6FSajbg3K1PScrFn1IOd52TnBaZ/59uZd/CdMCpPCZIdljpbA1r8toaYfSuS02ysuKR+uMo+vmzUYn11h+C97KJdZRFK2+Plqy/Hpliu+ub/SeysTnhOOyg51r+541O/bg3YyTEbdGpRPLwp11y0XlukzZf/OI4spCf1SWF+YRJjsMxlC/OUTRwW3Pm1r7TKy2WV4ruyq7tUhvaE7O38jK7vd42o79vzyN58/e81E6dfNPMyPfLnzw783F3PhqgxvP7AoZzM6VS71la3Rudpee3l/L8bpdJiMujUoX/jeepUPsj96lb+Tfdtn92++h1thUpgUJrsgJVgEt/5rJ16wtS9sz624o8jvvHS8MTLauUCZVddVC/lncU1ZV317f+W5smvt6NGuIFllLmfaKyv0mCZ0PrBiLcVOru5O713mCWaRU3r8E9pSCLzs4pJuhMmoW4PynCvqHbsnvHqi0t95RtGL3MlA+Y1bF5vXhkz3+INiSsWp75tu/HBna3PGhUlhUpjsglxMhbf+ahki3AzzyFqxffdS437HVDsujzp1rHHjQHsXIyVkVFlhXqY8zuFkGPdPz6x2484Qfye2HbymKDP1kIojEhnByEKdKt7wseorlfNw2+45o1kw9AdrFI/POXjlDRuH9m6Fyahbg/LSGr3ZdbbW/ZNXTVQ+FzaS7/yfPjRz2Ae6PFhd9pX6PfW9CJP5vWdk6e/OmWw89KQDv7U8JPz5WRPNB9e5/Vv7+i5MHqEyfCHE9U8rc3PbCl730eph4/7HjjYvxu0o4J5V8k86q/q5nx63Oitpb9yx1JxnWfXvZTi9HTfv3MASdu5dYyvV9coBrff38gBQ9W/98Ssnmj2n7ZCAtVFP3wOO3fj77GaYjLo1KK/7QfVqAMfW2MAivdr/8o32XKfyO9zoHpTPVrdEUbfD5J7x5X+9rmQebK5z6RXPfOO/Lua4JjCnUsV3ty82ECa3lAu/MC/E9UnLytojRYbLsh1aneOUVcVZQFZn4UbqQmaRS9We0dX2z1fV7y185SUztf5mehIzDDw9X/0DJ3gnVD361HqlwNITVXeRR3rZ7lUjvCY8ZL/l4ZpTG772w8XGU88uv0J6o6oB3Q6TkUoOdWpQVg3imT7yKyfVmzufBUBfv7VeKMrvMJ+x7HSI59W8NnYzTE4Uq+QzJSfn7/uL++rhrk8Zyk8Yf9Dxo5u+hqcwyd1kn90qqy+1zrTHnFa/1MdmleLLv/ic+udeiotnvljmmi2vc+hSCiU9vtnesJW/94wWVx5nOC89b3X/fsJC5pF94fsLa+6PHQl/WQWfhS11FnUcPLw9sLe1XtG6AXp1iDN7n3+i6AXbt8Hin/RwpQf1ya+tfnw3qqXYizBZtwZlvu+qITwPZnVC/8GLc3LsM79xvd9HwlbmAuccTo9w1etjv4fJfK68VnqWs4NXdppLz+Q/FmX4sjFASizlOrV63cse9Zt9m1xhkrt58ydmBboetgzFtTrRfLOqM6R32KBVPOmniHjmKT3n7VPNlgUX6ZG79zNbf/28TtnVzOte4PbU7wm655zK3GAzdLb6eRN2Mz/w/se2/vo5Zu1YBJRSQVVWs6/3frLRQoLf8cXimee/e7r5ebNF5yNOaW0Dho12H+pFmFx9+KhTgzLhrmovdvaYb1dJs3zfCWdZaZ7z8ilnTzQeVyyqqTPNY7XlO+7nMJme1ny+P3rlxL8+wOZ187kzEvL4u4by3/P5AyMbL//QgeN91bf3CyDC5NaRJ8YUEBbsetPaNf9os6ozf7KbLZPoN9r5pYrUnnzgcf39e3vnVe1b/JMQXndKQzdaeo76MUyuhpIEkjq96FV6vdJjdlyN+ZPdalnA1s9h8rKvHqjYcP6n5+4WJrOoLDKdIP+c1eqr14D884svnBZAhMmtJTcPwa77rZtFqvtVhsZWh4j6rWWotxOT5TO0eN9j+vOczErsdhsshst/44X9t4Vrhnc3KozfyzC5euweXqP39eyK9TszNPuXb5jsy3Pygs/Ue7jpVpg894oDfye/64PDZHplU5Xh6DdPNqcgfOeua0kK1effZ2QBYXJLyZBKhs0EvO61DK8tmoP9r4GyXUNt7Wq5gbe7HNHBUpolw/P9FKzeduVcxz5vis8/ts+uMas9R/0cJuN7NWpQ5mGl6s418wsrzXmq/fQdZW5h3XI63QqTWa2d1/nUXdU4VsNkVm6nJFC+iyxYWp3rPHHXv0/IRJjccnJzu9czhbxutJSNyAWFu3tbcVFuZW5Vu1qGFjO/sdPSK/bwU3rfY5cFAd3YeSdzy5746v4oR3bGB2dKrVTvhzAZn/9u9RqUmZNcVY5Jhl/74TtKEGulNFa3wuRn7tqYYLVXfzVMpo5tfOjaA3PDL/rige8jFQfyz6mviTC5JaUEg7DX2ZaFBKlHxuF99ZbeBqzMa6pThqeVgFVnoUW72lHF8HPmcHVzFORlH+hdL3RWEl9yXfmQdXLJa+JZl3V+W8iEkSqfNduE1vXh4hi1YzFX3V7y097fehH71eHnjdqzzmstTKbHMT3HWaiX0aZ7hslsRJFFZPmdRxaQ5d/nWocwuSWNTa/05dymrdKy2jE7wLC+3UXYPrbLCwLy3Xz0a71ZDJXeoAwxP6CLN+/c3LL4pFclqTK/7KguX2uykOP2XdV+f2eWnH5Rp7h7HVVqUKZgditu3VmvuH8r7ZHF3MKUv2qHstUiNlqEVUaC+2pv4+omAZ//3r99jpwfqWl67U0LzdGXjaoIIExueilE2w9DjVutpfh0lT2dOVD4OlMCOvm9pIB5esrG+2DaQeo6ZrvGez+z86HqW7f1/lxMD3DCWqdXt2fxQ4bxl2t8xV+5ZaFUML9tV3ceEjO/OHuLlyn+PtyGPe3z9zJM2+lOhjxIJWxNza209fdU5l7WrjJYqyMM6Xm8ZymxnHsJt/mcKXXUju8GYbLvnXOF2pPtXsxhx4P6N7Nc7FO/rp1zehPuU+9tpA8v6rcMLTWH21spsn64wJPVunW23eu0DANmmPihJ7U3VGZHkgwNt7ofckrtdLpnq4qsvM5K4fXe0+oQa7tkyDk9nTmm7fyOHnbyWDNEdmrqz+kXz2w4L3O5Tfk1C5he8J7p5nUqv92s1n5RUW8zZZd+7fkHwnjmDGcxGsLkEXMDP/GCKUGwTXPSutVrsdXdUSyKyXBSetbS81Kn+HF6dbIjzv5N0EmcRVrpzTi6CDPZAadOr2uGKTOEXmdP8W5L706GvxOkV2++dXaTSsmtLG5aaVNIyFSAtcrmpDB3L86l9KSvVRA+8zw7WSkiq8tzjDNqUOcBL7/DU4reu88Vi4o6fewSgtfqyc12oZmz3G6pApHh7icUwTHzKHOcsqNRipSvWHcpTB5p8jSfm7ZAWL+lWPNmuIlvRpn0ngns6S3JUGku1hkizk0/4Ss3+UziP68IUp+8fn9bC4/3QopQZ5rEZV+Zb/bkZJXx6udNy4rU3DRTYinHJCtGW+2R67XMb7zim/ubCykSPlY/b+ab5X/mn1PeJ8Wic6PuRDA4+AE7DyF5H9mJJzu8XP29hZ6fEx//+v7mwsm/L77/7Gme772bstVl5jhmTmCmi6zuxpTv56/ecOB3mDqy2V8+W2O2ukVnXdfcuNB8H3lP2UUp0x4WXZqFSbr39Jst2gTD6i3DUBm+AwCEySNa6nz93ssEyiotT+gKkgOAMMldMnfrya815F1mjlpWPgIAwiT30I9bbfXb/MhO7OMMAAiTW0YmfGexg20X715yJSsbN/tiBwAQJuma1Kp7xCl2ysnWiLbEAgBhkhpSZPav3jB5RIbI7NiReoezeiMBQJikNc09dl80dsQMaaee4e5xBcoAQJikbVJA+rWXz7Z1+7d+C5EpCnyzLREBQJikcwaL3Q1SY/GXjtsaofL+x442Xnzh9KbfPQUAhEk2lbHpleb2WZt1kU4W1mROpB1sAECYpIf2Lx7YzzZ7ofZ7b+XDTh5tnH7xTOP6Hy829+EFAIRJ+kjqMCZYnlAEy4ed3Psey1941r7GH79yovGaS2eapY4WrakBAGGSzeP2XUuNS78835yT+PtnjDcXuXQyPGbI/elvnGwWXU+oHZ/R/QgAwiRbxsLigYB5zY0LjYu+ON84s+gxPPb8qcZfvH6y8fhXTDQed/p4cy7jQ04cbTzg2AND5hk6zz+nNFH+Xf7/nvGWycap75tuvPHjs819sq+9acHcRwAQJgEAQJgEAECYBABAmAQAQJgEAABhEgAAYRIAAGESAABhEgAAYRIAAIRJAACESQAAhEkAAIRJAACESWESAABhEgAAYRIAAGESAABhEgAAhEkAAIRJAACESQAAhEkAAIRJYRIAAGESAABhEgAAYRIAAGESAACESQAAhEkAAIRJAACESQAAhElhEgAAYRIAAGESAABhEgAAYRIAAIRJAACESQAAhEkAAIRJAACESUcDAABhEgAAYRIAAGESAABhEgAAhEkAAIRJAACESQAAhEkAAIRJAAAQJgEAECYBABAmAQAQJgEAQJgEAECYBABAmAQAQJgEAECYBAAAYRIAAGESAABhEgAAYRIAAIRJAACESQAAhEkAAIRJAACESQAAECYBABAmAQAQJgEAECYBAECYBABAmAQAQJgEAECYBABAmAQAAGESAABhEgAAYRIAAGESAACESQAAhEkAAIRJAACESQAAhEkAABAmAQAQJgEAECYBABAmAQBAmAQAQJgEAECYBABAmAQAQJgEAABhEgAAYRIAAGESAABhEgAAYVKYBABAmAQAQJgEAECYBABAmAQAAGESAABhEgAAYRIAAGESAABhUpgEAECYBABAmAQAQJgEAECYBAAAYRIAAGESAABhEgAAYRIAAGFSmAQAQJgEAECYBABAmAQAQJgEAABhEgAAYRIAAGESAABhEgAAYdLRAABAmAQAQJgEAECYBABAmAQAAGESAABhEgAAYRIAAGESAABhEgAAhEkAAIRJAACESQAAhEkAADgkTA4MDJ82Nj655HAAAFDWyspKY2BwZHHbjsGdJ+4bnZhzSAAAKGt5eTlhcqoIk8NP37t31Dg3AAClLS4uFmFy18i27UO7jhoe2TPukAAAUNbs7FxjaOfItdu2b9/+0wODw/sdEgAAypqYnF4phrnP3RaDQ7uG9i8sOCoAAJSye8++iR07Rp7cDJNFqnzXZJEuHRYAAMoo8uP88PDwzzbD5B2DI48f2bV3wmEBAGAjs3PzjcHBXTduW1X8336ySJcTWZUDAADr2bN3dHpgYOT4bQcbGNr1xtGxiXmHBwCAtSwtLWWIe2ZwcPBn7hYmt2/f8/PFv5hdWlp2lAAAOKx0Pg4Ojpyz7XAGhkbedue+cbvhAABwiAOFykem0wl52DB5222j/6WoZD62f78yQQAA3N2u3XfO7BgcOXXbeop6QU8d2rl7enlFpSAAAA6YmppZGhwaueX66xs/tW0jxXD3e4tVOjMOGwAAGbUu5klODQzsvt+2MootFv9DkTy/NWZ1NwDAES3zJIvdEmcHBnY+YVsVWe5d9FBuHx+fNIESAOAIDZJDO3fN7Bgafva2Om6/fffPFT2UN9+5b2zW4QQAOHI0h7aHmkHymG2tuGXv3v9UBMovFNstTqdIJQAAW1tzsU1zjmTFoe21FK/5EwMDwy8pXnSmeHFVzQEAtqAMaxflf6azarv0YpsqBgZ2PaSYR3nD8MieqdlZtc0BALaCjD5nZ5sUJC/qSL6oVPmf1nopdz4xcyl3Du+empicWjb8DQCw+czOzTf27h2dzpba2SJxzZ1tOmXHjuHfKkLlhUmxRbCcSKKdnp5tTthMwFxeVvgcAKCXVoqNaJaXlxsLC4uN2dn5xsTk9MruPfsmivxW7LG968aBgZHjU8VnWy8V7/PfF3Mqf+2OwZEXDu7cdXlznL3YlnFgcHhux8BwQ9M0TdM0TetNK0LjUjr+iuA4PDS067rifz+32PHwycPDwz/bjhz4/wGY5EZoIbyIKwAAAABJRU5ErkJggg==;clipPath=inset(25% 11% 25.5% 8.33%);" vertex="1" parent="1">
          <mxGeometry x="240" y="301.59000000000003" width="93.9" height="38.41" as="geometry" />
        </mxCell>
        <mxCell id="oM49j2kRH9s5FRGwLrnU-54" value="" style="rounded=0;whiteSpace=wrap;html=1;movable=1;resizable=1;rotatable=1;deletable=1;editable=1;locked=0;connectable=1;" vertex="1" parent="1">
          <mxGeometry x="180" y="410" width="250" height="210" as="geometry" />
        </mxCell>
        <mxCell id="oM49j2kRH9s5FRGwLrnU-58" value="" style="sketch=0;points=[[0.015,0.015,0],[0.985,0.015,0],[0.985,0.985,0],[0.015,0.985,0],[0.25,0,0],[0.5,0,0],[0.75,0,0],[1,0.25,0],[1,0.5,0],[1,0.75,0],[0.75,1,0],[0.5,1,0],[0.25,1,0],[0,0.75,0],[0,0.5,0],[0,0.25,0]];verticalLabelPosition=bottom;html=1;verticalAlign=top;aspect=fixed;align=center;pointerEvents=1;shape=mxgraph.cisco19.rect;prIcon=web_application_firewall;fillColor=#FAFAFA;strokeColor=#000000;" vertex="1" parent="1">
          <mxGeometry x="400" y="490" width="64" height="50" as="geometry" />
        </mxCell>
        <mxCell id="oM49j2kRH9s5FRGwLrnU-59" value="" style="whiteSpace=wrap;html=1;aspect=fixed;dashed=1;" vertex="1" parent="1">
          <mxGeometry x="210" y="440" width="150" height="150" as="geometry" />
        </mxCell>
        <mxCell id="oM49j2kRH9s5FRGwLrnU-60" value="" style="shape=image;verticalLabelPosition=bottom;labelBackgroundColor=default;verticalAlign=top;aspect=fixed;imageAspect=0;image=https://www.esa.int/var/esa/storage/images/esa_multimedia/images/2016/10/raspberry_pi_logo/16166824-1-eng-GB/Raspberry_Pi_logo_pillars.jpg;" vertex="1" parent="1">
          <mxGeometry x="251.7" y="446" width="66.6" height="74" as="geometry" />
        </mxCell>
        <mxCell id="oM49j2kRH9s5FRGwLrnU-61" value="" style="shape=image;verticalLabelPosition=bottom;labelBackgroundColor=default;verticalAlign=top;aspect=fixed;imageAspect=0;image=data:image/png,iVBORw0KGgoAAAANSUhEUgAAApMAAAG4CAYAAAAZlWyVAAAABmJLR0QA/wD/AP+gvaeTAAAtAUlEQVR42u3deZhlZX0n8M5M8jwzf8xMJpN5kpnnGY0aNRonGo0JmowmJplkTKJJ3LKYYBIV2QRxwaCIcUHEHUSRuCKoKKBGREVFEdzBFQRRaLqquqoXuvata7tzvreppKG7qs45d63qz+d53ichhFv3nnvuOd/zLr9327Y2aDQaP7l9aNdROwaHXzw4uOtjg0O7bh0YHBkfGBye2zEw3NA0TdM0TdN604pMtlS0mYHBXSNFRvvKwNDI2wYGdj7t9tt3/9y2XhsYGH5MER4vzhscHt4zMTo2sX96eraxf/9CY2lpubG8vNIAAKB3Voo4try83FhcXGzMzs03JianV3bv2TdR5Lf5waGRm3cM7jxxaGjov3UtQBbv6SfuGBx+Unofdw7vnire0HKCIwAAm8tcES737h0tei1HZg/0WA78z44GycHBwV8pQuR3h0f2TM3OzvkGAAC2gHQMjhUjzM3h8KHh066/vvFT7e6N/HeDgyNnFG12anpGNyQAwBa0uLjU2L3nzuliGuOtxdD3A9oSJH/0o33/uej2vHZk197ppaUlRxkAYIubmppZLjoRpwYHh/+spSC5ffueny8mZt6yb9+EMW0AgCNIFlQX0xtnBgZGjqsVJLOqpwiSd4xPTC04nAAAR54Mew/tbAbKY6sutPmPRdfmd8fGJ+cdRgCAIztQFj2Us5WGvIsgeWGxTHzW4QMAoDnk3ZxDOXj/EoXIdz1t587d0ysrCo4DAHBAc1HO0MgP1y0btH379p8uttoZS/oEAICD7d595/SOwV0vXrtXcmjX+XfuG7dyGwCAQ2T+ZFHYfPqOO/b+j0OCZDb7zlY62bsRAAAOZ7TYKaeYP3nu4eZKvqn4l1ZvAwCwpmxik20Xi8U4P3Pwdok/WfwfJxYXFx0hAADWVVT9mS5qTx7/r2HyjjtG/qjYLnHCoQEAYCNzc/MpFXTTQQtvRt49OTmtFhAAAKUUo9pzIyMj//2uIuW7di4sKAcEAEA5u/fsm9ixY+Qp23bs2PFfBwaHLbwBAKC0iWJUu+idfOu27UO7jhoe2TPukAAAUNbs7HxjaGjXddt2DA4/vViRM+mQAABQVqoAFTsnjhRhcueJ+0Yn7HoDAEBp2eimGOaeKoqVD582Nj655JAAAFDWyspKwuRisQBn58vHx41yAwBQzY6B4YYwCQCAMAkAgDAJAIAwCQCAMAkAAMIkAADCJAAAwiQAAMIkAADCpDAJAIAwCQCAMAkAgDAJAIAwCQAAwiQAAMIkAADCJAAAwiQAAMKkMAkAgDAJAIAwCQCAMAkAgDAJAADCJAAAwiQAAMIkAADCJAAAwiQAAAiTAAAIkwAACJMAAAiTAAAgTAIAIEwCACBMAgAgTAIAIEwCAIAwCQCAMAkAgDAJAIAwCQAAwiQAAMIkAADCJAAAwiQAAMIkAAAIkwAACJMAAAiTAAAIkwAAIEwCACBMAgAgTAIAIEwCACBMAgCAMAkAgDAJAIAwCQCAMAkAAMIkAADCJAAAwiQAAMIkAADCJAAACJMAAAiTAAAIkwAACJMAACBMAgAgTAIAIEwCACBMAgAgTAIAgDAJAIAwCQCAMAkAgDAJAIAwKUwCACBMAgAgTAIAIEwCACBMAgCAMAkAgDAJAIAwCQCAMAkAgDApTAIAIEwCACBMAgAgTAIAIEwCAIAwCQCAMAkAgDAJAIAwCQCAMClMAgAgTAIAIEwCACBMAgAgTAIAgDAJAIAwCQCAMAkAgDAJAIAwKUwCACBMAgAgTAIAIEwCACBMAgCAMAkAgDAJAIAwCQCAMAkAgDAJAADCJAAAwiQAAMIkAADCJAAACJMAAAiTAAAIkwAACJMAAAiTAAAgTAIAIEwCACBMAgAgTAIAgDAJAIAwCQCAMAkAgDAJAIAwCQAAwiQAAMIkAADCJAAAwiQAAAiTAAAIkwAACJMAAAiTAAAIk1DRHXuWG//rH/bVar/wrH0OIAAIkwiTwiQACJMgTAIAwiTCJAAgTCJMAgDCJMKkMAkAwiQIkwCAMIkwCQAIkwiTAIAwiTAJAAiTCJPCJAAIkyBMAgDCJMIkACBMIkwCAMIkwqQwCQDCJBxqeaXRGJ9Zqd1g1b6plcb7rp5vvPSimcbLPjDTuPTL843Z/c6RI9H1P15snHXZbOPU9003Xv/R2caNA0sOCgiTAGu78ob9jQedMHpI7/Wvv2CsGSw4MswVDw8nvGPqkPPgXs/c1zj94pnG0rJjBMIkwD0kLN7n2WtPh3hwETJv36Vn6khwuCB5cDvzIzMOEgiTAHf3tNdNbji/9sQLphyoI+ChYqPz4D7FPOvBvbonQZiksm/dtlh7kcuvPm/skNc75m1TtV/vHZ+Zu9trWYBDKzKsmfNgo3PlISeOOlhbXOZIlrluXPiFeQcLhEmESWGSA4b2lT9/5izG2dKe967pUufBay+fdbBAmESYFCY5YGBv+fNnel6Y3MpO+udy16UzLzVvEoRJhElhEmESYRKESYRJYRJhEmEShElhUpgUJhEmESYBYVKYFCarWimyySXXzTcW1MQWJhEmAWFSmBQmq/rQtfPN9/H7Z4w3vn+HRClMIkwCwqQwKUyWNDK63NxZZfW93O+Yfc29oBEmESYBYVKYFCY3dPwa27alcPKKzCJMIkwCwqQwKUyu5Zs/Wv94vvSiGYFSmESYBIRJYVKYPLyj37zxXtAvuWjaiSdMIkwCwqQwKUze3Y9Hlhr3ema593f+p+ecfMIkwiQgTAqTwuS/yb6+Zd/fvYvQefX3FpyAwiTCJCBMCpPC5AG/9eKxSu/x4aeMNUanhBhhEmESECY3scXlRmN8ZqVWm5w99AY8M79S+/XmF+7+essr9d9bWjfVDb4nXjDlJBQmESYBYZIj3Qe/NF8rTGaO5fcUNRcmESYBYZIjW1Zo1x2S/9s3+50IkwiTgDDJEe1JZ03UDpPpncwwOcIkwiQgTHbF0W+ZbDzkxNFa7V++sf9ur5Uh1rqv9djTxg95bye/a7r267336rlDwkDd13roSaOHvLdXXDJT+/Xe9C+z634njzp1rHaYTHvDx2ad2MIkwiQgTHbHk19bvxfsnntEH0mruf/x/fWHol+zwU0m+2+3Eib/8OXjR+S5PLRvufmA85ZPzDYfRP7yDZONP3vNROPxrzjQnnr2ZOMfzp1qnPHBmca7PzfXuP7Hi4cs1NpMYXJu/0rjK7csNN539Xzj5R+aaTzzrVPNz/yEVx/4vPnf/+6cyea5ekHxe/h8UT5qYmbzBt0sort5cKl53XndR2cbzy1C3d+8abL5va5+3jwcv/C9041zrphtXPHN/Y3h0fb30vdzmMz5fNEX55vnwp+eOdE49vypxpU37O/qTln5rXz86/sbb77rd/j0N0427zP5jvKe8j1lm9hsCXvJdfONmwaWmt9tN+V4XPXt/c1zKCNBuS7kuC3UmHI+VSweve4HC83f2OkXzzT+/tx/+x0+7XWTjWefN9V4wXummx0Qb/3kbPPv5hghTAqTwmTHwuTiUqOlILlad3Izh4YqN4Rv3LrY/C7q9ubetwjuf13c7C78wvy6pZX6JUzuGV9uvPOqueYNsM5DR86NP/yn8cbrizB2266lvv+OE44+UTwg5Ib8K8UIQZ3v+KgXjjW3Hv3yzQttCS39GibzYLFWSbFnFCG77INTnZCfY5sQn2Nd5zv6388dbX7H+a479T5X7S8C47POO/x3+AfFg/iusY2DXu4n51051/jjV040f1N1PvNvFt9VHmx/uHOpgTApTAqTbQ2TCSKthsm0XNy3qtxs0htXtRbnRu0XnzPaDAo/GFzquzB5Q/HbSu9JzsV2fub03H72Owt9t8f7SNGjmN7WB58w2tbPm3PmXZ+da+k76rcwmc+SsLzRjlnt3no1fzfX2d94YXt/h/nO04tXJtTVcer71r92/8mrJhpLa/zpz393ofnwea9ntu/z5rUSbjv1eREmhUk9k7Xbh66dP+RpPMPAmdea9t3ti40bi+GlHcVx2Sxz/BJ4PlCUTXrEKe29eR2u9+64Ynhw8KChqF6FyfRaZMisk593tUemHx5A0qOeYNTqVI8yRf4zrLlY4/7dT2Eyw6uPLtkrn+vY0J2tB5Ycs1xf6/YUV3m4S8/d4WoQ15X7QJmexE9ef/f1APltZNi60+dk7qEIk8KkMNmWOZP3P7b1i3SO3ZkfmWnOJ8ux3ej/PzeGPyqGbPLUnnlMO/f111Pyj4aXGn9+1kTHQ9XB7YHHjTbnQaWXotthMr2vOU/u8+zufd70kCQo7evRTkqZZ/fwDj8o3LPlnL+14jBjP4TJqbmVxosvnK7cQ3bxNfMt/d1v377YfPDo5neUh8dP3GOxZ135/GX+Zq6DcefkSunvux3tYSePdX2TDGESYXKLhsnfPb27F+u1gkUmy2dBy3KPr22Xf3V/M9j16lgkkGexTrfCZHqQO90Lsl575AvGGt/8Ufd6SLKQKAsUevV50wP2/i+UD1m9DpPX3LhQe27i266caymI3feY3l2TTnrndGN2f2u/rXOLhVll/lYWMKXXt8yDeLvbBZ+ZE0yESWFSmGw9TD7n7VM9D5P37L25ebD7k8QTYl/2gZm+OAYPqjB3r5Uwee1NC41fPnG05583PaKZl9ppmSf2hy8f74vv+LTiN71Y4jTvVZjMcO+L3jvd0ny9y75S/TvNFJl+uSblXBlpYYV+Kj2U+TsZqWn3/OSyLSvdESaFSWGy5TCZVYL9FCZXVz2/5/Pde2LO0PIp757uu+PQyTCZkiHpJeunz9LJodr8Jh996lhffd4Tihv5RouRehEmry7KOv36C8ZafkDYPV4tiM0U53IWnPTTd3TUi8YaPx6p93BbNkz2suW+hzApTAqTLYfJ1F3rx4tcN3qqVoPks8+b2pRBsm6YzHSCXvWEbNReeUn7A2V+j484ZawvP+89F1/0MkxmQdLz2/RQtdFmCYcLkpnq0o/fUeYW1impsxnC5Bs/btMJYVKYFCbbECbTM9JqL0S7W97P/i5No0vh380aJOuEyawUvd8x/f2Z3vap9vVK751YbntZp3a2FELvhzD5uaIMza89v/XjlN7ud1Sch5fh/r9982Rfn5M5NlVXp/d7mEzvse1whUlhUphsS5iMPJ0eib2SZSfIl6kneHRxM8yqzH8q6hWmxt7zit04nlgsbHnQCaN9EyZvGVpqPOj41t9Pij7nt5ypASmtk5Iq+ewZomxHHcDM08uOMq3KKvXshNKOaRdZVZwe7HzO/B5TzukpZ0+0HFRzvHoZJtMbuVEtxLItC7lurdGDl7mZ7fodJpRm8UzmP6eXNbsypXB+O3riH1csVqzye+t0mMzCqPzmsqAsc3DzPeZ8SQ9vmbnQ511p8Y0wKUwKk20MkylJ0Y4SQe1ouWAvdmH9zVdvWWzpBpNdYVJfc6N5YamTl9XZCVydqJVX9uaWlamPa2HlfnqLs5PNjSW2o0tpo2wh2UpZl4TwVntNTmvhd/OA4veQUJL5gzMbHON83jwA1bm+ZR5nr8Jktrx85Ava0xuZldtLNb6uy4rqCa387Wwh+OGivNjQBuXFUgLnM8U84cxTbWWVeLZE7GWYTGBPNYCNPm9+o3l4zAPz758xfsjDYOqeIkwKk8JkW8NkZK5aP5QIyjZtnZYbS92b6F8VRb1T/66Ombt28XhIG1dQlw2TdXufEiITmusG/C8WpWXq9g5m+7jFmnkye0TX+Zt5qMo+znnAqvuQUuU6l97ObofJdvZGphes7gKV7buXGr9UowxXrhMJdQlLdeQBMNfFutM9El67HSb/4vUHSobVldq5+U3k+trpLSQRJoXJIzhM5gLzuB7XnHz1R7qzJVyGoau+twTAj329PcWM904ut3S+VQ2TqeNYp8RLhrBTsLpV6bFKT2Wd1eP576rKe67zsJBerh1tmkOWYvxl6pVutBNQu8Nku+ZGJnTX7Y1cVWee5GNOa9/uSQlYT6qxOUFGGEZLFNtvR5hs53UHYXLLyEU+vUJ12sLiocOHdV/rcFtmpdeo7uvd80kvQwx1X+twOxJkiLLua81VKLz79k/1rkxQinV3Y3j7+3dUH97+v8Uw0cDe9k9U/+er5kptt9ZKmMzNvmptxQSFdsxZPNyxr7rYKzfTqr2EeSipehxfe/lsS8HocNJjt96xTw/oRtoVJsfb2BuZPdbr9kau+vS3qvccJ3y2ezvWfOd16suu7lrTyTCZ687gXgtkhEnYJL5x62KzV6ZnxYGLCfITXdrW6xlvqfY5/+RVEx3dcuyjX2utTM9GN9dsG1h1W8cM1XZKbo6/WXHRSpUh3KzertoDWqf3s6w89KZm6upnTg9xCvOX3bKvHWEyDwYPO7n1qRUPuKs3stVdqlJB4vdeVu0BJ4tMFjuYq/JgV2kldPGb3agXu5UwmbmRtjoUJqHv3bhjqfGGj832fDvFpxerEQ/XU9wJqRVXZbj3scWQWjf2js7ijU6FyQT1KjfILMrotNt3LTUeWmEx0oOLxThlz5H09nWyHmIrMkpQNRC1EibbOZ0ie9Xne2uHDLVXLZ+01IUOukwJqvK+Ml2mE2Hyt18yXmoYHWESuibTAzKHMysZs7Iv22c9qg92AklweV2xOnixi6M4VYb5MtRbp1BxXXWLRa8XJr/2w2rzis+5onvBKgtzqgT7d161ce9hpptUWdyUPZFX+vyeXTdMpjfyoSf1T2/kwbKIrezfz8NuO+btlpHP+A/nTlW6Rqz3kFMnTOZ4Zy4nwiRrSCmD3MyP9PaqD880L/ztaJnrs/q6KXmRPW2PLoZxM0SSmmudrnHYyvzIzJ/rdqhOSYyy7/GCz3S3BltC4VE1ajSuFyZffOF0pWG15S4HqyzwqTLdYCOfqrCCO8O+Y9P93/tTNUxmmL9dOzqlhmHVQt0b2VOspC47rSMPGzfc1t3rRHoEq5Tw+siX59saJjs55QJhcku4sU+37dO61xOZnqB2rcSs6rPfKT+09jsv7U6ty3tKb1K7wmTef9mbYm7a39m+2PXPmzlhD63wHjdaBJWHqbLH7QNf2hx19qqEyXb1RuYh9OJr5jvSa5uwVPZ9pCh+L1SZdpJFQe0Kk5lHumi9jTDJ+m4SJo+olt6HXBwzfJs6hb2eA1RlxWYWxfRCbt7/r2JNxrXC5A0VSmdlUVKvVNmFKAFnvWNXtuc5u84sbpKRxLJh8sFtGoVIOBoe7VyiObrkArhcPzr5PtaT+ZllF4llqHthsT1h8uNKAAmTbOzmQWFyK7WExNzcD24Z8slcuBQTbncJj1aVXYjyiFPGeto7kILI7QiT53+6fA/QtTct9OzzZhV/2d2XTlpn95Eq15d27v3dL2Gy1fbgDvZGrlquEPjX6/HrhnMqPOSsVUy8SphM7U+9ksIkJaQkiBC2NVp2rejWCux2SJ3OsvO0srd2L2WxwQMqbG25Vpgsu4o3xb2Xe/xVHnt+ufeaecBrSRAq8xqp6zkyunnu2t0Ik+kt3DXW+WOSfbvLvqc3fny28b1iXnWvWpUV52vNr64SJl9xyYyQIExStgdCENsa7fSLN9eFLz2lm6GXblXKJbUaJu+5H+9a7YXvne75502Pdtmhz7WGFLOwrWxN082kG2HyuPO7s6o9FSW24vUwO5S1Gib74bqDMLkppPej1d0+tN63LIRodfeLbit7E0tYmd3f+x7XKvMI1wqTZfc8Xm81arcMVBi1WOvcK7uCOXNnhcnD7wDUaenB24rXxJQ6aiVM5r44M6+upDBJaVVKs2j92Xo9l6mO93+hXM/Xo08d64v3W6XEzeHCZKYglP3vv337Ys8/bx40y86bXKsaQEoblfnvs1JXmOzNsSnbe7zZ2uNOH28pTD6qT647CJObRtU9grX+a9fcuPmGY8ouRnnK2RN98X6/u32xpTCZ+W9l//vd4/0xf/Axp5W7NmRP58Mpuz1fSkQJk2v3zF/17c6tKM5w8Fa8Jh71orGWwuSTzpoQDoRJqkidQYFs87bUX1zZhKMxmcxfdiFCP8hQbithMtvetWs7xm4pWxLp0jWG5cvu6vSVW4TJdWtMHj/a3Gq1I5/lnVszTKaeayth8ug3yxvCJJWc8cEZoWwTt8u+ujnroGX/5a0aJg9XL3H77vL/fbe2qmvXqMVaYfLRJcNkr4rm9ypMlu3xvWeZmp372t9jffK7tmaYzPFqJUxmC0eESSp412fnhLJN2n77JePNYr6b0TtKTvzvl+GmzGMs837ve8y+w/73Gbou+712oyRMGWWLRH/yesPcZdqvPm+scWUx9zYPG3/x+sla8wBTgaOdTtuiw9zZdlKYRJjsovQKCGabs13+1c27O8NFXyy3ACd7Y/eDT3yj3AKcLGg7nKkKC3DWKrjcTXlISTAu836/uMac3SeWXIDz3qs3197HdcJktpXcd9COUzkfypaKOrg99ezJxv42nh6v/sjWHJlaax6vMClMCpMdklWm91IeaNO1DJVt5t0ZPl+yAHFKdEz1QTH2snM8ExDW8qCS2+v1wx7VVYb1UzP0cMoWaX/pRVu3NNBqb+ThZGvCX3/BWOXf/gnvaF8Nyq04MrXe+SRMCpPCZAf9n3+0onuztV7tVd2LsHL193o/DJpV5WXeaxa0raXsHMQsitgsPcf3Wqce35kle73+7xlbs2h5zpmx6fVT3/eLnV3K1h+952403Xyo2yzTfi65bv0HMWFSmBQmO+i4863o3mw11JY2+Z6xGaq7z7PLfd6XXNTbcDVaDE+WHfLNsGGrv7OHnTx22EU83ZSFT2Xea3rW1vLBL5UPpEP7tt52imdeWq7HNQ9L93lWtWtAjtmHr2u9B7tKlYEE2B17lvuybRTahUmEyS5451UW4Wym9sUbt8Y2X2Xn1KXMx/4eTiPMnL6y382nbli7x7jKkGIvF6XsnVguHW4ylL2WKvs+v/WTs5vmvG13mIwPlAzeB7c8jH2pxS3/Mlyeh5cyfy9F6Dc7YVKYFCY7qMqQo9bb9vdb6CJXZfeNi6/pzTzC9AA/tmQpl/QW7Z1cu4ctQ5plP+/TXte7693Zl5ffOvLdn5vbIKiMlu7hXFjcHOdtJ8JknHXZbOXrQebh3jTQWjf2s84rPzL1g8GlTX3NESaFSWGyw8qWAdF61zLUetuupS1zzlWpJJAdLeZ6sEd35mCVfY+Pf8XEhsH04aeU/531ov5ieiUffEL5OXwb7Qn/3AqLVTbLtoqdCpMJ33WKiLdagzIPamX/1t+8aXPfh4VJYVKY7LCtWm9sK7XXXDqzpc65hKvcCMt+/td/tLtDoeNFTb+sxi37/t7+qY1L3LzsA+V7Y3+3mBvb7d66KkWss6BoI5+rsMAjZZXunOz/7Zw6FSajbg3K1PScrFn1IOd52TnBaZ/59uZd/CdMCpPCZIdljpbA1r8toaYfSuS02ysuKR+uMo+vmzUYn11h+C97KJdZRFK2+Plqy/Hpliu+ub/SeysTnhOOyg51r+541O/bg3YyTEbdGpRPLwp11y0XlukzZf/OI4spCf1SWF+YRJjsMxlC/OUTRwW3Pm1r7TKy2WV4ruyq7tUhvaE7O38jK7vd42o79vzyN58/e81E6dfNPMyPfLnzw783F3PhqgxvP7AoZzM6VS71la3Rudpee3l/L8bpdJiMujUoX/jeepUPsj96lb+Tfdtn92++h1thUpgUJrsgJVgEt/5rJ16wtS9sz624o8jvvHS8MTLauUCZVddVC/lncU1ZV317f+W5smvt6NGuIFllLmfaKyv0mCZ0PrBiLcVOru5O713mCWaRU3r8E9pSCLzs4pJuhMmoW4PynCvqHbsnvHqi0t95RtGL3MlA+Y1bF5vXhkz3+INiSsWp75tu/HBna3PGhUlhUpjsglxMhbf+ahki3AzzyFqxffdS437HVDsujzp1rHHjQHsXIyVkVFlhXqY8zuFkGPdPz6x2484Qfye2HbymKDP1kIojEhnByEKdKt7wseorlfNw2+45o1kw9AdrFI/POXjlDRuH9m6Fyahbg/LSGr3ZdbbW/ZNXTVQ+FzaS7/yfPjRz2Ae6PFhd9pX6PfW9CJP5vWdk6e/OmWw89KQDv7U8JPz5WRPNB9e5/Vv7+i5MHqEyfCHE9U8rc3PbCl730eph4/7HjjYvxu0o4J5V8k86q/q5nx63Oitpb9yx1JxnWfXvZTi9HTfv3MASdu5dYyvV9coBrff38gBQ9W/98Ssnmj2n7ZCAtVFP3wOO3fj77GaYjLo1KK/7QfVqAMfW2MAivdr/8o32XKfyO9zoHpTPVrdEUbfD5J7x5X+9rmQebK5z6RXPfOO/Lua4JjCnUsV3ty82ECa3lAu/MC/E9UnLytojRYbLsh1aneOUVcVZQFZn4UbqQmaRS9We0dX2z1fV7y185SUztf5mehIzDDw9X/0DJ3gnVD361HqlwNITVXeRR3rZ7lUjvCY8ZL/l4ZpTG772w8XGU88uv0J6o6oB3Q6TkUoOdWpQVg3imT7yKyfVmzufBUBfv7VeKMrvMJ+x7HSI59W8NnYzTE4Uq+QzJSfn7/uL++rhrk8Zyk8Yf9Dxo5u+hqcwyd1kn90qqy+1zrTHnFa/1MdmleLLv/ic+udeiotnvljmmi2vc+hSCiU9vtnesJW/94wWVx5nOC89b3X/fsJC5pF94fsLa+6PHQl/WQWfhS11FnUcPLw9sLe1XtG6AXp1iDN7n3+i6AXbt8Hin/RwpQf1ya+tfnw3qqXYizBZtwZlvu+qITwPZnVC/8GLc3LsM79xvd9HwlbmAuccTo9w1etjv4fJfK68VnqWs4NXdppLz+Q/FmX4sjFASizlOrV63cse9Zt9m1xhkrt58ydmBboetgzFtTrRfLOqM6R32KBVPOmniHjmKT3n7VPNlgUX6ZG79zNbf/28TtnVzOte4PbU7wm655zK3GAzdLb6eRN2Mz/w/se2/vo5Zu1YBJRSQVVWs6/3frLRQoLf8cXimee/e7r5ebNF5yNOaW0Dho12H+pFmFx9+KhTgzLhrmovdvaYb1dJs3zfCWdZaZ7z8ilnTzQeVyyqqTPNY7XlO+7nMJme1ny+P3rlxL8+wOZ187kzEvL4u4by3/P5AyMbL//QgeN91bf3CyDC5NaRJ8YUEBbsetPaNf9os6ozf7KbLZPoN9r5pYrUnnzgcf39e3vnVe1b/JMQXndKQzdaeo76MUyuhpIEkjq96FV6vdJjdlyN+ZPdalnA1s9h8rKvHqjYcP6n5+4WJrOoLDKdIP+c1eqr14D884svnBZAhMmtJTcPwa77rZtFqvtVhsZWh4j6rWWotxOT5TO0eN9j+vOczErsdhsshst/44X9t4Vrhnc3KozfyzC5euweXqP39eyK9TszNPuXb5jsy3Pygs/Ue7jpVpg894oDfye/64PDZHplU5Xh6DdPNqcgfOeua0kK1effZ2QBYXJLyZBKhs0EvO61DK8tmoP9r4GyXUNt7Wq5gbe7HNHBUpolw/P9FKzeduVcxz5vis8/ts+uMas9R/0cJuN7NWpQ5mGl6s418wsrzXmq/fQdZW5h3XI63QqTWa2d1/nUXdU4VsNkVm6nJFC+iyxYWp3rPHHXv0/IRJjccnJzu9czhbxutJSNyAWFu3tbcVFuZW5Vu1qGFjO/sdPSK/bwU3rfY5cFAd3YeSdzy5746v4oR3bGB2dKrVTvhzAZn/9u9RqUmZNcVY5Jhl/74TtKEGulNFa3wuRn7tqYYLVXfzVMpo5tfOjaA3PDL/rige8jFQfyz6mviTC5JaUEg7DX2ZaFBKlHxuF99ZbeBqzMa6pThqeVgFVnoUW72lHF8HPmcHVzFORlH+hdL3RWEl9yXfmQdXLJa+JZl3V+W8iEkSqfNduE1vXh4hi1YzFX3V7y097fehH71eHnjdqzzmstTKbHMT3HWaiX0aZ7hslsRJFFZPmdRxaQ5d/nWocwuSWNTa/05dymrdKy2jE7wLC+3UXYPrbLCwLy3Xz0a71ZDJXeoAwxP6CLN+/c3LL4pFclqTK/7KguX2uykOP2XdV+f2eWnH5Rp7h7HVVqUKZgditu3VmvuH8r7ZHF3MKUv2qHstUiNlqEVUaC+2pv4+omAZ//3r99jpwfqWl67U0LzdGXjaoIIExueilE2w9DjVutpfh0lT2dOVD4OlMCOvm9pIB5esrG+2DaQeo6ZrvGez+z86HqW7f1/lxMD3DCWqdXt2fxQ4bxl2t8xV+5ZaFUML9tV3ceEjO/OHuLlyn+PtyGPe3z9zJM2+lOhjxIJWxNza209fdU5l7WrjJYqyMM6Xm8ZymxnHsJt/mcKXXUju8GYbLvnXOF2pPtXsxhx4P6N7Nc7FO/rp1zehPuU+9tpA8v6rcMLTWH21spsn64wJPVunW23eu0DANmmPihJ7U3VGZHkgwNt7ofckrtdLpnq4qsvM5K4fXe0+oQa7tkyDk9nTmm7fyOHnbyWDNEdmrqz+kXz2w4L3O5Tfk1C5he8J7p5nUqv92s1n5RUW8zZZd+7fkHwnjmDGcxGsLkEXMDP/GCKUGwTXPSutVrsdXdUSyKyXBSetbS81Kn+HF6dbIjzv5N0EmcRVrpzTi6CDPZAadOr2uGKTOEXmdP8W5L706GvxOkV2++dXaTSsmtLG5aaVNIyFSAtcrmpDB3L86l9KSvVRA+8zw7WSkiq8tzjDNqUOcBL7/DU4reu88Vi4o6fewSgtfqyc12oZmz3G6pApHh7icUwTHzKHOcsqNRipSvWHcpTB5p8jSfm7ZAWL+lWPNmuIlvRpn0ngns6S3JUGku1hkizk0/4Ss3+UziP68IUp+8fn9bC4/3QopQZ5rEZV+Zb/bkZJXx6udNy4rU3DRTYinHJCtGW+2R67XMb7zim/ubCykSPlY/b+ab5X/mn1PeJ8Wic6PuRDA4+AE7DyF5H9mJJzu8XP29hZ6fEx//+v7mwsm/L77/7Gme772bstVl5jhmTmCmi6zuxpTv56/ecOB3mDqy2V8+W2O2ukVnXdfcuNB8H3lP2UUp0x4WXZqFSbr39Jst2gTD6i3DUBm+AwCEySNa6nz93ssEyiotT+gKkgOAMMldMnfrya815F1mjlpWPgIAwiT30I9bbfXb/MhO7OMMAAiTW0YmfGexg20X715yJSsbN/tiBwAQJuma1Kp7xCl2ysnWiLbEAgBhkhpSZPav3jB5RIbI7NiReoezeiMBQJikNc09dl80dsQMaaee4e5xBcoAQJikbVJA+rWXz7Z1+7d+C5EpCnyzLREBQJikcwaL3Q1SY/GXjtsaofL+x442Xnzh9KbfPQUAhEk2lbHpleb2WZt1kU4W1mROpB1sAECYpIf2Lx7YzzZ7ofZ7b+XDTh5tnH7xTOP6Hy829+EFAIRJ+kjqMCZYnlAEy4ed3Psey1941r7GH79yovGaS2eapY4WrakBAGGSzeP2XUuNS78835yT+PtnjDcXuXQyPGbI/elvnGwWXU+oHZ/R/QgAwiRbxsLigYB5zY0LjYu+ON84s+gxPPb8qcZfvH6y8fhXTDQed/p4cy7jQ04cbTzg2AND5hk6zz+nNFH+Xf7/nvGWycap75tuvPHjs819sq+9acHcRwAQJgEAQJgEAECYBABAmAQAQJgEAABhEgAAYRIAAGESAABhEgAAYRIAAIRJAACESQAAhEkAAIRJAACESWESAABhEgAAYRIAAGESAABhEgAAhEkAAIRJAACESQAAhEkAAIRJYRIAAGESAABhEgAAYRIAAGESAACESQAAhEkAAIRJAACESQAAhElhEgAAYRIAAGESAABhEgAAYRIAAIRJAACESQAAhEkAAIRJAACESUcDAABhEgAAYRIAAGESAABhEgAAhEkAAIRJAACESQAAhEkAAIRJAAAQJgEAECYBABAmAQAQJgEAQJgEAECYBABAmAQAQJgEAECYBAAAYRIAAGESAABhEgAAYRIAAIRJAACESQAAhEkAAIRJAACESQAAECYBABAmAQAQJgEAECYBAECYBABAmAQAQJgEAECYBABAmAQAAGESAABhEgAAYRIAAGESAACESQAAhEkAAIRJAACESQAAhEkAABAmAQAQJgEAECYBABAmAQBAmAQAQJgEAECYBABAmAQAQJgEAABhEgAAYRIAAGESAABhEgAAYVKYBABAmAQAQJgEAECYBABAmAQAAGESAABhEgAAYRIAAGESAABhUpgEAECYBABAmAQAQJgEAECYBAAAYRIAAGESAABhEgAAYRIAAGFSmAQAQJgEAECYBABAmAQAQJgEAABhEgAAYRIAAGESAABhEgAAYdLRAABAmAQAQJgEAECYBABAmAQAAGESAABhEgAAYRIAAGESAABhEgAAhEkAAIRJAACESQAAhEkAADgkTA4MDJ82Nj655HAAAFDWyspKY2BwZHHbjsGdJ+4bnZhzSAAAKGt5eTlhcqoIk8NP37t31Dg3AAClLS4uFmFy18i27UO7jhoe2TPukAAAUNbs7FxjaOfItdu2b9/+0wODw/sdEgAAypqYnF4phrnP3RaDQ7uG9i8sOCoAAJSye8++iR07Rp7cDJNFqnzXZJEuHRYAAMoo8uP88PDwzzbD5B2DI48f2bV3wmEBAGAjs3PzjcHBXTduW1X8336ySJcTWZUDAADr2bN3dHpgYOT4bQcbGNr1xtGxiXmHBwCAtSwtLWWIe2ZwcPBn7hYmt2/f8/PFv5hdWlp2lAAAOKx0Pg4Ojpyz7XAGhkbedue+cbvhAABwiAOFykem0wl52DB5222j/6WoZD62f78yQQAA3N2u3XfO7BgcOXXbeop6QU8d2rl7enlFpSAAAA6YmppZGhwaueX66xs/tW0jxXD3e4tVOjMOGwAAGbUu5klODQzsvt+2MootFv9DkTy/NWZ1NwDAES3zJIvdEmcHBnY+YVsVWe5d9FBuHx+fNIESAOAIDZJDO3fN7Bgafva2Om6/fffPFT2UN9+5b2zW4QQAOHI0h7aHmkHymG2tuGXv3v9UBMovFNstTqdIJQAAW1tzsU1zjmTFoe21FK/5EwMDwy8pXnSmeHFVzQEAtqAMaxflf6azarv0YpsqBgZ2PaSYR3nD8MieqdlZtc0BALaCjD5nZ5sUJC/qSL6oVPmf1nopdz4xcyl3Du+empicWjb8DQCw+czOzTf27h2dzpba2SJxzZ1tOmXHjuHfKkLlhUmxRbCcSKKdnp5tTthMwFxeVvgcAKCXVoqNaJaXlxsLC4uN2dn5xsTk9MruPfsmivxW7LG968aBgZHjU8VnWy8V7/PfF3Mqf+2OwZEXDu7cdXlznL3YlnFgcHhux8BwQ9M0TdM0TetNK0LjUjr+iuA4PDS067rifz+32PHwycPDwz/bjhz4/wGY5EZoIbyIKwAAAABJRU5ErkJggg==;clipPath=inset(25% 11% 25.5% 8.33%);" vertex="1" parent="1">
          <mxGeometry x="240" y="531.59" width="93.9" height="38.41" as="geometry" />
        </mxCell>
        <mxCell id="oM49j2kRH9s5FRGwLrnU-62" value="" style="rounded=0;whiteSpace=wrap;html=1;movable=0;resizable=0;rotatable=0;deletable=0;editable=0;locked=1;connectable=0;" vertex="1" parent="1">
          <mxGeometry x="590" y="20" width="560" height="470" as="geometry" />
        </mxCell>
        <mxCell id="oM49j2kRH9s5FRGwLrnU-63" value="Public Server" style="text;html=1;align=center;verticalAlign=middle;whiteSpace=wrap;rounded=0;fontSize=18;" vertex="1" parent="1">
          <mxGeometry x="815" y="20" width="120" height="30" as="geometry" />
        </mxCell>
        <mxCell id="oM49j2kRH9s5FRGwLrnU-71" style="edgeStyle=orthogonalEdgeStyle;rounded=0;orthogonalLoop=1;jettySize=auto;html=1;startArrow=blockThin;startFill=1;strokeWidth=2;" edge="1" parent="1" source="oM49j2kRH9s5FRGwLrnU-65" target="oM49j2kRH9s5FRGwLrnU-69">
          <mxGeometry relative="1" as="geometry" />
        </mxCell>
        <mxCell id="oM49j2kRH9s5FRGwLrnU-72" style="edgeStyle=orthogonalEdgeStyle;rounded=0;orthogonalLoop=1;jettySize=auto;html=1;entryX=0.5;entryY=0;entryDx=0;entryDy=0;" edge="1" parent="1" source="oM49j2kRH9s5FRGwLrnU-65" target="oM49j2kRH9s5FRGwLrnU-67">
          <mxGeometry relative="1" as="geometry" />
        </mxCell>
        <mxCell id="oM49j2kRH9s5FRGwLrnU-65" value="" style="whiteSpace=wrap;html=1;aspect=fixed;dashed=1;" vertex="1" parent="1">
          <mxGeometry x="650" y="80" width="150" height="150" as="geometry" />
        </mxCell>
        <mxCell id="oM49j2kRH9s5FRGwLrnU-66" value="" style="shape=image;verticalLabelPosition=bottom;labelBackgroundColor=default;verticalAlign=top;aspect=fixed;imageAspect=0;image=data:image/png,iVBORw0KGgoAAAANSUhEUgAAApMAAAG4CAYAAAAZlWyVAAAABmJLR0QA/wD/AP+gvaeTAAAtAUlEQVR42u3deZhlZX0n8M5M8jwzf8xMJpN5kpnnGY0aNRonGo0JmowmJplkTKJJ3LKYYBIV2QRxwaCIcUHEHUSRuCKoKKBGREVFEdzBFQRRaLqquqoXuvata7tzvreppKG7qs45d63qz+d53ichhFv3nnvuOd/zLr9327Y2aDQaP7l9aNdROwaHXzw4uOtjg0O7bh0YHBkfGBye2zEw3NA0TdM0TdN604pMtlS0mYHBXSNFRvvKwNDI2wYGdj7t9tt3/9y2XhsYGH5MER4vzhscHt4zMTo2sX96eraxf/9CY2lpubG8vNIAAKB3Voo4try83FhcXGzMzs03JianV3bv2TdR5Lf5waGRm3cM7jxxaGjov3UtQBbv6SfuGBx+Unofdw7vnire0HKCIwAAm8tcES737h0tei1HZg/0WA78z44GycHBwV8pQuR3h0f2TM3OzvkGAAC2gHQMjhUjzM3h8KHh066/vvFT7e6N/HeDgyNnFG12anpGNyQAwBa0uLjU2L3nzuliGuOtxdD3A9oSJH/0o33/uej2vHZk197ppaUlRxkAYIubmppZLjoRpwYHh/+spSC5ffueny8mZt6yb9+EMW0AgCNIFlQX0xtnBgZGjqsVJLOqpwiSd4xPTC04nAAAR54Mew/tbAbKY6sutPmPRdfmd8fGJ+cdRgCAIztQFj2Us5WGvIsgeWGxTHzW4QMAoDnk3ZxDOXj/EoXIdz1t587d0ysrCo4DAHBAc1HO0MgP1y0btH379p8uttoZS/oEAICD7d595/SOwV0vXrtXcmjX+XfuG7dyGwCAQ2T+ZFHYfPqOO/b+j0OCZDb7zlY62bsRAAAOZ7TYKaeYP3nu4eZKvqn4l1ZvAwCwpmxik20Xi8U4P3Pwdok/WfwfJxYXFx0hAADWVVT9mS5qTx7/r2HyjjtG/qjYLnHCoQEAYCNzc/MpFXTTQQtvRt49OTmtFhAAAKUUo9pzIyMj//2uIuW7di4sKAcEAEA5u/fsm9ixY+Qp23bs2PFfBwaHLbwBAKC0iWJUu+idfOu27UO7jhoe2TPukAAAUNbs7HxjaGjXddt2DA4/vViRM+mQAABQVqoAFTsnjhRhcueJ+0Yn7HoDAEBp2eimGOaeKoqVD582Nj655JAAAFDWyspKwuRisQBn58vHx41yAwBQzY6B4YYwCQCAMAkAgDAJAIAwCQCAMAkAAMIkAADCJAAAwiQAAMIkAADCpDAJAIAwCQCAMAkAgDAJAIAwCQAAwiQAAMIkAADCJAAAwiQAAMKkMAkAgDAJAIAwCQCAMAkAgDAJAADCJAAAwiQAAMIkAADCJAAAwiQAAAiTAAAIkwAACJMAAAiTAAAgTAIAIEwCACBMAgAgTAIAIEwCAIAwCQCAMAkAgDAJAIAwCQAAwiQAAMIkAADCJAAAwiQAAMIkAAAIkwAACJMAAAiTAAAIkwAAIEwCACBMAgAgTAIAIEwCACBMAgCAMAkAgDAJAIAwCQCAMAkAAMIkAADCJAAAwiQAAMIkAADCJAAACJMAAAiTAAAIkwAACJMAACBMAgAgTAIAIEwCACBMAgAgTAIAgDAJAIAwCQCAMAkAgDAJAIAwKUwCACBMAgAgTAIAIEwCACBMAgCAMAkAgDAJAIAwCQCAMAkAgDApTAIAIEwCACBMAgAgTAIAIEwCAIAwCQCAMAkAgDAJAIAwCQCAMClMAgAgTAIAIEwCACBMAgAgTAIAgDAJAIAwCQCAMAkAgDAJAIAwKUwCACBMAgAgTAIAIEwCACBMAgCAMAkAgDAJAIAwCQCAMAkAgDAJAADCJAAAwiQAAMIkAADCJAAACJMAAAiTAAAIkwAACJMAAAiTAAAgTAIAIEwCACBMAgAgTAIAgDAJAIAwCQCAMAkAgDAJAIAwCQAAwiQAAMIkAADCJAAAwiQAAAiTAAAIkwAACJMAAAiTAAAIk1DRHXuWG//rH/bVar/wrH0OIAAIkwiTwiQACJMgTAIAwiTCJAAgTCJMAgDCJMKkMAkAwiQIkwCAMIkwCQAIkwiTAIAwiTAJAAiTCJPCJAAIkyBMAgDCJMIkACBMIkwCAMIkwqQwCQDCJBxqeaXRGJ9Zqd1g1b6plcb7rp5vvPSimcbLPjDTuPTL843Z/c6RI9H1P15snHXZbOPU9003Xv/R2caNA0sOCgiTAGu78ob9jQedMHpI7/Wvv2CsGSw4MswVDw8nvGPqkPPgXs/c1zj94pnG0rJjBMIkwD0kLN7n2WtPh3hwETJv36Vn6khwuCB5cDvzIzMOEgiTAHf3tNdNbji/9sQLphyoI+ChYqPz4D7FPOvBvbonQZiksm/dtlh7kcuvPm/skNc75m1TtV/vHZ+Zu9trWYBDKzKsmfNgo3PlISeOOlhbXOZIlrluXPiFeQcLhEmESWGSA4b2lT9/5izG2dKe967pUufBay+fdbBAmESYFCY5YGBv+fNnel6Y3MpO+udy16UzLzVvEoRJhElhEmESYRKESYRJYRJhEmEShElhUpgUJhEmESYBYVKYFCarWimyySXXzTcW1MQWJhEmAWFSmBQmq/rQtfPN9/H7Z4w3vn+HRClMIkwCwqQwKUyWNDK63NxZZfW93O+Yfc29oBEmESYBYVKYFCY3dPwa27alcPKKzCJMIkwCwqQwKUyu5Zs/Wv94vvSiGYFSmESYBIRJYVKYPLyj37zxXtAvuWjaiSdMIkwCwqQwKUze3Y9Hlhr3ema593f+p+ecfMIkwiQgTAqTwuS/yb6+Zd/fvYvQefX3FpyAwiTCJCBMCpPC5AG/9eKxSu/x4aeMNUanhBhhEmESECY3scXlRmN8ZqVWm5w99AY8M79S+/XmF+7+essr9d9bWjfVDb4nXjDlJBQmESYBYZIj3Qe/NF8rTGaO5fcUNRcmESYBYZIjW1Zo1x2S/9s3+50IkwiTgDDJEe1JZ03UDpPpncwwOcIkwiQgTHbF0W+ZbDzkxNFa7V++sf9ur5Uh1rqv9djTxg95bye/a7r267336rlDwkDd13roSaOHvLdXXDJT+/Xe9C+z634njzp1rHaYTHvDx2ad2MIkwiQgTHbHk19bvxfsnntEH0mruf/x/fWHol+zwU0m+2+3Eib/8OXjR+S5PLRvufmA85ZPzDYfRP7yDZONP3vNROPxrzjQnnr2ZOMfzp1qnPHBmca7PzfXuP7Hi4cs1NpMYXJu/0rjK7csNN539Xzj5R+aaTzzrVPNz/yEVx/4vPnf/+6cyea5ekHxe/h8UT5qYmbzBt0sort5cKl53XndR2cbzy1C3d+8abL5va5+3jwcv/C9041zrphtXPHN/Y3h0fb30vdzmMz5fNEX55vnwp+eOdE49vypxpU37O/qTln5rXz86/sbb77rd/j0N0427zP5jvKe8j1lm9hsCXvJdfONmwaWmt9tN+V4XPXt/c1zKCNBuS7kuC3UmHI+VSweve4HC83f2OkXzzT+/tx/+x0+7XWTjWefN9V4wXummx0Qb/3kbPPv5hghTAqTwmTHwuTiUqOlILlad3Izh4YqN4Rv3LrY/C7q9ubetwjuf13c7C78wvy6pZX6JUzuGV9uvPOqueYNsM5DR86NP/yn8cbrizB2266lvv+OE44+UTwg5Ib8K8UIQZ3v+KgXjjW3Hv3yzQttCS39GibzYLFWSbFnFCG77INTnZCfY5sQn2Nd5zv6388dbX7H+a479T5X7S8C47POO/x3+AfFg/iusY2DXu4n51051/jjV040f1N1PvNvFt9VHmx/uHOpgTApTAqTbQ2TCSKthsm0XNy3qtxs0htXtRbnRu0XnzPaDAo/GFzquzB5Q/HbSu9JzsV2fub03H72Owt9t8f7SNGjmN7WB58w2tbPm3PmXZ+da+k76rcwmc+SsLzRjlnt3no1fzfX2d94YXt/h/nO04tXJtTVcer71r92/8mrJhpLa/zpz393ofnwea9ntu/z5rUSbjv1eREmhUk9k7Xbh66dP+RpPMPAmdea9t3ti40bi+GlHcVx2Sxz/BJ4PlCUTXrEKe29eR2u9+64Ynhw8KChqF6FyfRaZMisk593tUemHx5A0qOeYNTqVI8yRf4zrLlY4/7dT2Eyw6uPLtkrn+vY0J2tB5Ycs1xf6/YUV3m4S8/d4WoQ15X7QJmexE9ef/f1APltZNi60+dk7qEIk8KkMNmWOZP3P7b1i3SO3ZkfmWnOJ8ux3ej/PzeGPyqGbPLUnnlMO/f111Pyj4aXGn9+1kTHQ9XB7YHHjTbnQaWXotthMr2vOU/u8+zufd70kCQo7evRTkqZZ/fwDj8o3LPlnL+14jBjP4TJqbmVxosvnK7cQ3bxNfMt/d1v377YfPDo5neUh8dP3GOxZ135/GX+Zq6DcefkSunvux3tYSePdX2TDGESYXKLhsnfPb27F+u1gkUmy2dBy3KPr22Xf3V/M9j16lgkkGexTrfCZHqQO90Lsl575AvGGt/8Ufd6SLKQKAsUevV50wP2/i+UD1m9DpPX3LhQe27i266caymI3feY3l2TTnrndGN2f2u/rXOLhVll/lYWMKXXt8yDeLvbBZ+ZE0yESWFSmGw9TD7n7VM9D5P37L25ebD7k8QTYl/2gZm+OAYPqjB3r5Uwee1NC41fPnG05583PaKZl9ppmSf2hy8f74vv+LTiN71Y4jTvVZjMcO+L3jvd0ny9y75S/TvNFJl+uSblXBlpYYV+Kj2U+TsZqWn3/OSyLSvdESaFSWGy5TCZVYL9FCZXVz2/5/Pde2LO0PIp757uu+PQyTCZkiHpJeunz9LJodr8Jh996lhffd4Tihv5RouRehEmry7KOv36C8ZafkDYPV4tiM0U53IWnPTTd3TUi8YaPx6p93BbNkz2suW+hzApTAqTLYfJ1F3rx4tcN3qqVoPks8+b2pRBsm6YzHSCXvWEbNReeUn7A2V+j484ZawvP+89F1/0MkxmQdLz2/RQtdFmCYcLkpnq0o/fUeYW1impsxnC5Bs/btMJYVKYFCbbECbTM9JqL0S7W97P/i5No0vh380aJOuEyawUvd8x/f2Z3vap9vVK751YbntZp3a2FELvhzD5uaIMza89v/XjlN7ud1Sch5fh/r9982Rfn5M5NlVXp/d7mEzvse1whUlhUphsS5iMPJ0eib2SZSfIl6kneHRxM8yqzH8q6hWmxt7zit04nlgsbHnQCaN9EyZvGVpqPOj41t9Pij7nt5ypASmtk5Iq+ewZomxHHcDM08uOMq3KKvXshNKOaRdZVZwe7HzO/B5TzukpZ0+0HFRzvHoZJtMbuVEtxLItC7lurdGDl7mZ7fodJpRm8UzmP6eXNbsypXB+O3riH1csVqzye+t0mMzCqPzmsqAsc3DzPeZ8SQ9vmbnQ511p8Y0wKUwKk20MkylJ0Y4SQe1ouWAvdmH9zVdvWWzpBpNdYVJfc6N5YamTl9XZCVydqJVX9uaWlamPa2HlfnqLs5PNjSW2o0tpo2wh2UpZl4TwVntNTmvhd/OA4veQUJL5gzMbHON83jwA1bm+ZR5nr8Jktrx85Ava0xuZldtLNb6uy4rqCa387Wwh+OGivNjQBuXFUgLnM8U84cxTbWWVeLZE7GWYTGBPNYCNPm9+o3l4zAPz758xfsjDYOqeIkwKk8JkW8NkZK5aP5QIyjZtnZYbS92b6F8VRb1T/66Ombt28XhIG1dQlw2TdXufEiITmusG/C8WpWXq9g5m+7jFmnkye0TX+Zt5qMo+znnAqvuQUuU6l97ObofJdvZGphes7gKV7buXGr9UowxXrhMJdQlLdeQBMNfFutM9El67HSb/4vUHSobVldq5+U3k+trpLSQRJoXJIzhM5gLzuB7XnHz1R7qzJVyGoau+twTAj329PcWM904ut3S+VQ2TqeNYp8RLhrBTsLpV6bFKT2Wd1eP576rKe67zsJBerh1tmkOWYvxl6pVutBNQu8Nku+ZGJnTX7Y1cVWee5GNOa9/uSQlYT6qxOUFGGEZLFNtvR5hs53UHYXLLyEU+vUJ12sLiocOHdV/rcFtmpdeo7uvd80kvQwx1X+twOxJkiLLua81VKLz79k/1rkxQinV3Y3j7+3dUH97+v8Uw0cDe9k9U/+er5kptt9ZKmMzNvmptxQSFdsxZPNyxr7rYKzfTqr2EeSipehxfe/lsS8HocNJjt96xTw/oRtoVJsfb2BuZPdbr9kau+vS3qvccJ3y2ezvWfOd16suu7lrTyTCZ687gXgtkhEnYJL5x62KzV6ZnxYGLCfITXdrW6xlvqfY5/+RVEx3dcuyjX2utTM9GN9dsG1h1W8cM1XZKbo6/WXHRSpUh3KzertoDWqf3s6w89KZm6upnTg9xCvOX3bKvHWEyDwYPO7n1qRUPuKs3stVdqlJB4vdeVu0BJ4tMFjuYq/JgV2kldPGb3agXu5UwmbmRtjoUJqHv3bhjqfGGj832fDvFpxerEQ/XU9wJqRVXZbj3scWQWjf2js7ijU6FyQT1KjfILMrotNt3LTUeWmEx0oOLxThlz5H09nWyHmIrMkpQNRC1EibbOZ0ie9Xne2uHDLVXLZ+01IUOukwJqvK+Ml2mE2Hyt18yXmoYHWESuibTAzKHMysZs7Iv22c9qg92AklweV2xOnixi6M4VYb5MtRbp1BxXXWLRa8XJr/2w2rzis+5onvBKgtzqgT7d161ce9hpptUWdyUPZFX+vyeXTdMpjfyoSf1T2/kwbKIrezfz8NuO+btlpHP+A/nTlW6Rqz3kFMnTOZ4Zy4nwiRrSCmD3MyP9PaqD880L/ztaJnrs/q6KXmRPW2PLoZxM0SSmmudrnHYyvzIzJ/rdqhOSYyy7/GCz3S3BltC4VE1ajSuFyZffOF0pWG15S4HqyzwqTLdYCOfqrCCO8O+Y9P93/tTNUxmmL9dOzqlhmHVQt0b2VOspC47rSMPGzfc1t3rRHoEq5Tw+siX59saJjs55QJhcku4sU+37dO61xOZnqB2rcSs6rPfKT+09jsv7U6ty3tKb1K7wmTef9mbYm7a39m+2PXPmzlhD63wHjdaBJWHqbLH7QNf2hx19qqEyXb1RuYh9OJr5jvSa5uwVPZ9pCh+L1SZdpJFQe0Kk5lHumi9jTDJ+m4SJo+olt6HXBwzfJs6hb2eA1RlxWYWxfRCbt7/r2JNxrXC5A0VSmdlUVKvVNmFKAFnvWNXtuc5u84sbpKRxLJh8sFtGoVIOBoe7VyiObrkArhcPzr5PtaT+ZllF4llqHthsT1h8uNKAAmTbOzmQWFyK7WExNzcD24Z8slcuBQTbncJj1aVXYjyiFPGeto7kILI7QiT53+6fA/QtTct9OzzZhV/2d2XTlpn95Eq15d27v3dL2Gy1fbgDvZGrlquEPjX6/HrhnMqPOSsVUy8SphM7U+9ksIkJaQkiBC2NVp2rejWCux2SJ3OsvO0srd2L2WxwQMqbG25Vpgsu4o3xb2Xe/xVHnt+ufeaecBrSRAq8xqp6zkyunnu2t0Ik+kt3DXW+WOSfbvLvqc3fny28b1iXnWvWpUV52vNr64SJl9xyYyQIExStgdCENsa7fSLN9eFLz2lm6GXblXKJbUaJu+5H+9a7YXvne75502Pdtmhz7WGFLOwrWxN082kG2HyuPO7s6o9FSW24vUwO5S1Gib74bqDMLkppPej1d0+tN63LIRodfeLbit7E0tYmd3f+x7XKvMI1wqTZfc8Xm81arcMVBi1WOvcK7uCOXNnhcnD7wDUaenB24rXxJQ6aiVM5r44M6+upDBJaVVKs2j92Xo9l6mO93+hXM/Xo08d64v3W6XEzeHCZKYglP3vv337Ys8/bx40y86bXKsaQEoblfnvs1JXmOzNsSnbe7zZ2uNOH28pTD6qT647CJObRtU9grX+a9fcuPmGY8ouRnnK2RN98X6/u32xpTCZ+W9l//vd4/0xf/Axp5W7NmRP58Mpuz1fSkQJk2v3zF/17c6tKM5w8Fa8Jh71orGWwuSTzpoQDoRJqkidQYFs87bUX1zZhKMxmcxfdiFCP8hQbithMtvetWs7xm4pWxLp0jWG5cvu6vSVW4TJdWtMHj/a3Gq1I5/lnVszTKaeayth8ug3yxvCJJWc8cEZoWwTt8u+ujnroGX/5a0aJg9XL3H77vL/fbe2qmvXqMVaYfLRJcNkr4rm9ypMlu3xvWeZmp372t9jffK7tmaYzPFqJUxmC0eESSp412fnhLJN2n77JePNYr6b0TtKTvzvl+GmzGMs837ve8y+w/73Gbou+712oyRMGWWLRH/yesPcZdqvPm+scWUx9zYPG3/x+sla8wBTgaOdTtuiw9zZdlKYRJjsovQKCGabs13+1c27O8NFXyy3ACd7Y/eDT3yj3AKcLGg7nKkKC3DWKrjcTXlISTAu836/uMac3SeWXIDz3qs3197HdcJktpXcd9COUzkfypaKOrg99ezJxv42nh6v/sjWHJlaax6vMClMCpMdklWm91IeaNO1DJVt5t0ZPl+yAHFKdEz1QTH2snM8ExDW8qCS2+v1wx7VVYb1UzP0cMoWaX/pRVu3NNBqb+ThZGvCX3/BWOXf/gnvaF8Nyq04MrXe+SRMCpPCZAf9n3+0onuztV7tVd2LsHL193o/DJpV5WXeaxa0raXsHMQsitgsPcf3Wqce35kle73+7xlbs2h5zpmx6fVT3/eLnV3K1h+952403Xyo2yzTfi65bv0HMWFSmBQmO+i4863o3mw11JY2+Z6xGaq7z7PLfd6XXNTbcDVaDE+WHfLNsGGrv7OHnTx22EU83ZSFT2Xea3rW1vLBL5UPpEP7tt52imdeWq7HNQ9L93lWtWtAjtmHr2u9B7tKlYEE2B17lvuybRTahUmEyS5451UW4Wym9sUbt8Y2X2Xn1KXMx/4eTiPMnL6y382nbli7x7jKkGIvF6XsnVguHW4ylL2WKvs+v/WTs5vmvG13mIwPlAzeB7c8jH2pxS3/Mlyeh5cyfy9F6Dc7YVKYFCY7qMqQo9bb9vdb6CJXZfeNi6/pzTzC9AA/tmQpl/QW7Z1cu4ctQ5plP+/TXte7693Zl5ffOvLdn5vbIKiMlu7hXFjcHOdtJ8JknHXZbOXrQebh3jTQWjf2s84rPzL1g8GlTX3NESaFSWGyw8qWAdF61zLUetuupS1zzlWpJJAdLeZ6sEd35mCVfY+Pf8XEhsH04aeU/531ov5ieiUffEL5OXwb7Qn/3AqLVTbLtoqdCpMJ33WKiLdagzIPamX/1t+8aXPfh4VJYVKY7LCtWm9sK7XXXDqzpc65hKvcCMt+/td/tLtDoeNFTb+sxi37/t7+qY1L3LzsA+V7Y3+3mBvb7d66KkWss6BoI5+rsMAjZZXunOz/7Zw6FSajbg3K1PScrFn1IOd52TnBaZ/59uZd/CdMCpPCZIdljpbA1r8toaYfSuS02ysuKR+uMo+vmzUYn11h+C97KJdZRFK2+Plqy/Hpliu+ub/SeysTnhOOyg51r+541O/bg3YyTEbdGpRPLwp11y0XlukzZf/OI4spCf1SWF+YRJjsMxlC/OUTRwW3Pm1r7TKy2WV4ruyq7tUhvaE7O38jK7vd42o79vzyN58/e81E6dfNPMyPfLnzw783F3PhqgxvP7AoZzM6VS71la3Rudpee3l/L8bpdJiMujUoX/jeepUPsj96lb+Tfdtn92++h1thUpgUJrsgJVgEt/5rJ16wtS9sz624o8jvvHS8MTLauUCZVddVC/lncU1ZV317f+W5smvt6NGuIFllLmfaKyv0mCZ0PrBiLcVOru5O713mCWaRU3r8E9pSCLzs4pJuhMmoW4PynCvqHbsnvHqi0t95RtGL3MlA+Y1bF5vXhkz3+INiSsWp75tu/HBna3PGhUlhUpjsglxMhbf+ahki3AzzyFqxffdS437HVDsujzp1rHHjQHsXIyVkVFlhXqY8zuFkGPdPz6x2484Qfye2HbymKDP1kIojEhnByEKdKt7wseorlfNw2+45o1kw9AdrFI/POXjlDRuH9m6Fyahbg/LSGr3ZdbbW/ZNXTVQ+FzaS7/yfPjRz2Ae6PFhd9pX6PfW9CJP5vWdk6e/OmWw89KQDv7U8JPz5WRPNB9e5/Vv7+i5MHqEyfCHE9U8rc3PbCl730eph4/7HjjYvxu0o4J5V8k86q/q5nx63Oitpb9yx1JxnWfXvZTi9HTfv3MASdu5dYyvV9coBrff38gBQ9W/98Ssnmj2n7ZCAtVFP3wOO3fj77GaYjLo1KK/7QfVqAMfW2MAivdr/8o32XKfyO9zoHpTPVrdEUbfD5J7x5X+9rmQebK5z6RXPfOO/Lua4JjCnUsV3ty82ECa3lAu/MC/E9UnLytojRYbLsh1aneOUVcVZQFZn4UbqQmaRS9We0dX2z1fV7y185SUztf5mehIzDDw9X/0DJ3gnVD361HqlwNITVXeRR3rZ7lUjvCY8ZL/l4ZpTG772w8XGU88uv0J6o6oB3Q6TkUoOdWpQVg3imT7yKyfVmzufBUBfv7VeKMrvMJ+x7HSI59W8NnYzTE4Uq+QzJSfn7/uL++rhrk8Zyk8Yf9Dxo5u+hqcwyd1kn90qqy+1zrTHnFa/1MdmleLLv/ic+udeiotnvljmmi2vc+hSCiU9vtnesJW/94wWVx5nOC89b3X/fsJC5pF94fsLa+6PHQl/WQWfhS11FnUcPLw9sLe1XtG6AXp1iDN7n3+i6AXbt8Hin/RwpQf1ya+tfnw3qqXYizBZtwZlvu+qITwPZnVC/8GLc3LsM79xvd9HwlbmAuccTo9w1etjv4fJfK68VnqWs4NXdppLz+Q/FmX4sjFASizlOrV63cse9Zt9m1xhkrt58ydmBboetgzFtTrRfLOqM6R32KBVPOmniHjmKT3n7VPNlgUX6ZG79zNbf/28TtnVzOte4PbU7wm655zK3GAzdLb6eRN2Mz/w/se2/vo5Zu1YBJRSQVVWs6/3frLRQoLf8cXimee/e7r5ebNF5yNOaW0Dho12H+pFmFx9+KhTgzLhrmovdvaYb1dJs3zfCWdZaZ7z8ilnTzQeVyyqqTPNY7XlO+7nMJme1ny+P3rlxL8+wOZ187kzEvL4u4by3/P5AyMbL//QgeN91bf3CyDC5NaRJ8YUEBbsetPaNf9os6ozf7KbLZPoN9r5pYrUnnzgcf39e3vnVe1b/JMQXndKQzdaeo76MUyuhpIEkjq96FV6vdJjdlyN+ZPdalnA1s9h8rKvHqjYcP6n5+4WJrOoLDKdIP+c1eqr14D884svnBZAhMmtJTcPwa77rZtFqvtVhsZWh4j6rWWotxOT5TO0eN9j+vOczErsdhsshst/44X9t4Vrhnc3KozfyzC5euweXqP39eyK9TszNPuXb5jsy3Pygs/Ue7jpVpg894oDfye/64PDZHplU5Xh6DdPNqcgfOeua0kK1effZ2QBYXJLyZBKhs0EvO61DK8tmoP9r4GyXUNt7Wq5gbe7HNHBUpolw/P9FKzeduVcxz5vis8/ts+uMas9R/0cJuN7NWpQ5mGl6s418wsrzXmq/fQdZW5h3XI63QqTWa2d1/nUXdU4VsNkVm6nJFC+iyxYWp3rPHHXv0/IRJjccnJzu9czhbxutJSNyAWFu3tbcVFuZW5Vu1qGFjO/sdPSK/bwU3rfY5cFAd3YeSdzy5746v4oR3bGB2dKrVTvhzAZn/9u9RqUmZNcVY5Jhl/74TtKEGulNFa3wuRn7tqYYLVXfzVMpo5tfOjaA3PDL/rige8jFQfyz6mviTC5JaUEg7DX2ZaFBKlHxuF99ZbeBqzMa6pThqeVgFVnoUW72lHF8HPmcHVzFORlH+hdL3RWEl9yXfmQdXLJa+JZl3V+W8iEkSqfNduE1vXh4hi1YzFX3V7y097fehH71eHnjdqzzmstTKbHMT3HWaiX0aZ7hslsRJFFZPmdRxaQ5d/nWocwuSWNTa/05dymrdKy2jE7wLC+3UXYPrbLCwLy3Xz0a71ZDJXeoAwxP6CLN+/c3LL4pFclqTK/7KguX2uykOP2XdV+f2eWnH5Rp7h7HVVqUKZgditu3VmvuH8r7ZHF3MKUv2qHstUiNlqEVUaC+2pv4+omAZ//3r99jpwfqWl67U0LzdGXjaoIIExueilE2w9DjVutpfh0lT2dOVD4OlMCOvm9pIB5esrG+2DaQeo6ZrvGez+z86HqW7f1/lxMD3DCWqdXt2fxQ4bxl2t8xV+5ZaFUML9tV3ceEjO/OHuLlyn+PtyGPe3z9zJM2+lOhjxIJWxNza209fdU5l7WrjJYqyMM6Xm8ZymxnHsJt/mcKXXUju8GYbLvnXOF2pPtXsxhx4P6N7Nc7FO/rp1zehPuU+9tpA8v6rcMLTWH21spsn64wJPVunW23eu0DANmmPihJ7U3VGZHkgwNt7ofckrtdLpnq4qsvM5K4fXe0+oQa7tkyDk9nTmm7fyOHnbyWDNEdmrqz+kXz2w4L3O5Tfk1C5he8J7p5nUqv92s1n5RUW8zZZd+7fkHwnjmDGcxGsLkEXMDP/GCKUGwTXPSutVrsdXdUSyKyXBSetbS81Kn+HF6dbIjzv5N0EmcRVrpzTi6CDPZAadOr2uGKTOEXmdP8W5L706GvxOkV2++dXaTSsmtLG5aaVNIyFSAtcrmpDB3L86l9KSvVRA+8zw7WSkiq8tzjDNqUOcBL7/DU4reu88Vi4o6fewSgtfqyc12oZmz3G6pApHh7icUwTHzKHOcsqNRipSvWHcpTB5p8jSfm7ZAWL+lWPNmuIlvRpn0ngns6S3JUGku1hkizk0/4Ss3+UziP68IUp+8fn9bC4/3QopQZ5rEZV+Zb/bkZJXx6udNy4rU3DRTYinHJCtGW+2R67XMb7zim/ubCykSPlY/b+ab5X/mn1PeJ8Wic6PuRDA4+AE7DyF5H9mJJzu8XP29hZ6fEx//+v7mwsm/L77/7Gme772bstVl5jhmTmCmi6zuxpTv56/ecOB3mDqy2V8+W2O2ukVnXdfcuNB8H3lP2UUp0x4WXZqFSbr39Jst2gTD6i3DUBm+AwCEySNa6nz93ssEyiotT+gKkgOAMMldMnfrya815F1mjlpWPgIAwiT30I9bbfXb/MhO7OMMAAiTW0YmfGexg20X715yJSsbN/tiBwAQJuma1Kp7xCl2ysnWiLbEAgBhkhpSZPav3jB5RIbI7NiReoezeiMBQJikNc09dl80dsQMaaee4e5xBcoAQJikbVJA+rWXz7Z1+7d+C5EpCnyzLREBQJikcwaL3Q1SY/GXjtsaofL+x442Xnzh9KbfPQUAhEk2lbHpleb2WZt1kU4W1mROpB1sAECYpIf2Lx7YzzZ7ofZ7b+XDTh5tnH7xTOP6Hy829+EFAIRJ+kjqMCZYnlAEy4ed3Psey1941r7GH79yovGaS2eapY4WrakBAGGSzeP2XUuNS78835yT+PtnjDcXuXQyPGbI/elvnGwWXU+oHZ/R/QgAwiRbxsLigYB5zY0LjYu+ON84s+gxPPb8qcZfvH6y8fhXTDQed/p4cy7jQ04cbTzg2AND5hk6zz+nNFH+Xf7/nvGWycap75tuvPHjs819sq+9acHcRwAQJgEAQJgEAECYBABAmAQAQJgEAABhEgAAYRIAAGESAABhEgAAYRIAAIRJAACESQAAhEkAAIRJAACESWESAABhEgAAYRIAAGESAABhEgAAhEkAAIRJAACESQAAhEkAAIRJYRIAAGESAABhEgAAYRIAAGESAACESQAAhEkAAIRJAACESQAAhElhEgAAYRIAAGESAABhEgAAYRIAAIRJAACESQAAhEkAAIRJAACESUcDAABhEgAAYRIAAGESAABhEgAAhEkAAIRJAACESQAAhEkAAIRJAAAQJgEAECYBABAmAQAQJgEAQJgEAECYBABAmAQAQJgEAECYBAAAYRIAAGESAABhEgAAYRIAAIRJAACESQAAhEkAAIRJAACESQAAECYBABAmAQAQJgEAECYBAECYBABAmAQAQJgEAECYBABAmAQAAGESAABhEgAAYRIAAGESAACESQAAhEkAAIRJAACESQAAhEkAABAmAQAQJgEAECYBABAmAQBAmAQAQJgEAECYBABAmAQAQJgEAABhEgAAYRIAAGESAABhEgAAYVKYBABAmAQAQJgEAECYBABAmAQAAGESAABhEgAAYRIAAGESAABhUpgEAECYBABAmAQAQJgEAECYBAAAYRIAAGESAABhEgAAYRIAAGFSmAQAQJgEAECYBABAmAQAQJgEAABhEgAAYRIAAGESAABhEgAAYdLRAABAmAQAQJgEAECYBABAmAQAAGESAABhEgAAYRIAAGESAABhEgAAhEkAAIRJAACESQAAhEkAADgkTA4MDJ82Nj655HAAAFDWyspKY2BwZHHbjsGdJ+4bnZhzSAAAKGt5eTlhcqoIk8NP37t31Dg3AAClLS4uFmFy18i27UO7jhoe2TPukAAAUNbs7FxjaOfItdu2b9/+0wODw/sdEgAAypqYnF4phrnP3RaDQ7uG9i8sOCoAAJSye8++iR07Rp7cDJNFqnzXZJEuHRYAAMoo8uP88PDwzzbD5B2DI48f2bV3wmEBAGAjs3PzjcHBXTduW1X8336ySJcTWZUDAADr2bN3dHpgYOT4bQcbGNr1xtGxiXmHBwCAtSwtLWWIe2ZwcPBn7hYmt2/f8/PFv5hdWlp2lAAAOKx0Pg4Ojpyz7XAGhkbedue+cbvhAABwiAOFykem0wl52DB5222j/6WoZD62f78yQQAA3N2u3XfO7BgcOXXbeop6QU8d2rl7enlFpSAAAA6YmppZGhwaueX66xs/tW0jxXD3e4tVOjMOGwAAGbUu5klODQzsvt+2MootFv9DkTy/NWZ1NwDAES3zJIvdEmcHBnY+YVsVWe5d9FBuHx+fNIESAOAIDZJDO3fN7Bgafva2Om6/fffPFT2UN9+5b2zW4QQAOHI0h7aHmkHymG2tuGXv3v9UBMovFNstTqdIJQAAW1tzsU1zjmTFoe21FK/5EwMDwy8pXnSmeHFVzQEAtqAMaxflf6azarv0YpsqBgZ2PaSYR3nD8MieqdlZtc0BALaCjD5nZ5sUJC/qSL6oVPmf1nopdz4xcyl3Du+empicWjb8DQCw+czOzTf27h2dzpba2SJxzZ1tOmXHjuHfKkLlhUmxRbCcSKKdnp5tTthMwFxeVvgcAKCXVoqNaJaXlxsLC4uN2dn5xsTk9MruPfsmivxW7LG968aBgZHjU8VnWy8V7/PfF3Mqf+2OwZEXDu7cdXlznL3YlnFgcHhux8BwQ9M0TdM0TetNK0LjUjr+iuA4PDS067rifz+32PHwycPDwz/bjhz4/wGY5EZoIbyIKwAAAABJRU5ErkJggg==;clipPath=inset(25% 11% 25.5% 8.33%);" vertex="1" parent="1">
          <mxGeometry x="680" y="171.59000000000003" width="93.9" height="38.41" as="geometry" />
        </mxCell>
        <mxCell id="oM49j2kRH9s5FRGwLrnU-73" style="edgeStyle=orthogonalEdgeStyle;rounded=0;orthogonalLoop=1;jettySize=auto;html=1;entryX=0;entryY=0.5;entryDx=0;entryDy=0;startArrow=blockThin;startFill=1;strokeWidth=2;" edge="1" parent="1" source="oM49j2kRH9s5FRGwLrnU-67" target="oM49j2kRH9s5FRGwLrnU-69">
          <mxGeometry relative="1" as="geometry" />
        </mxCell>
        <mxCell id="oM49j2kRH9s5FRGwLrnU-67" value="" style="whiteSpace=wrap;html=1;aspect=fixed;dashed=1;" vertex="1" parent="1">
          <mxGeometry x="650" y="296" width="150" height="150" as="geometry" />
        </mxCell>
        <mxCell id="oM49j2kRH9s5FRGwLrnU-68" value="" style="shape=image;verticalLabelPosition=bottom;labelBackgroundColor=default;verticalAlign=top;aspect=fixed;imageAspect=0;image=data:image/png,iVBORw0KGgoAAAANSUhEUgAAApMAAAG4CAYAAAAZlWyVAAAABmJLR0QA/wD/AP+gvaeTAAAtAUlEQVR42u3deZhlZX0n8M5M8jwzf8xMJpN5kpnnGY0aNRonGo0JmowmJplkTKJJ3LKYYBIV2QRxwaCIcUHEHUSRuCKoKKBGREVFEdzBFQRRaLqquqoXuvata7tzvreppKG7qs45d63qz+d53ichhFv3nnvuOd/zLr9327Y2aDQaP7l9aNdROwaHXzw4uOtjg0O7bh0YHBkfGBye2zEw3NA0TdM0TdN604pMtlS0mYHBXSNFRvvKwNDI2wYGdj7t9tt3/9y2XhsYGH5MER4vzhscHt4zMTo2sX96eraxf/9CY2lpubG8vNIAAKB3Voo4try83FhcXGzMzs03JianV3bv2TdR5Lf5waGRm3cM7jxxaGjov3UtQBbv6SfuGBx+Unofdw7vnire0HKCIwAAm8tcES737h0tei1HZg/0WA78z44GycHBwV8pQuR3h0f2TM3OzvkGAAC2gHQMjhUjzM3h8KHh066/vvFT7e6N/HeDgyNnFG12anpGNyQAwBa0uLjU2L3nzuliGuOtxdD3A9oSJH/0o33/uej2vHZk197ppaUlRxkAYIubmppZLjoRpwYHh/+spSC5ffueny8mZt6yb9+EMW0AgCNIFlQX0xtnBgZGjqsVJLOqpwiSd4xPTC04nAAAR54Mew/tbAbKY6sutPmPRdfmd8fGJ+cdRgCAIztQFj2Us5WGvIsgeWGxTHzW4QMAoDnk3ZxDOXj/EoXIdz1t587d0ysrCo4DAHBAc1HO0MgP1y0btH379p8uttoZS/oEAICD7d595/SOwV0vXrtXcmjX+XfuG7dyGwCAQ2T+ZFHYfPqOO/b+j0OCZDb7zlY62bsRAAAOZ7TYKaeYP3nu4eZKvqn4l1ZvAwCwpmxik20Xi8U4P3Pwdok/WfwfJxYXFx0hAADWVVT9mS5qTx7/r2HyjjtG/qjYLnHCoQEAYCNzc/MpFXTTQQtvRt49OTmtFhAAAKUUo9pzIyMj//2uIuW7di4sKAcEAEA5u/fsm9ixY+Qp23bs2PFfBwaHLbwBAKC0iWJUu+idfOu27UO7jhoe2TPukAAAUNbs7HxjaGjXddt2DA4/vViRM+mQAABQVqoAFTsnjhRhcueJ+0Yn7HoDAEBp2eimGOaeKoqVD582Nj655JAAAFDWyspKwuRisQBn58vHx41yAwBQzY6B4YYwCQCAMAkAgDAJAIAwCQCAMAkAAMIkAADCJAAAwiQAAMIkAADCpDAJAIAwCQCAMAkAgDAJAIAwCQAAwiQAAMIkAADCJAAAwiQAAMKkMAkAgDAJAIAwCQCAMAkAgDAJAADCJAAAwiQAAMIkAADCJAAAwiQAAAiTAAAIkwAACJMAAAiTAAAgTAIAIEwCACBMAgAgTAIAIEwCAIAwCQCAMAkAgDAJAIAwCQAAwiQAAMIkAADCJAAAwiQAAMIkAAAIkwAACJMAAAiTAAAIkwAAIEwCACBMAgAgTAIAIEwCACBMAgCAMAkAgDAJAIAwCQCAMAkAAMIkAADCJAAAwiQAAMIkAADCJAAACJMAAAiTAAAIkwAACJMAACBMAgAgTAIAIEwCACBMAgAgTAIAgDAJAIAwCQCAMAkAgDAJAIAwKUwCACBMAgAgTAIAIEwCACBMAgCAMAkAgDAJAIAwCQCAMAkAgDApTAIAIEwCACBMAgAgTAIAIEwCAIAwCQCAMAkAgDAJAIAwCQCAMClMAgAgTAIAIEwCACBMAgAgTAIAgDAJAIAwCQCAMAkAgDAJAIAwKUwCACBMAgAgTAIAIEwCACBMAgCAMAkAgDAJAIAwCQCAMAkAgDAJAADCJAAAwiQAAMIkAADCJAAACJMAAAiTAAAIkwAACJMAAAiTAAAgTAIAIEwCACBMAgAgTAIAgDAJAIAwCQCAMAkAgDAJAIAwCQAAwiQAAMIkAADCJAAAwiQAAAiTAAAIkwAACJMAAAiTAAAIk1DRHXuWG//rH/bVar/wrH0OIAAIkwiTwiQACJMgTAIAwiTCJAAgTCJMAgDCJMKkMAkAwiQIkwCAMIkwCQAIkwiTAIAwiTAJAAiTCJPCJAAIkyBMAgDCJMIkACBMIkwCAMIkwqQwCQDCJBxqeaXRGJ9Zqd1g1b6plcb7rp5vvPSimcbLPjDTuPTL843Z/c6RI9H1P15snHXZbOPU9003Xv/R2caNA0sOCgiTAGu78ob9jQedMHpI7/Wvv2CsGSw4MswVDw8nvGPqkPPgXs/c1zj94pnG0rJjBMIkwD0kLN7n2WtPh3hwETJv36Vn6khwuCB5cDvzIzMOEgiTAHf3tNdNbji/9sQLphyoI+ChYqPz4D7FPOvBvbonQZiksm/dtlh7kcuvPm/skNc75m1TtV/vHZ+Zu9trWYBDKzKsmfNgo3PlISeOOlhbXOZIlrluXPiFeQcLhEmESWGSA4b2lT9/5izG2dKe967pUufBay+fdbBAmESYFCY5YGBv+fNnel6Y3MpO+udy16UzLzVvEoRJhElhEmESYRKESYRJYRJhEmEShElhUpgUJhEmESYBYVKYFCarWimyySXXzTcW1MQWJhEmAWFSmBQmq/rQtfPN9/H7Z4w3vn+HRClMIkwCwqQwKUyWNDK63NxZZfW93O+Yfc29oBEmESYBYVKYFCY3dPwa27alcPKKzCJMIkwCwqQwKUyu5Zs/Wv94vvSiGYFSmESYBIRJYVKYPLyj37zxXtAvuWjaiSdMIkwCwqQwKUze3Y9Hlhr3ema593f+p+ecfMIkwiQgTAqTwuS/yb6+Zd/fvYvQefX3FpyAwiTCJCBMCpPC5AG/9eKxSu/x4aeMNUanhBhhEmESECY3scXlRmN8ZqVWm5w99AY8M79S+/XmF+7+essr9d9bWjfVDb4nXjDlJBQmESYBYZIj3Qe/NF8rTGaO5fcUNRcmESYBYZIjW1Zo1x2S/9s3+50IkwiTgDDJEe1JZ03UDpPpncwwOcIkwiQgTHbF0W+ZbDzkxNFa7V++sf9ur5Uh1rqv9djTxg95bye/a7r267336rlDwkDd13roSaOHvLdXXDJT+/Xe9C+z634njzp1rHaYTHvDx2ad2MIkwiQgTHbHk19bvxfsnntEH0mruf/x/fWHol+zwU0m+2+3Eib/8OXjR+S5PLRvufmA85ZPzDYfRP7yDZONP3vNROPxrzjQnnr2ZOMfzp1qnPHBmca7PzfXuP7Hi4cs1NpMYXJu/0rjK7csNN539Xzj5R+aaTzzrVPNz/yEVx/4vPnf/+6cyea5ekHxe/h8UT5qYmbzBt0sort5cKl53XndR2cbzy1C3d+8abL5va5+3jwcv/C9041zrphtXPHN/Y3h0fb30vdzmMz5fNEX55vnwp+eOdE49vypxpU37O/qTln5rXz86/sbb77rd/j0N0427zP5jvKe8j1lm9hsCXvJdfONmwaWmt9tN+V4XPXt/c1zKCNBuS7kuC3UmHI+VSweve4HC83f2OkXzzT+/tx/+x0+7XWTjWefN9V4wXummx0Qb/3kbPPv5hghTAqTwmTHwuTiUqOlILlad3Izh4YqN4Rv3LrY/C7q9ubetwjuf13c7C78wvy6pZX6JUzuGV9uvPOqueYNsM5DR86NP/yn8cbrizB2266lvv+OE44+UTwg5Ib8K8UIQZ3v+KgXjjW3Hv3yzQttCS39GibzYLFWSbFnFCG77INTnZCfY5sQn2Nd5zv6388dbX7H+a479T5X7S8C47POO/x3+AfFg/iusY2DXu4n51051/jjV040f1N1PvNvFt9VHmx/uHOpgTApTAqTbQ2TCSKthsm0XNy3qtxs0htXtRbnRu0XnzPaDAo/GFzquzB5Q/HbSu9JzsV2fub03H72Owt9t8f7SNGjmN7WB58w2tbPm3PmXZ+da+k76rcwmc+SsLzRjlnt3no1fzfX2d94YXt/h/nO04tXJtTVcer71r92/8mrJhpLa/zpz393ofnwea9ntu/z5rUSbjv1eREmhUk9k7Xbh66dP+RpPMPAmdea9t3ti40bi+GlHcVx2Sxz/BJ4PlCUTXrEKe29eR2u9+64Ynhw8KChqF6FyfRaZMisk593tUemHx5A0qOeYNTqVI8yRf4zrLlY4/7dT2Eyw6uPLtkrn+vY0J2tB5Ycs1xf6/YUV3m4S8/d4WoQ15X7QJmexE9ef/f1APltZNi60+dk7qEIk8KkMNmWOZP3P7b1i3SO3ZkfmWnOJ8ux3ej/PzeGPyqGbPLUnnlMO/f111Pyj4aXGn9+1kTHQ9XB7YHHjTbnQaWXotthMr2vOU/u8+zufd70kCQo7evRTkqZZ/fwDj8o3LPlnL+14jBjP4TJqbmVxosvnK7cQ3bxNfMt/d1v377YfPDo5neUh8dP3GOxZ135/GX+Zq6DcefkSunvux3tYSePdX2TDGESYXKLhsnfPb27F+u1gkUmy2dBy3KPr22Xf3V/M9j16lgkkGexTrfCZHqQO90Lsl575AvGGt/8Ufd6SLKQKAsUevV50wP2/i+UD1m9DpPX3LhQe27i266caymI3feY3l2TTnrndGN2f2u/rXOLhVll/lYWMKXXt8yDeLvbBZ+ZE0yESWFSmGw9TD7n7VM9D5P37L25ebD7k8QTYl/2gZm+OAYPqjB3r5Uwee1NC41fPnG05583PaKZl9ppmSf2hy8f74vv+LTiN71Y4jTvVZjMcO+L3jvd0ny9y75S/TvNFJl+uSblXBlpYYV+Kj2U+TsZqWn3/OSyLSvdESaFSWGy5TCZVYL9FCZXVz2/5/Pde2LO0PIp757uu+PQyTCZkiHpJeunz9LJodr8Jh996lhffd4Tihv5RouRehEmry7KOv36C8ZafkDYPV4tiM0U53IWnPTTd3TUi8YaPx6p93BbNkz2suW+hzApTAqTLYfJ1F3rx4tcN3qqVoPks8+b2pRBsm6YzHSCXvWEbNReeUn7A2V+j484ZawvP+89F1/0MkxmQdLz2/RQtdFmCYcLkpnq0o/fUeYW1impsxnC5Bs/btMJYVKYFCbbECbTM9JqL0S7W97P/i5No0vh380aJOuEyawUvd8x/f2Z3vap9vVK751YbntZp3a2FELvhzD5uaIMza89v/XjlN7ud1Sch5fh/r9982Rfn5M5NlVXp/d7mEzvse1whUlhUphsS5iMPJ0eib2SZSfIl6kneHRxM8yqzH8q6hWmxt7zit04nlgsbHnQCaN9EyZvGVpqPOj41t9Pij7nt5ypASmtk5Iq+ewZomxHHcDM08uOMq3KKvXshNKOaRdZVZwe7HzO/B5TzukpZ0+0HFRzvHoZJtMbuVEtxLItC7lurdGDl7mZ7fodJpRm8UzmP6eXNbsypXB+O3riH1csVqzye+t0mMzCqPzmsqAsc3DzPeZ8SQ9vmbnQ511p8Y0wKUwKk20MkylJ0Y4SQe1ouWAvdmH9zVdvWWzpBpNdYVJfc6N5YamTl9XZCVydqJVX9uaWlamPa2HlfnqLs5PNjSW2o0tpo2wh2UpZl4TwVntNTmvhd/OA4veQUJL5gzMbHON83jwA1bm+ZR5nr8Jktrx85Ava0xuZldtLNb6uy4rqCa387Wwh+OGivNjQBuXFUgLnM8U84cxTbWWVeLZE7GWYTGBPNYCNPm9+o3l4zAPz758xfsjDYOqeIkwKk8JkW8NkZK5aP5QIyjZtnZYbS92b6F8VRb1T/66Ombt28XhIG1dQlw2TdXufEiITmusG/C8WpWXq9g5m+7jFmnkye0TX+Zt5qMo+znnAqvuQUuU6l97ObofJdvZGphes7gKV7buXGr9UowxXrhMJdQlLdeQBMNfFutM9El67HSb/4vUHSobVldq5+U3k+trpLSQRJoXJIzhM5gLzuB7XnHz1R7qzJVyGoau+twTAj329PcWM904ut3S+VQ2TqeNYp8RLhrBTsLpV6bFKT2Wd1eP576rKe67zsJBerh1tmkOWYvxl6pVutBNQu8Nku+ZGJnTX7Y1cVWee5GNOa9/uSQlYT6qxOUFGGEZLFNtvR5hs53UHYXLLyEU+vUJ12sLiocOHdV/rcFtmpdeo7uvd80kvQwx1X+twOxJkiLLua81VKLz79k/1rkxQinV3Y3j7+3dUH97+v8Uw0cDe9k9U/+er5kptt9ZKmMzNvmptxQSFdsxZPNyxr7rYKzfTqr2EeSipehxfe/lsS8HocNJjt96xTw/oRtoVJsfb2BuZPdbr9kau+vS3qvccJ3y2ezvWfOd16suu7lrTyTCZ687gXgtkhEnYJL5x62KzV6ZnxYGLCfITXdrW6xlvqfY5/+RVEx3dcuyjX2utTM9GN9dsG1h1W8cM1XZKbo6/WXHRSpUh3KzertoDWqf3s6w89KZm6upnTg9xCvOX3bKvHWEyDwYPO7n1qRUPuKs3stVdqlJB4vdeVu0BJ4tMFjuYq/JgV2kldPGb3agXu5UwmbmRtjoUJqHv3bhjqfGGj832fDvFpxerEQ/XU9wJqRVXZbj3scWQWjf2js7ijU6FyQT1KjfILMrotNt3LTUeWmEx0oOLxThlz5H09nWyHmIrMkpQNRC1EibbOZ0ie9Xne2uHDLVXLZ+01IUOukwJqvK+Ml2mE2Hyt18yXmoYHWESuibTAzKHMysZs7Iv22c9qg92AklweV2xOnixi6M4VYb5MtRbp1BxXXWLRa8XJr/2w2rzis+5onvBKgtzqgT7d161ce9hpptUWdyUPZFX+vyeXTdMpjfyoSf1T2/kwbKIrezfz8NuO+btlpHP+A/nTlW6Rqz3kFMnTOZ4Zy4nwiRrSCmD3MyP9PaqD880L/ztaJnrs/q6KXmRPW2PLoZxM0SSmmudrnHYyvzIzJ/rdqhOSYyy7/GCz3S3BltC4VE1ajSuFyZffOF0pWG15S4HqyzwqTLdYCOfqrCCO8O+Y9P93/tTNUxmmL9dOzqlhmHVQt0b2VOspC47rSMPGzfc1t3rRHoEq5Tw+siX59saJjs55QJhcku4sU+37dO61xOZnqB2rcSs6rPfKT+09jsv7U6ty3tKb1K7wmTef9mbYm7a39m+2PXPmzlhD63wHjdaBJWHqbLH7QNf2hx19qqEyXb1RuYh9OJr5jvSa5uwVPZ9pCh+L1SZdpJFQe0Kk5lHumi9jTDJ+m4SJo+olt6HXBwzfJs6hb2eA1RlxWYWxfRCbt7/r2JNxrXC5A0VSmdlUVKvVNmFKAFnvWNXtuc5u84sbpKRxLJh8sFtGoVIOBoe7VyiObrkArhcPzr5PtaT+ZllF4llqHthsT1h8uNKAAmTbOzmQWFyK7WExNzcD24Z8slcuBQTbncJj1aVXYjyiFPGeto7kILI7QiT53+6fA/QtTct9OzzZhV/2d2XTlpn95Eq15d27v3dL2Gy1fbgDvZGrlquEPjX6/HrhnMqPOSsVUy8SphM7U+9ksIkJaQkiBC2NVp2rejWCux2SJ3OsvO0srd2L2WxwQMqbG25Vpgsu4o3xb2Xe/xVHnt+ufeaecBrSRAq8xqp6zkyunnu2t0Ik+kt3DXW+WOSfbvLvqc3fny28b1iXnWvWpUV52vNr64SJl9xyYyQIExStgdCENsa7fSLN9eFLz2lm6GXblXKJbUaJu+5H+9a7YXvne75502Pdtmhz7WGFLOwrWxN082kG2HyuPO7s6o9FSW24vUwO5S1Gib74bqDMLkppPej1d0+tN63LIRodfeLbit7E0tYmd3f+x7XKvMI1wqTZfc8Xm81arcMVBi1WOvcK7uCOXNnhcnD7wDUaenB24rXxJQ6aiVM5r44M6+upDBJaVVKs2j92Xo9l6mO93+hXM/Xo08d64v3W6XEzeHCZKYglP3vv337Ys8/bx40y86bXKsaQEoblfnvs1JXmOzNsSnbe7zZ2uNOH28pTD6qT647CJObRtU9grX+a9fcuPmGY8ouRnnK2RN98X6/u32xpTCZ+W9l//vd4/0xf/Axp5W7NmRP58Mpuz1fSkQJk2v3zF/17c6tKM5w8Fa8Jh71orGWwuSTzpoQDoRJqkidQYFs87bUX1zZhKMxmcxfdiFCP8hQbithMtvetWs7xm4pWxLp0jWG5cvu6vSVW4TJdWtMHj/a3Gq1I5/lnVszTKaeayth8ug3yxvCJJWc8cEZoWwTt8u+ujnroGX/5a0aJg9XL3H77vL/fbe2qmvXqMVaYfLRJcNkr4rm9ypMlu3xvWeZmp372t9jffK7tmaYzPFqJUxmC0eESSp412fnhLJN2n77JePNYr6b0TtKTvzvl+GmzGMs837ve8y+w/73Gbou+712oyRMGWWLRH/yesPcZdqvPm+scWUx9zYPG3/x+sla8wBTgaOdTtuiw9zZdlKYRJjsovQKCGabs13+1c27O8NFXyy3ACd7Y/eDT3yj3AKcLGg7nKkKC3DWKrjcTXlISTAu836/uMac3SeWXIDz3qs3197HdcJktpXcd9COUzkfypaKOrg99ezJxv42nh6v/sjWHJlaax6vMClMCpMdklWm91IeaNO1DJVt5t0ZPl+yAHFKdEz1QTH2snM8ExDW8qCS2+v1wx7VVYb1UzP0cMoWaX/pRVu3NNBqb+ThZGvCX3/BWOXf/gnvaF8Nyq04MrXe+SRMCpPCZAf9n3+0onuztV7tVd2LsHL193o/DJpV5WXeaxa0raXsHMQsitgsPcf3Wqce35kle73+7xlbs2h5zpmx6fVT3/eLnV3K1h+952403Xyo2yzTfi65bv0HMWFSmBQmO+i4863o3mw11JY2+Z6xGaq7z7PLfd6XXNTbcDVaDE+WHfLNsGGrv7OHnTx22EU83ZSFT2Xea3rW1vLBL5UPpEP7tt52imdeWq7HNQ9L93lWtWtAjtmHr2u9B7tKlYEE2B17lvuybRTahUmEyS5451UW4Wym9sUbt8Y2X2Xn1KXMx/4eTiPMnL6y382nbli7x7jKkGIvF6XsnVguHW4ylL2WKvs+v/WTs5vmvG13mIwPlAzeB7c8jH2pxS3/Mlyeh5cyfy9F6Dc7YVKYFCY7qMqQo9bb9vdb6CJXZfeNi6/pzTzC9AA/tmQpl/QW7Z1cu4ctQ5plP+/TXte7693Zl5ffOvLdn5vbIKiMlu7hXFjcHOdtJ8JknHXZbOXrQebh3jTQWjf2s84rPzL1g8GlTX3NESaFSWGyw8qWAdF61zLUetuupS1zzlWpJJAdLeZ6sEd35mCVfY+Pf8XEhsH04aeU/531ov5ieiUffEL5OXwb7Qn/3AqLVTbLtoqdCpMJ33WKiLdagzIPamX/1t+8aXPfh4VJYVKY7LCtWm9sK7XXXDqzpc65hKvcCMt+/td/tLtDoeNFTb+sxi37/t7+qY1L3LzsA+V7Y3+3mBvb7d66KkWss6BoI5+rsMAjZZXunOz/7Zw6FSajbg3K1PScrFn1IOd52TnBaZ/59uZd/CdMCpPCZIdljpbA1r8toaYfSuS02ysuKR+uMo+vmzUYn11h+C97KJdZRFK2+Plqy/Hpliu+ub/SeysTnhOOyg51r+541O/bg3YyTEbdGpRPLwp11y0XlukzZf/OI4spCf1SWF+YRJjsMxlC/OUTRwW3Pm1r7TKy2WV4ruyq7tUhvaE7O38jK7vd42o79vzyN58/e81E6dfNPMyPfLnzw783F3PhqgxvP7AoZzM6VS71la3Rudpee3l/L8bpdJiMujUoX/jeepUPsj96lb+Tfdtn92++h1thUpgUJrsgJVgEt/5rJ16wtS9sz624o8jvvHS8MTLauUCZVddVC/lncU1ZV317f+W5smvt6NGuIFllLmfaKyv0mCZ0PrBiLcVOru5O713mCWaRU3r8E9pSCLzs4pJuhMmoW4PynCvqHbsnvHqi0t95RtGL3MlA+Y1bF5vXhkz3+INiSsWp75tu/HBna3PGhUlhUpjsglxMhbf+ahki3AzzyFqxffdS437HVDsujzp1rHHjQHsXIyVkVFlhXqY8zuFkGPdPz6x2484Qfye2HbymKDP1kIojEhnByEKdKt7wseorlfNw2+45o1kw9AdrFI/POXjlDRuH9m6Fyahbg/LSGr3ZdbbW/ZNXTVQ+FzaS7/yfPjRz2Ae6PFhd9pX6PfW9CJP5vWdk6e/OmWw89KQDv7U8JPz5WRPNB9e5/Vv7+i5MHqEyfCHE9U8rc3PbCl730eph4/7HjjYvxu0o4J5V8k86q/q5nx63Oitpb9yx1JxnWfXvZTi9HTfv3MASdu5dYyvV9coBrff38gBQ9W/98Ssnmj2n7ZCAtVFP3wOO3fj77GaYjLo1KK/7QfVqAMfW2MAivdr/8o32XKfyO9zoHpTPVrdEUbfD5J7x5X+9rmQebK5z6RXPfOO/Lua4JjCnUsV3ty82ECa3lAu/MC/E9UnLytojRYbLsh1aneOUVcVZQFZn4UbqQmaRS9We0dX2z1fV7y185SUztf5mehIzDDw9X/0DJ3gnVD361HqlwNITVXeRR3rZ7lUjvCY8ZL/l4ZpTG772w8XGU88uv0J6o6oB3Q6TkUoOdWpQVg3imT7yKyfVmzufBUBfv7VeKMrvMJ+x7HSI59W8NnYzTE4Uq+QzJSfn7/uL++rhrk8Zyk8Yf9Dxo5u+hqcwyd1kn90qqy+1zrTHnFa/1MdmleLLv/ic+udeiotnvljmmi2vc+hSCiU9vtnesJW/94wWVx5nOC89b3X/fsJC5pF94fsLa+6PHQl/WQWfhS11FnUcPLw9sLe1XtG6AXp1iDN7n3+i6AXbt8Hin/RwpQf1ya+tfnw3qqXYizBZtwZlvu+qITwPZnVC/8GLc3LsM79xvd9HwlbmAuccTo9w1etjv4fJfK68VnqWs4NXdppLz+Q/FmX4sjFASizlOrV63cse9Zt9m1xhkrt58ydmBboetgzFtTrRfLOqM6R32KBVPOmniHjmKT3n7VPNlgUX6ZG79zNbf/28TtnVzOte4PbU7wm655zK3GAzdLb6eRN2Mz/w/se2/vo5Zu1YBJRSQVVWs6/3frLRQoLf8cXimee/e7r5ebNF5yNOaW0Dho12H+pFmFx9+KhTgzLhrmovdvaYb1dJs3zfCWdZaZ7z8ilnTzQeVyyqqTPNY7XlO+7nMJme1ny+P3rlxL8+wOZ187kzEvL4u4by3/P5AyMbL//QgeN91bf3CyDC5NaRJ8YUEBbsetPaNf9os6ozf7KbLZPoN9r5pYrUnnzgcf39e3vnVe1b/JMQXndKQzdaeo76MUyuhpIEkjq96FV6vdJjdlyN+ZPdalnA1s9h8rKvHqjYcP6n5+4WJrOoLDKdIP+c1eqr14D884svnBZAhMmtJTcPwa77rZtFqvtVhsZWh4j6rWWotxOT5TO0eN9j+vOczErsdhsshst/44X9t4Vrhnc3KozfyzC5euweXqP39eyK9TszNPuXb5jsy3Pygs/Ue7jpVpg894oDfye/64PDZHplU5Xh6DdPNqcgfOeua0kK1effZ2QBYXJLyZBKhs0EvO61DK8tmoP9r4GyXUNt7Wq5gbe7HNHBUpolw/P9FKzeduVcxz5vis8/ts+uMas9R/0cJuN7NWpQ5mGl6s418wsrzXmq/fQdZW5h3XI63QqTWa2d1/nUXdU4VsNkVm6nJFC+iyxYWp3rPHHXv0/IRJjccnJzu9czhbxutJSNyAWFu3tbcVFuZW5Vu1qGFjO/sdPSK/bwU3rfY5cFAd3YeSdzy5746v4oR3bGB2dKrVTvhzAZn/9u9RqUmZNcVY5Jhl/74TtKEGulNFa3wuRn7tqYYLVXfzVMpo5tfOjaA3PDL/rige8jFQfyz6mviTC5JaUEg7DX2ZaFBKlHxuF99ZbeBqzMa6pThqeVgFVnoUW72lHF8HPmcHVzFORlH+hdL3RWEl9yXfmQdXLJa+JZl3V+W8iEkSqfNduE1vXh4hi1YzFX3V7y097fehH71eHnjdqzzmstTKbHMT3HWaiX0aZ7hslsRJFFZPmdRxaQ5d/nWocwuSWNTa/05dymrdKy2jE7wLC+3UXYPrbLCwLy3Xz0a71ZDJXeoAwxP6CLN+/c3LL4pFclqTK/7KguX2uykOP2XdV+f2eWnH5Rp7h7HVVqUKZgditu3VmvuH8r7ZHF3MKUv2qHstUiNlqEVUaC+2pv4+omAZ//3r99jpwfqWl67U0LzdGXjaoIIExueilE2w9DjVutpfh0lT2dOVD4OlMCOvm9pIB5esrG+2DaQeo6ZrvGez+z86HqW7f1/lxMD3DCWqdXt2fxQ4bxl2t8xV+5ZaFUML9tV3ceEjO/OHuLlyn+PtyGPe3z9zJM2+lOhjxIJWxNza209fdU5l7WrjJYqyMM6Xm8ZymxnHsJt/mcKXXUju8GYbLvnXOF2pPtXsxhx4P6N7Nc7FO/rp1zehPuU+9tpA8v6rcMLTWH21spsn64wJPVunW23eu0DANmmPihJ7U3VGZHkgwNt7ofckrtdLpnq4qsvM5K4fXe0+oQa7tkyDk9nTmm7fyOHnbyWDNEdmrqz+kXz2w4L3O5Tfk1C5he8J7p5nUqv92s1n5RUW8zZZd+7fkHwnjmDGcxGsLkEXMDP/GCKUGwTXPSutVrsdXdUSyKyXBSetbS81Kn+HF6dbIjzv5N0EmcRVrpzTi6CDPZAadOr2uGKTOEXmdP8W5L706GvxOkV2++dXaTSsmtLG5aaVNIyFSAtcrmpDB3L86l9KSvVRA+8zw7WSkiq8tzjDNqUOcBL7/DU4reu88Vi4o6fewSgtfqyc12oZmz3G6pApHh7icUwTHzKHOcsqNRipSvWHcpTB5p8jSfm7ZAWL+lWPNmuIlvRpn0ngns6S3JUGku1hkizk0/4Ss3+UziP68IUp+8fn9bC4/3QopQZ5rEZV+Zb/bkZJXx6udNy4rU3DRTYinHJCtGW+2R67XMb7zim/ubCykSPlY/b+ab5X/mn1PeJ8Wic6PuRDA4+AE7DyF5H9mJJzu8XP29hZ6fEx//+v7mwsm/L77/7Gme772bstVl5jhmTmCmi6zuxpTv56/ecOB3mDqy2V8+W2O2ukVnXdfcuNB8H3lP2UUp0x4WXZqFSbr39Jst2gTD6i3DUBm+AwCEySNa6nz93ssEyiotT+gKkgOAMMldMnfrya815F1mjlpWPgIAwiT30I9bbfXb/MhO7OMMAAiTW0YmfGexg20X715yJSsbN/tiBwAQJuma1Kp7xCl2ysnWiLbEAgBhkhpSZPav3jB5RIbI7NiReoezeiMBQJikNc09dl80dsQMaaee4e5xBcoAQJikbVJA+rWXz7Z1+7d+C5EpCnyzLREBQJikcwaL3Q1SY/GXjtsaofL+x442Xnzh9KbfPQUAhEk2lbHpleb2WZt1kU4W1mROpB1sAECYpIf2Lx7YzzZ7ofZ7b+XDTh5tnH7xTOP6Hy829+EFAIRJ+kjqMCZYnlAEy4ed3Psey1941r7GH79yovGaS2eapY4WrakBAGGSzeP2XUuNS78835yT+PtnjDcXuXQyPGbI/elvnGwWXU+oHZ/R/QgAwiRbxsLigYB5zY0LjYu+ON84s+gxPPb8qcZfvH6y8fhXTDQed/p4cy7jQ04cbTzg2AND5hk6zz+nNFH+Xf7/nvGWycap75tuvPHjs819sq+9acHcRwAQJgEAQJgEAECYBABAmAQAQJgEAABhEgAAYRIAAGESAABhEgAAYRIAAIRJAACESQAAhEkAAIRJAACESWESAABhEgAAYRIAAGESAABhEgAAhEkAAIRJAACESQAAhEkAAIRJYRIAAGESAABhEgAAYRIAAGESAACESQAAhEkAAIRJAACESQAAhElhEgAAYRIAAGESAABhEgAAYRIAAIRJAACESQAAhEkAAIRJAACESUcDAABhEgAAYRIAAGESAABhEgAAhEkAAIRJAACESQAAhEkAAIRJAAAQJgEAECYBABAmAQAQJgEAQJgEAECYBABAmAQAQJgEAECYBAAAYRIAAGESAABhEgAAYRIAAIRJAACESQAAhEkAAIRJAACESQAAECYBABAmAQAQJgEAECYBAECYBABAmAQAQJgEAECYBABAmAQAAGESAABhEgAAYRIAAGESAACESQAAhEkAAIRJAACESQAAhEkAABAmAQAQJgEAECYBABAmAQBAmAQAQJgEAECYBABAmAQAQJgEAABhEgAAYRIAAGESAABhEgAAYVKYBABAmAQAQJgEAECYBABAmAQAAGESAABhEgAAYRIAAGESAABhUpgEAECYBABAmAQAQJgEAECYBAAAYRIAAGESAABhEgAAYRIAAGFSmAQAQJgEAECYBABAmAQAQJgEAABhEgAAYRIAAGESAABhEgAAYdLRAABAmAQAQJgEAECYBABAmAQAAGESAABhEgAAYRIAAGESAABhEgAAhEkAAIRJAACESQAAhEkAADgkTA4MDJ82Nj655HAAAFDWyspKY2BwZHHbjsGdJ+4bnZhzSAAAKGt5eTlhcqoIk8NP37t31Dg3AAClLS4uFmFy18i27UO7jhoe2TPukAAAUNbs7FxjaOfItdu2b9/+0wODw/sdEgAAypqYnF4phrnP3RaDQ7uG9i8sOCoAAJSye8++iR07Rp7cDJNFqnzXZJEuHRYAAMoo8uP88PDwzzbD5B2DI48f2bV3wmEBAGAjs3PzjcHBXTduW1X8336ySJcTWZUDAADr2bN3dHpgYOT4bQcbGNr1xtGxiXmHBwCAtSwtLWWIe2ZwcPBn7hYmt2/f8/PFv5hdWlp2lAAAOKx0Pg4Ojpyz7XAGhkbedue+cbvhAABwiAOFykem0wl52DB5222j/6WoZD62f78yQQAA3N2u3XfO7BgcOXXbeop6QU8d2rl7enlFpSAAAA6YmppZGhwaueX66xs/tW0jxXD3e4tVOjMOGwAAGbUu5klODQzsvt+2MootFv9DkTy/NWZ1NwDAES3zJIvdEmcHBnY+YVsVWe5d9FBuHx+fNIESAOAIDZJDO3fN7Bgafva2Om6/fffPFT2UN9+5b2zW4QQAOHI0h7aHmkHymG2tuGXv3v9UBMovFNstTqdIJQAAW1tzsU1zjmTFoe21FK/5EwMDwy8pXnSmeHFVzQEAtqAMaxflf6azarv0YpsqBgZ2PaSYR3nD8MieqdlZtc0BALaCjD5nZ5sUJC/qSL6oVPmf1nopdz4xcyl3Du+empicWjb8DQCw+czOzTf27h2dzpba2SJxzZ1tOmXHjuHfKkLlhUmxRbCcSKKdnp5tTthMwFxeVvgcAKCXVoqNaJaXlxsLC4uN2dn5xsTk9MruPfsmivxW7LG968aBgZHjU8VnWy8V7/PfF3Mqf+2OwZEXDu7cdXlznL3YlnFgcHhux8BwQ9M0TdM0TetNK0LjUjr+iuA4PDS067rifz+32PHwycPDwz/bjhz4/wGY5EZoIbyIKwAAAABJRU5ErkJggg==;clipPath=inset(25% 11% 25.5% 8.33%);" vertex="1" parent="1">
          <mxGeometry x="680" y="387.59000000000003" width="93.9" height="38.41" as="geometry" />
        </mxCell>
        <mxCell id="oM49j2kRH9s5FRGwLrnU-69" value="" style="whiteSpace=wrap;html=1;aspect=fixed;dashed=1;" vertex="1" parent="1">
          <mxGeometry x="961.95" y="80" width="150" height="150" as="geometry" />
        </mxCell>
        <mxCell id="oM49j2kRH9s5FRGwLrnU-70" value="" style="shape=image;verticalLabelPosition=bottom;labelBackgroundColor=default;verticalAlign=top;aspect=fixed;imageAspect=0;image=data:image/png,iVBORw0KGgoAAAANSUhEUgAAApMAAAG4CAYAAAAZlWyVAAAABmJLR0QA/wD/AP+gvaeTAAAtAUlEQVR42u3deZhlZX0n8M5M8jwzf8xMJpN5kpnnGY0aNRonGo0JmowmJplkTKJJ3LKYYBIV2QRxwaCIcUHEHUSRuCKoKKBGREVFEdzBFQRRaLqquqoXuvata7tzvreppKG7qs45d63qz+d53ichhFv3nnvuOd/zLr9327Y2aDQaP7l9aNdROwaHXzw4uOtjg0O7bh0YHBkfGBye2zEw3NA0TdM0TdN604pMtlS0mYHBXSNFRvvKwNDI2wYGdj7t9tt3/9y2XhsYGH5MER4vzhscHt4zMTo2sX96eraxf/9CY2lpubG8vNIAAKB3Voo4try83FhcXGzMzs03JianV3bv2TdR5Lf5waGRm3cM7jxxaGjov3UtQBbv6SfuGBx+Unofdw7vnire0HKCIwAAm8tcES737h0tei1HZg/0WA78z44GycHBwV8pQuR3h0f2TM3OzvkGAAC2gHQMjhUjzM3h8KHh066/vvFT7e6N/HeDgyNnFG12anpGNyQAwBa0uLjU2L3nzuliGuOtxdD3A9oSJH/0o33/uej2vHZk197ppaUlRxkAYIubmppZLjoRpwYHh/+spSC5ffueny8mZt6yb9+EMW0AgCNIFlQX0xtnBgZGjqsVJLOqpwiSd4xPTC04nAAAR54Mew/tbAbKY6sutPmPRdfmd8fGJ+cdRgCAIztQFj2Us5WGvIsgeWGxTHzW4QMAoDnk3ZxDOXj/EoXIdz1t587d0ysrCo4DAHBAc1HO0MgP1y0btH379p8uttoZS/oEAICD7d595/SOwV0vXrtXcmjX+XfuG7dyGwCAQ2T+ZFHYfPqOO/b+j0OCZDb7zlY62bsRAAAOZ7TYKaeYP3nu4eZKvqn4l1ZvAwCwpmxik20Xi8U4P3Pwdok/WfwfJxYXFx0hAADWVVT9mS5qTx7/r2HyjjtG/qjYLnHCoQEAYCNzc/MpFXTTQQtvRt49OTmtFhAAAKUUo9pzIyMj//2uIuW7di4sKAcEAEA5u/fsm9ixY+Qp23bs2PFfBwaHLbwBAKC0iWJUu+idfOu27UO7jhoe2TPukAAAUNbs7HxjaGjXddt2DA4/vViRM+mQAABQVqoAFTsnjhRhcueJ+0Yn7HoDAEBp2eimGOaeKoqVD582Nj655JAAAFDWyspKwuRisQBn58vHx41yAwBQzY6B4YYwCQCAMAkAgDAJAIAwCQCAMAkAAMIkAADCJAAAwiQAAMIkAADCpDAJAIAwCQCAMAkAgDAJAIAwCQAAwiQAAMIkAADCJAAAwiQAAMKkMAkAgDAJAIAwCQCAMAkAgDAJAADCJAAAwiQAAMIkAADCJAAAwiQAAAiTAAAIkwAACJMAAAiTAAAgTAIAIEwCACBMAgAgTAIAIEwCAIAwCQCAMAkAgDAJAIAwCQAAwiQAAMIkAADCJAAAwiQAAMIkAAAIkwAACJMAAAiTAAAIkwAAIEwCACBMAgAgTAIAIEwCACBMAgCAMAkAgDAJAIAwCQCAMAkAAMIkAADCJAAAwiQAAMIkAADCJAAACJMAAAiTAAAIkwAACJMAACBMAgAgTAIAIEwCACBMAgAgTAIAgDAJAIAwCQCAMAkAgDAJAIAwKUwCACBMAgAgTAIAIEwCACBMAgCAMAkAgDAJAIAwCQCAMAkAgDApTAIAIEwCACBMAgAgTAIAIEwCAIAwCQCAMAkAgDAJAIAwCQCAMClMAgAgTAIAIEwCACBMAgAgTAIAgDAJAIAwCQCAMAkAgDAJAIAwKUwCACBMAgAgTAIAIEwCACBMAgCAMAkAgDAJAIAwCQCAMAkAgDAJAADCJAAAwiQAAMIkAADCJAAACJMAAAiTAAAIkwAACJMAAAiTAAAgTAIAIEwCACBMAgAgTAIAgDAJAIAwCQCAMAkAgDAJAIAwCQAAwiQAAMIkAADCJAAAwiQAAAiTAAAIkwAACJMAAAiTAAAIk1DRHXuWG//rH/bVar/wrH0OIAAIkwiTwiQACJMgTAIAwiTCJAAgTCJMAgDCJMKkMAkAwiQIkwCAMIkwCQAIkwiTAIAwiTAJAAiTCJPCJAAIkyBMAgDCJMIkACBMIkwCAMIkwqQwCQDCJBxqeaXRGJ9Zqd1g1b6plcb7rp5vvPSimcbLPjDTuPTL843Z/c6RI9H1P15snHXZbOPU9003Xv/R2caNA0sOCgiTAGu78ob9jQedMHpI7/Wvv2CsGSw4MswVDw8nvGPqkPPgXs/c1zj94pnG0rJjBMIkwD0kLN7n2WtPh3hwETJv36Vn6khwuCB5cDvzIzMOEgiTAHf3tNdNbji/9sQLphyoI+ChYqPz4D7FPOvBvbonQZiksm/dtlh7kcuvPm/skNc75m1TtV/vHZ+Zu9trWYBDKzKsmfNgo3PlISeOOlhbXOZIlrluXPiFeQcLhEmESWGSA4b2lT9/5izG2dKe967pUufBay+fdbBAmESYFCY5YGBv+fNnel6Y3MpO+udy16UzLzVvEoRJhElhEmESYRKESYRJYRJhEmEShElhUpgUJhEmESYBYVKYFCarWimyySXXzTcW1MQWJhEmAWFSmBQmq/rQtfPN9/H7Z4w3vn+HRClMIkwCwqQwKUyWNDK63NxZZfW93O+Yfc29oBEmESYBYVKYFCY3dPwa27alcPKKzCJMIkwCwqQwKUyu5Zs/Wv94vvSiGYFSmESYBIRJYVKYPLyj37zxXtAvuWjaiSdMIkwCwqQwKUze3Y9Hlhr3ema593f+p+ecfMIkwiQgTAqTwuS/yb6+Zd/fvYvQefX3FpyAwiTCJCBMCpPC5AG/9eKxSu/x4aeMNUanhBhhEmESECY3scXlRmN8ZqVWm5w99AY8M79S+/XmF+7+essr9d9bWjfVDb4nXjDlJBQmESYBYZIj3Qe/NF8rTGaO5fcUNRcmESYBYZIjW1Zo1x2S/9s3+50IkwiTgDDJEe1JZ03UDpPpncwwOcIkwiQgTHbF0W+ZbDzkxNFa7V++sf9ur5Uh1rqv9djTxg95bye/a7r267336rlDwkDd13roSaOHvLdXXDJT+/Xe9C+z634njzp1rHaYTHvDx2ad2MIkwiQgTHbHk19bvxfsnntEH0mruf/x/fWHol+zwU0m+2+3Eib/8OXjR+S5PLRvufmA85ZPzDYfRP7yDZONP3vNROPxrzjQnnr2ZOMfzp1qnPHBmca7PzfXuP7Hi4cs1NpMYXJu/0rjK7csNN539Xzj5R+aaTzzrVPNz/yEVx/4vPnf/+6cyea5ekHxe/h8UT5qYmbzBt0sort5cKl53XndR2cbzy1C3d+8abL5va5+3jwcv/C9041zrphtXPHN/Y3h0fb30vdzmMz5fNEX55vnwp+eOdE49vypxpU37O/qTln5rXz86/sbb77rd/j0N0427zP5jvKe8j1lm9hsCXvJdfONmwaWmt9tN+V4XPXt/c1zKCNBuS7kuC3UmHI+VSweve4HC83f2OkXzzT+/tx/+x0+7XWTjWefN9V4wXummx0Qb/3kbPPv5hghTAqTwmTHwuTiUqOlILlad3Izh4YqN4Rv3LrY/C7q9ubetwjuf13c7C78wvy6pZX6JUzuGV9uvPOqueYNsM5DR86NP/yn8cbrizB2266lvv+OE44+UTwg5Ib8K8UIQZ3v+KgXjjW3Hv3yzQttCS39GibzYLFWSbFnFCG77INTnZCfY5sQn2Nd5zv6388dbX7H+a479T5X7S8C47POO/x3+AfFg/iusY2DXu4n51051/jjV040f1N1PvNvFt9VHmx/uHOpgTApTAqTbQ2TCSKthsm0XNy3qtxs0htXtRbnRu0XnzPaDAo/GFzquzB5Q/HbSu9JzsV2fub03H72Owt9t8f7SNGjmN7WB58w2tbPm3PmXZ+da+k76rcwmc+SsLzRjlnt3no1fzfX2d94YXt/h/nO04tXJtTVcer71r92/8mrJhpLa/zpz393ofnwea9ntu/z5rUSbjv1eREmhUk9k7Xbh66dP+RpPMPAmdea9t3ti40bi+GlHcVx2Sxz/BJ4PlCUTXrEKe29eR2u9+64Ynhw8KChqF6FyfRaZMisk593tUemHx5A0qOeYNTqVI8yRf4zrLlY4/7dT2Eyw6uPLtkrn+vY0J2tB5Ycs1xf6/YUV3m4S8/d4WoQ15X7QJmexE9ef/f1APltZNi60+dk7qEIk8KkMNmWOZP3P7b1i3SO3ZkfmWnOJ8ux3ej/PzeGPyqGbPLUnnlMO/f111Pyj4aXGn9+1kTHQ9XB7YHHjTbnQaWXotthMr2vOU/u8+zufd70kCQo7evRTkqZZ/fwDj8o3LPlnL+14jBjP4TJqbmVxosvnK7cQ3bxNfMt/d1v377YfPDo5neUh8dP3GOxZ135/GX+Zq6DcefkSunvux3tYSePdX2TDGESYXKLhsnfPb27F+u1gkUmy2dBy3KPr22Xf3V/M9j16lgkkGexTrfCZHqQO90Lsl575AvGGt/8Ufd6SLKQKAsUevV50wP2/i+UD1m9DpPX3LhQe27i266caymI3feY3l2TTnrndGN2f2u/rXOLhVll/lYWMKXXt8yDeLvbBZ+ZE0yESWFSmGw9TD7n7VM9D5P37L25ebD7k8QTYl/2gZm+OAYPqjB3r5Uwee1NC41fPnG05583PaKZl9ppmSf2hy8f74vv+LTiN71Y4jTvVZjMcO+L3jvd0ny9y75S/TvNFJl+uSblXBlpYYV+Kj2U+TsZqWn3/OSyLSvdESaFSWGy5TCZVYL9FCZXVz2/5/Pde2LO0PIp757uu+PQyTCZkiHpJeunz9LJodr8Jh996lhffd4Tihv5RouRehEmry7KOv36C8ZafkDYPV4tiM0U53IWnPTTd3TUi8YaPx6p93BbNkz2suW+hzApTAqTLYfJ1F3rx4tcN3qqVoPks8+b2pRBsm6YzHSCXvWEbNReeUn7A2V+j484ZawvP+89F1/0MkxmQdLz2/RQtdFmCYcLkpnq0o/fUeYW1impsxnC5Bs/btMJYVKYFCbbECbTM9JqL0S7W97P/i5No0vh380aJOuEyawUvd8x/f2Z3vap9vVK751YbntZp3a2FELvhzD5uaIMza89v/XjlN7ud1Sch5fh/r9982Rfn5M5NlVXp/d7mEzvse1whUlhUphsS5iMPJ0eib2SZSfIl6kneHRxM8yqzH8q6hWmxt7zit04nlgsbHnQCaN9EyZvGVpqPOj41t9Pij7nt5ypASmtk5Iq+ewZomxHHcDM08uOMq3KKvXshNKOaRdZVZwe7HzO/B5TzukpZ0+0HFRzvHoZJtMbuVEtxLItC7lurdGDl7mZ7fodJpRm8UzmP6eXNbsypXB+O3riH1csVqzye+t0mMzCqPzmsqAsc3DzPeZ8SQ9vmbnQ511p8Y0wKUwKk20MkylJ0Y4SQe1ouWAvdmH9zVdvWWzpBpNdYVJfc6N5YamTl9XZCVydqJVX9uaWlamPa2HlfnqLs5PNjSW2o0tpo2wh2UpZl4TwVntNTmvhd/OA4veQUJL5gzMbHON83jwA1bm+ZR5nr8Jktrx85Ava0xuZldtLNb6uy4rqCa387Wwh+OGivNjQBuXFUgLnM8U84cxTbWWVeLZE7GWYTGBPNYCNPm9+o3l4zAPz758xfsjDYOqeIkwKk8JkW8NkZK5aP5QIyjZtnZYbS92b6F8VRb1T/66Ombt28XhIG1dQlw2TdXufEiITmusG/C8WpWXq9g5m+7jFmnkye0TX+Zt5qMo+znnAqvuQUuU6l97ObofJdvZGphes7gKV7buXGr9UowxXrhMJdQlLdeQBMNfFutM9El67HSb/4vUHSobVldq5+U3k+trpLSQRJoXJIzhM5gLzuB7XnHz1R7qzJVyGoau+twTAj329PcWM904ut3S+VQ2TqeNYp8RLhrBTsLpV6bFKT2Wd1eP576rKe67zsJBerh1tmkOWYvxl6pVutBNQu8Nku+ZGJnTX7Y1cVWee5GNOa9/uSQlYT6qxOUFGGEZLFNtvR5hs53UHYXLLyEU+vUJ12sLiocOHdV/rcFtmpdeo7uvd80kvQwx1X+twOxJkiLLua81VKLz79k/1rkxQinV3Y3j7+3dUH97+v8Uw0cDe9k9U/+er5kptt9ZKmMzNvmptxQSFdsxZPNyxr7rYKzfTqr2EeSipehxfe/lsS8HocNJjt96xTw/oRtoVJsfb2BuZPdbr9kau+vS3qvccJ3y2ezvWfOd16suu7lrTyTCZ687gXgtkhEnYJL5x62KzV6ZnxYGLCfITXdrW6xlvqfY5/+RVEx3dcuyjX2utTM9GN9dsG1h1W8cM1XZKbo6/WXHRSpUh3KzertoDWqf3s6w89KZm6upnTg9xCvOX3bKvHWEyDwYPO7n1qRUPuKs3stVdqlJB4vdeVu0BJ4tMFjuYq/JgV2kldPGb3agXu5UwmbmRtjoUJqHv3bhjqfGGj832fDvFpxerEQ/XU9wJqRVXZbj3scWQWjf2js7ijU6FyQT1KjfILMrotNt3LTUeWmEx0oOLxThlz5H09nWyHmIrMkpQNRC1EibbOZ0ie9Xne2uHDLVXLZ+01IUOukwJqvK+Ml2mE2Hyt18yXmoYHWESuibTAzKHMysZs7Iv22c9qg92AklweV2xOnixi6M4VYb5MtRbp1BxXXWLRa8XJr/2w2rzis+5onvBKgtzqgT7d161ce9hpptUWdyUPZFX+vyeXTdMpjfyoSf1T2/kwbKIrezfz8NuO+btlpHP+A/nTlW6Rqz3kFMnTOZ4Zy4nwiRrSCmD3MyP9PaqD880L/ztaJnrs/q6KXmRPW2PLoZxM0SSmmudrnHYyvzIzJ/rdqhOSYyy7/GCz3S3BltC4VE1ajSuFyZffOF0pWG15S4HqyzwqTLdYCOfqrCCO8O+Y9P93/tTNUxmmL9dOzqlhmHVQt0b2VOspC47rSMPGzfc1t3rRHoEq5Tw+siX59saJjs55QJhcku4sU+37dO61xOZnqB2rcSs6rPfKT+09jsv7U6ty3tKb1K7wmTef9mbYm7a39m+2PXPmzlhD63wHjdaBJWHqbLH7QNf2hx19qqEyXb1RuYh9OJr5jvSa5uwVPZ9pCh+L1SZdpJFQe0Kk5lHumi9jTDJ+m4SJo+olt6HXBwzfJs6hb2eA1RlxWYWxfRCbt7/r2JNxrXC5A0VSmdlUVKvVNmFKAFnvWNXtuc5u84sbpKRxLJh8sFtGoVIOBoe7VyiObrkArhcPzr5PtaT+ZllF4llqHthsT1h8uNKAAmTbOzmQWFyK7WExNzcD24Z8slcuBQTbncJj1aVXYjyiFPGeto7kILI7QiT53+6fA/QtTct9OzzZhV/2d2XTlpn95Eq15d27v3dL2Gy1fbgDvZGrlquEPjX6/HrhnMqPOSsVUy8SphM7U+9ksIkJaQkiBC2NVp2rejWCux2SJ3OsvO0srd2L2WxwQMqbG25Vpgsu4o3xb2Xe/xVHnt+ufeaecBrSRAq8xqp6zkyunnu2t0Ik+kt3DXW+WOSfbvLvqc3fny28b1iXnWvWpUV52vNr64SJl9xyYyQIExStgdCENsa7fSLN9eFLz2lm6GXblXKJbUaJu+5H+9a7YXvne75502Pdtmhz7WGFLOwrWxN082kG2HyuPO7s6o9FSW24vUwO5S1Gib74bqDMLkppPej1d0+tN63LIRodfeLbit7E0tYmd3f+x7XKvMI1wqTZfc8Xm81arcMVBi1WOvcK7uCOXNnhcnD7wDUaenB24rXxJQ6aiVM5r44M6+upDBJaVVKs2j92Xo9l6mO93+hXM/Xo08d64v3W6XEzeHCZKYglP3vv337Ys8/bx40y86bXKsaQEoblfnvs1JXmOzNsSnbe7zZ2uNOH28pTD6qT647CJObRtU9grX+a9fcuPmGY8ouRnnK2RN98X6/u32xpTCZ+W9l//vd4/0xf/Axp5W7NmRP58Mpuz1fSkQJk2v3zF/17c6tKM5w8Fa8Jh71orGWwuSTzpoQDoRJqkidQYFs87bUX1zZhKMxmcxfdiFCP8hQbithMtvetWs7xm4pWxLp0jWG5cvu6vSVW4TJdWtMHj/a3Gq1I5/lnVszTKaeayth8ug3yxvCJJWc8cEZoWwTt8u+ujnroGX/5a0aJg9XL3H77vL/fbe2qmvXqMVaYfLRJcNkr4rm9ypMlu3xvWeZmp372t9jffK7tmaYzPFqJUxmC0eESSp412fnhLJN2n77JePNYr6b0TtKTvzvl+GmzGMs837ve8y+w/73Gbou+712oyRMGWWLRH/yesPcZdqvPm+scWUx9zYPG3/x+sla8wBTgaOdTtuiw9zZdlKYRJjsovQKCGabs13+1c27O8NFXyy3ACd7Y/eDT3yj3AKcLGg7nKkKC3DWKrjcTXlISTAu836/uMac3SeWXIDz3qs3197HdcJktpXcd9COUzkfypaKOrg99ezJxv42nh6v/sjWHJlaax6vMClMCpMdklWm91IeaNO1DJVt5t0ZPl+yAHFKdEz1QTH2snM8ExDW8qCS2+v1wx7VVYb1UzP0cMoWaX/pRVu3NNBqb+ThZGvCX3/BWOXf/gnvaF8Nyq04MrXe+SRMCpPCZAf9n3+0onuztV7tVd2LsHL193o/DJpV5WXeaxa0raXsHMQsitgsPcf3Wqce35kle73+7xlbs2h5zpmx6fVT3/eLnV3K1h+952403Xyo2yzTfi65bv0HMWFSmBQmO+i4863o3mw11JY2+Z6xGaq7z7PLfd6XXNTbcDVaDE+WHfLNsGGrv7OHnTx22EU83ZSFT2Xea3rW1vLBL5UPpEP7tt52imdeWq7HNQ9L93lWtWtAjtmHr2u9B7tKlYEE2B17lvuybRTahUmEyS5451UW4Wym9sUbt8Y2X2Xn1KXMx/4eTiPMnL6y382nbli7x7jKkGIvF6XsnVguHW4ylL2WKvs+v/WTs5vmvG13mIwPlAzeB7c8jH2pxS3/Mlyeh5cyfy9F6Dc7YVKYFCY7qMqQo9bb9vdb6CJXZfeNi6/pzTzC9AA/tmQpl/QW7Z1cu4ctQ5plP+/TXte7693Zl5ffOvLdn5vbIKiMlu7hXFjcHOdtJ8JknHXZbOXrQebh3jTQWjf2s84rPzL1g8GlTX3NESaFSWGyw8qWAdF61zLUetuupS1zzlWpJJAdLeZ6sEd35mCVfY+Pf8XEhsH04aeU/531ov5ieiUffEL5OXwb7Qn/3AqLVTbLtoqdCpMJ33WKiLdagzIPamX/1t+8aXPfh4VJYVKY7LCtWm9sK7XXXDqzpc65hKvcCMt+/td/tLtDoeNFTb+sxi37/t7+qY1L3LzsA+V7Y3+3mBvb7d66KkWss6BoI5+rsMAjZZXunOz/7Zw6FSajbg3K1PScrFn1IOd52TnBaZ/59uZd/CdMCpPCZIdljpbA1r8toaYfSuS02ysuKR+uMo+vmzUYn11h+C97KJdZRFK2+Plqy/Hpliu+ub/SeysTnhOOyg51r+541O/bg3YyTEbdGpRPLwp11y0XlukzZf/OI4spCf1SWF+YRJjsMxlC/OUTRwW3Pm1r7TKy2WV4ruyq7tUhvaE7O38jK7vd42o79vzyN58/e81E6dfNPMyPfLnzw783F3PhqgxvP7AoZzM6VS71la3Rudpee3l/L8bpdJiMujUoX/jeepUPsj96lb+Tfdtn92++h1thUpgUJrsgJVgEt/5rJ16wtS9sz624o8jvvHS8MTLauUCZVddVC/lncU1ZV317f+W5smvt6NGuIFllLmfaKyv0mCZ0PrBiLcVOru5O713mCWaRU3r8E9pSCLzs4pJuhMmoW4PynCvqHbsnvHqi0t95RtGL3MlA+Y1bF5vXhkz3+INiSsWp75tu/HBna3PGhUlhUpjsglxMhbf+ahki3AzzyFqxffdS437HVDsujzp1rHHjQHsXIyVkVFlhXqY8zuFkGPdPz6x2484Qfye2HbymKDP1kIojEhnByEKdKt7wseorlfNw2+45o1kw9AdrFI/POXjlDRuH9m6Fyahbg/LSGr3ZdbbW/ZNXTVQ+FzaS7/yfPjRz2Ae6PFhd9pX6PfW9CJP5vWdk6e/OmWw89KQDv7U8JPz5WRPNB9e5/Vv7+i5MHqEyfCHE9U8rc3PbCl730eph4/7HjjYvxu0o4J5V8k86q/q5nx63Oitpb9yx1JxnWfXvZTi9HTfv3MASdu5dYyvV9coBrff38gBQ9W/98Ssnmj2n7ZCAtVFP3wOO3fj77GaYjLo1KK/7QfVqAMfW2MAivdr/8o32XKfyO9zoHpTPVrdEUbfD5J7x5X+9rmQebK5z6RXPfOO/Lua4JjCnUsV3ty82ECa3lAu/MC/E9UnLytojRYbLsh1aneOUVcVZQFZn4UbqQmaRS9We0dX2z1fV7y185SUztf5mehIzDDw9X/0DJ3gnVD361HqlwNITVXeRR3rZ7lUjvCY8ZL/l4ZpTG772w8XGU88uv0J6o6oB3Q6TkUoOdWpQVg3imT7yKyfVmzufBUBfv7VeKMrvMJ+x7HSI59W8NnYzTE4Uq+QzJSfn7/uL++rhrk8Zyk8Yf9Dxo5u+hqcwyd1kn90qqy+1zrTHnFa/1MdmleLLv/ic+udeiotnvljmmi2vc+hSCiU9vtnesJW/94wWVx5nOC89b3X/fsJC5pF94fsLa+6PHQl/WQWfhS11FnUcPLw9sLe1XtG6AXp1iDN7n3+i6AXbt8Hin/RwpQf1ya+tfnw3qqXYizBZtwZlvu+qITwPZnVC/8GLc3LsM79xvd9HwlbmAuccTo9w1etjv4fJfK68VnqWs4NXdppLz+Q/FmX4sjFASizlOrV63cse9Zt9m1xhkrt58ydmBboetgzFtTrRfLOqM6R32KBVPOmniHjmKT3n7VPNlgUX6ZG79zNbf/28TtnVzOte4PbU7wm655zK3GAzdLb6eRN2Mz/w/se2/vo5Zu1YBJRSQVVWs6/3frLRQoLf8cXimee/e7r5ebNF5yNOaW0Dho12H+pFmFx9+KhTgzLhrmovdvaYb1dJs3zfCWdZaZ7z8ilnTzQeVyyqqTPNY7XlO+7nMJme1ny+P3rlxL8+wOZ187kzEvL4u4by3/P5AyMbL//QgeN91bf3CyDC5NaRJ8YUEBbsetPaNf9os6ozf7KbLZPoN9r5pYrUnnzgcf39e3vnVe1b/JMQXndKQzdaeo76MUyuhpIEkjq96FV6vdJjdlyN+ZPdalnA1s9h8rKvHqjYcP6n5+4WJrOoLDKdIP+c1eqr14D884svnBZAhMmtJTcPwa77rZtFqvtVhsZWh4j6rWWotxOT5TO0eN9j+vOczErsdhsshst/44X9t4Vrhnc3KozfyzC5euweXqP39eyK9TszNPuXb5jsy3Pygs/Ue7jpVpg894oDfye/64PDZHplU5Xh6DdPNqcgfOeua0kK1effZ2QBYXJLyZBKhs0EvO61DK8tmoP9r4GyXUNt7Wq5gbe7HNHBUpolw/P9FKzeduVcxz5vis8/ts+uMas9R/0cJuN7NWpQ5mGl6s418wsrzXmq/fQdZW5h3XI63QqTWa2d1/nUXdU4VsNkVm6nJFC+iyxYWp3rPHHXv0/IRJjccnJzu9czhbxutJSNyAWFu3tbcVFuZW5Vu1qGFjO/sdPSK/bwU3rfY5cFAd3YeSdzy5746v4oR3bGB2dKrVTvhzAZn/9u9RqUmZNcVY5Jhl/74TtKEGulNFa3wuRn7tqYYLVXfzVMpo5tfOjaA3PDL/rige8jFQfyz6mviTC5JaUEg7DX2ZaFBKlHxuF99ZbeBqzMa6pThqeVgFVnoUW72lHF8HPmcHVzFORlH+hdL3RWEl9yXfmQdXLJa+JZl3V+W8iEkSqfNduE1vXh4hi1YzFX3V7y097fehH71eHnjdqzzmstTKbHMT3HWaiX0aZ7hslsRJFFZPmdRxaQ5d/nWocwuSWNTa/05dymrdKy2jE7wLC+3UXYPrbLCwLy3Xz0a71ZDJXeoAwxP6CLN+/c3LL4pFclqTK/7KguX2uykOP2XdV+f2eWnH5Rp7h7HVVqUKZgditu3VmvuH8r7ZHF3MKUv2qHstUiNlqEVUaC+2pv4+omAZ//3r99jpwfqWl67U0LzdGXjaoIIExueilE2w9DjVutpfh0lT2dOVD4OlMCOvm9pIB5esrG+2DaQeo6ZrvGez+z86HqW7f1/lxMD3DCWqdXt2fxQ4bxl2t8xV+5ZaFUML9tV3ceEjO/OHuLlyn+PtyGPe3z9zJM2+lOhjxIJWxNza209fdU5l7WrjJYqyMM6Xm8ZymxnHsJt/mcKXXUju8GYbLvnXOF2pPtXsxhx4P6N7Nc7FO/rp1zehPuU+9tpA8v6rcMLTWH21spsn64wJPVunW23eu0DANmmPihJ7U3VGZHkgwNt7ofckrtdLpnq4qsvM5K4fXe0+oQa7tkyDk9nTmm7fyOHnbyWDNEdmrqz+kXz2w4L3O5Tfk1C5he8J7p5nUqv92s1n5RUW8zZZd+7fkHwnjmDGcxGsLkEXMDP/GCKUGwTXPSutVrsdXdUSyKyXBSetbS81Kn+HF6dbIjzv5N0EmcRVrpzTi6CDPZAadOr2uGKTOEXmdP8W5L706GvxOkV2++dXaTSsmtLG5aaVNIyFSAtcrmpDB3L86l9KSvVRA+8zw7WSkiq8tzjDNqUOcBL7/DU4reu88Vi4o6fewSgtfqyc12oZmz3G6pApHh7icUwTHzKHOcsqNRipSvWHcpTB5p8jSfm7ZAWL+lWPNmuIlvRpn0ngns6S3JUGku1hkizk0/4Ss3+UziP68IUp+8fn9bC4/3QopQZ5rEZV+Zb/bkZJXx6udNy4rU3DRTYinHJCtGW+2R67XMb7zim/ubCykSPlY/b+ab5X/mn1PeJ8Wic6PuRDA4+AE7DyF5H9mJJzu8XP29hZ6fEx//+v7mwsm/L77/7Gme772bstVl5jhmTmCmi6zuxpTv56/ecOB3mDqy2V8+W2O2ukVnXdfcuNB8H3lP2UUp0x4WXZqFSbr39Jst2gTD6i3DUBm+AwCEySNa6nz93ssEyiotT+gKkgOAMMldMnfrya815F1mjlpWPgIAwiT30I9bbfXb/MhO7OMMAAiTW0YmfGexg20X715yJSsbN/tiBwAQJuma1Kp7xCl2ysnWiLbEAgBhkhpSZPav3jB5RIbI7NiReoezeiMBQJikNc09dl80dsQMaaee4e5xBcoAQJikbVJA+rWXz7Z1+7d+C5EpCnyzLREBQJikcwaL3Q1SY/GXjtsaofL+x442Xnzh9KbfPQUAhEk2lbHpleb2WZt1kU4W1mROpB1sAECYpIf2Lx7YzzZ7ofZ7b+XDTh5tnH7xTOP6Hy829+EFAIRJ+kjqMCZYnlAEy4ed3Psey1941r7GH79yovGaS2eapY4WrakBAGGSzeP2XUuNS78835yT+PtnjDcXuXQyPGbI/elvnGwWXU+oHZ/R/QgAwiRbxsLigYB5zY0LjYu+ON84s+gxPPb8qcZfvH6y8fhXTDQed/p4cy7jQ04cbTzg2AND5hk6zz+nNFH+Xf7/nvGWycap75tuvPHjs819sq+9acHcRwAQJgEAQJgEAECYBABAmAQAQJgEAABhEgAAYRIAAGESAABhEgAAYRIAAIRJAACESQAAhEkAAIRJAACESWESAABhEgAAYRIAAGESAABhEgAAhEkAAIRJAACESQAAhEkAAIRJYRIAAGESAABhEgAAYRIAAGESAACESQAAhEkAAIRJAACESQAAhElhEgAAYRIAAGESAABhEgAAYRIAAIRJAACESQAAhEkAAIRJAACESUcDAABhEgAAYRIAAGESAABhEgAAhEkAAIRJAACESQAAhEkAAIRJAAAQJgEAECYBABAmAQAQJgEAQJgEAECYBABAmAQAQJgEAECYBAAAYRIAAGESAABhEgAAYRIAAIRJAACESQAAhEkAAIRJAACESQAAECYBABAmAQAQJgEAECYBAECYBABAmAQAQJgEAECYBABAmAQAAGESAABhEgAAYRIAAGESAACESQAAhEkAAIRJAACESQAAhEkAABAmAQAQJgEAECYBABAmAQBAmAQAQJgEAECYBABAmAQAQJgEAABhEgAAYRIAAGESAABhEgAAYVKYBABAmAQAQJgEAECYBABAmAQAAGESAABhEgAAYRIAAGESAABhUpgEAECYBABAmAQAQJgEAECYBAAAYRIAAGESAABhEgAAYRIAAGFSmAQAQJgEAECYBABAmAQAQJgEAABhEgAAYRIAAGESAABhEgAAYdLRAABAmAQAQJgEAECYBABAmAQAAGESAABhEgAAYRIAAGESAABhEgAAhEkAAIRJAACESQAAhEkAADgkTA4MDJ82Nj655HAAAFDWyspKY2BwZHHbjsGdJ+4bnZhzSAAAKGt5eTlhcqoIk8NP37t31Dg3AAClLS4uFmFy18i27UO7jhoe2TPukAAAUNbs7FxjaOfItdu2b9/+0wODw/sdEgAAypqYnF4phrnP3RaDQ7uG9i8sOCoAAJSye8++iR07Rp7cDJNFqnzXZJEuHRYAAMoo8uP88PDwzzbD5B2DI48f2bV3wmEBAGAjs3PzjcHBXTduW1X8336ySJcTWZUDAADr2bN3dHpgYOT4bQcbGNr1xtGxiXmHBwCAtSwtLWWIe2ZwcPBn7hYmt2/f8/PFv5hdWlp2lAAAOKx0Pg4Ojpyz7XAGhkbedue+cbvhAABwiAOFykem0wl52DB5222j/6WoZD62f78yQQAA3N2u3XfO7BgcOXXbeop6QU8d2rl7enlFpSAAAA6YmppZGhwaueX66xs/tW0jxXD3e4tVOjMOGwAAGbUu5klODQzsvt+2MootFv9DkTy/NWZ1NwDAES3zJIvdEmcHBnY+YVsVWe5d9FBuHx+fNIESAOAIDZJDO3fN7Bgafva2Om6/fffPFT2UN9+5b2zW4QQAOHI0h7aHmkHymG2tuGXv3v9UBMovFNstTqdIJQAAW1tzsU1zjmTFoe21FK/5EwMDwy8pXnSmeHFVzQEAtqAMaxflf6azarv0YpsqBgZ2PaSYR3nD8MieqdlZtc0BALaCjD5nZ5sUJC/qSL6oVPmf1nopdz4xcyl3Du+empicWjb8DQCw+czOzTf27h2dzpba2SJxzZ1tOmXHjuHfKkLlhUmxRbCcSKKdnp5tTthMwFxeVvgcAKCXVoqNaJaXlxsLC4uN2dn5xsTk9MruPfsmivxW7LG968aBgZHjU8VnWy8V7/PfF3Mqf+2OwZEXDu7cdXlznL3YlnFgcHhux8BwQ9M0TdM0TetNK0LjUjr+iuA4PDS067rifz+32PHwycPDwz/bjhz4/wGY5EZoIbyIKwAAAABJRU5ErkJggg==;clipPath=inset(25% 11% 25.5% 8.33%);" vertex="1" parent="1">
          <mxGeometry x="990" y="171.59000000000003" width="93.9" height="38.41" as="geometry" />
        </mxCell>
        <mxCell id="oM49j2kRH9s5FRGwLrnU-74" style="edgeStyle=orthogonalEdgeStyle;rounded=0;orthogonalLoop=1;jettySize=auto;html=1;entryX=1;entryY=0.5;entryDx=0;entryDy=0;entryPerimeter=0;dashed=1;" edge="1" parent="1" source="oM49j2kRH9s5FRGwLrnU-65" target="oM49j2kRH9s5FRGwLrnU-49">
          <mxGeometry relative="1" as="geometry" />
        </mxCell>
        <mxCell id="oM49j2kRH9s5FRGwLrnU-75" style="edgeStyle=orthogonalEdgeStyle;rounded=0;orthogonalLoop=1;jettySize=auto;html=1;entryX=1;entryY=0.5;entryDx=0;entryDy=0;entryPerimeter=0;startArrow=classic;startFill=1;dashed=1;" edge="1" parent="1" source="oM49j2kRH9s5FRGwLrnU-65" target="oM49j2kRH9s5FRGwLrnU-58">
          <mxGeometry relative="1" as="geometry" />
        </mxCell>
        <mxCell id="oM49j2kRH9s5FRGwLrnU-79" value="" style="whiteSpace=wrap;html=1;aspect=fixed;dashed=1;" vertex="1" parent="1">
          <mxGeometry x="961.95" y="296" width="150" height="150" as="geometry" />
        </mxCell>
        <mxCell id="oM49j2kRH9s5FRGwLrnU-80" value="" style="shape=image;verticalLabelPosition=bottom;labelBackgroundColor=default;verticalAlign=top;aspect=fixed;imageAspect=0;image=data:image/png,iVBORw0KGgoAAAANSUhEUgAAApMAAAG4CAYAAAAZlWyVAAAABmJLR0QA/wD/AP+gvaeTAAAtAUlEQVR42u3deZhlZX0n8M5M8jwzf8xMJpN5kpnnGY0aNRonGo0JmowmJplkTKJJ3LKYYBIV2QRxwaCIcUHEHUSRuCKoKKBGREVFEdzBFQRRaLqquqoXuvata7tzvreppKG7qs45d63qz+d53ichhFv3nnvuOd/zLr9327Y2aDQaP7l9aNdROwaHXzw4uOtjg0O7bh0YHBkfGBye2zEw3NA0TdM0TdN604pMtlS0mYHBXSNFRvvKwNDI2wYGdj7t9tt3/9y2XhsYGH5MER4vzhscHt4zMTo2sX96eraxf/9CY2lpubG8vNIAAKB3Voo4try83FhcXGzMzs03JianV3bv2TdR5Lf5waGRm3cM7jxxaGjov3UtQBbv6SfuGBx+Unofdw7vnire0HKCIwAAm8tcES737h0tei1HZg/0WA78z44GycHBwV8pQuR3h0f2TM3OzvkGAAC2gHQMjhUjzM3h8KHh066/vvFT7e6N/HeDgyNnFG12anpGNyQAwBa0uLjU2L3nzuliGuOtxdD3A9oSJH/0o33/uej2vHZk197ppaUlRxkAYIubmppZLjoRpwYHh/+spSC5ffueny8mZt6yb9+EMW0AgCNIFlQX0xtnBgZGjqsVJLOqpwiSd4xPTC04nAAAR54Mew/tbAbKY6sutPmPRdfmd8fGJ+cdRgCAIztQFj2Us5WGvIsgeWGxTHzW4QMAoDnk3ZxDOXj/EoXIdz1t587d0ysrCo4DAHBAc1HO0MgP1y0btH379p8uttoZS/oEAICD7d595/SOwV0vXrtXcmjX+XfuG7dyGwCAQ2T+ZFHYfPqOO/b+j0OCZDb7zlY62bsRAAAOZ7TYKaeYP3nu4eZKvqn4l1ZvAwCwpmxik20Xi8U4P3Pwdok/WfwfJxYXFx0hAADWVVT9mS5qTx7/r2HyjjtG/qjYLnHCoQEAYCNzc/MpFXTTQQtvRt49OTmtFhAAAKUUo9pzIyMj//2uIuW7di4sKAcEAEA5u/fsm9ixY+Qp23bs2PFfBwaHLbwBAKC0iWJUu+idfOu27UO7jhoe2TPukAAAUNbs7HxjaGjXddt2DA4/vViRM+mQAABQVqoAFTsnjhRhcueJ+0Yn7HoDAEBp2eimGOaeKoqVD582Nj655JAAAFDWyspKwuRisQBn58vHx41yAwBQzY6B4YYwCQCAMAkAgDAJAIAwCQCAMAkAAMIkAADCJAAAwiQAAMIkAADCpDAJAIAwCQCAMAkAgDAJAIAwCQAAwiQAAMIkAADCJAAAwiQAAMKkMAkAgDAJAIAwCQCAMAkAgDAJAADCJAAAwiQAAMIkAADCJAAAwiQAAAiTAAAIkwAACJMAAAiTAAAgTAIAIEwCACBMAgAgTAIAIEwCAIAwCQCAMAkAgDAJAIAwCQAAwiQAAMIkAADCJAAAwiQAAMIkAAAIkwAACJMAAAiTAAAIkwAAIEwCACBMAgAgTAIAIEwCACBMAgCAMAkAgDAJAIAwCQCAMAkAAMIkAADCJAAAwiQAAMIkAADCJAAACJMAAAiTAAAIkwAACJMAACBMAgAgTAIAIEwCACBMAgAgTAIAgDAJAIAwCQCAMAkAgDAJAIAwKUwCACBMAgAgTAIAIEwCACBMAgCAMAkAgDAJAIAwCQCAMAkAgDApTAIAIEwCACBMAgAgTAIAIEwCAIAwCQCAMAkAgDAJAIAwCQCAMClMAgAgTAIAIEwCACBMAgAgTAIAgDAJAIAwCQCAMAkAgDAJAIAwKUwCACBMAgAgTAIAIEwCACBMAgCAMAkAgDAJAIAwCQCAMAkAgDAJAADCJAAAwiQAAMIkAADCJAAACJMAAAiTAAAIkwAACJMAAAiTAAAgTAIAIEwCACBMAgAgTAIAgDAJAIAwCQCAMAkAgDAJAIAwCQAAwiQAAMIkAADCJAAAwiQAAAiTAAAIkwAACJMAAAiTAAAIk1DRHXuWG//rH/bVar/wrH0OIAAIkwiTwiQACJMgTAIAwiTCJAAgTCJMAgDCJMKkMAkAwiQIkwCAMIkwCQAIkwiTAIAwiTAJAAiTCJPCJAAIkyBMAgDCJMIkACBMIkwCAMIkwqQwCQDCJBxqeaXRGJ9Zqd1g1b6plcb7rp5vvPSimcbLPjDTuPTL843Z/c6RI9H1P15snHXZbOPU9003Xv/R2caNA0sOCgiTAGu78ob9jQedMHpI7/Wvv2CsGSw4MswVDw8nvGPqkPPgXs/c1zj94pnG0rJjBMIkwD0kLN7n2WtPh3hwETJv36Vn6khwuCB5cDvzIzMOEgiTAHf3tNdNbji/9sQLphyoI+ChYqPz4D7FPOvBvbonQZiksm/dtlh7kcuvPm/skNc75m1TtV/vHZ+Zu9trWYBDKzKsmfNgo3PlISeOOlhbXOZIlrluXPiFeQcLhEmESWGSA4b2lT9/5izG2dKe967pUufBay+fdbBAmESYFCY5YGBv+fNnel6Y3MpO+udy16UzLzVvEoRJhElhEmESYRKESYRJYRJhEmEShElhUpgUJhEmESYBYVKYFCarWimyySXXzTcW1MQWJhEmAWFSmBQmq/rQtfPN9/H7Z4w3vn+HRClMIkwCwqQwKUyWNDK63NxZZfW93O+Yfc29oBEmESYBYVKYFCY3dPwa27alcPKKzCJMIkwCwqQwKUyu5Zs/Wv94vvSiGYFSmESYBIRJYVKYPLyj37zxXtAvuWjaiSdMIkwCwqQwKUze3Y9Hlhr3ema593f+p+ecfMIkwiQgTAqTwuS/yb6+Zd/fvYvQefX3FpyAwiTCJCBMCpPC5AG/9eKxSu/x4aeMNUanhBhhEmESECY3scXlRmN8ZqVWm5w99AY8M79S+/XmF+7+essr9d9bWjfVDb4nXjDlJBQmESYBYZIj3Qe/NF8rTGaO5fcUNRcmESYBYZIjW1Zo1x2S/9s3+50IkwiTgDDJEe1JZ03UDpPpncwwOcIkwiQgTHbF0W+ZbDzkxNFa7V++sf9ur5Uh1rqv9djTxg95bye/a7r267336rlDwkDd13roSaOHvLdXXDJT+/Xe9C+z634njzp1rHaYTHvDx2ad2MIkwiQgTHbHk19bvxfsnntEH0mruf/x/fWHol+zwU0m+2+3Eib/8OXjR+S5PLRvufmA85ZPzDYfRP7yDZONP3vNROPxrzjQnnr2ZOMfzp1qnPHBmca7PzfXuP7Hi4cs1NpMYXJu/0rjK7csNN539Xzj5R+aaTzzrVPNz/yEVx/4vPnf/+6cyea5ekHxe/h8UT5qYmbzBt0sort5cKl53XndR2cbzy1C3d+8abL5va5+3jwcv/C9041zrphtXPHN/Y3h0fb30vdzmMz5fNEX55vnwp+eOdE49vypxpU37O/qTln5rXz86/sbb77rd/j0N0427zP5jvKe8j1lm9hsCXvJdfONmwaWmt9tN+V4XPXt/c1zKCNBuS7kuC3UmHI+VSweve4HC83f2OkXzzT+/tx/+x0+7XWTjWefN9V4wXummx0Qb/3kbPPv5hghTAqTwmTHwuTiUqOlILlad3Izh4YqN4Rv3LrY/C7q9ubetwjuf13c7C78wvy6pZX6JUzuGV9uvPOqueYNsM5DR86NP/yn8cbrizB2266lvv+OE44+UTwg5Ib8K8UIQZ3v+KgXjjW3Hv3yzQttCS39GibzYLFWSbFnFCG77INTnZCfY5sQn2Nd5zv6388dbX7H+a479T5X7S8C47POO/x3+AfFg/iusY2DXu4n51051/jjV040f1N1PvNvFt9VHmx/uHOpgTApTAqTbQ2TCSKthsm0XNy3qtxs0htXtRbnRu0XnzPaDAo/GFzquzB5Q/HbSu9JzsV2fub03H72Owt9t8f7SNGjmN7WB58w2tbPm3PmXZ+da+k76rcwmc+SsLzRjlnt3no1fzfX2d94YXt/h/nO04tXJtTVcer71r92/8mrJhpLa/zpz393ofnwea9ntu/z5rUSbjv1eREmhUk9k7Xbh66dP+RpPMPAmdea9t3ti40bi+GlHcVx2Sxz/BJ4PlCUTXrEKe29eR2u9+64Ynhw8KChqF6FyfRaZMisk593tUemHx5A0qOeYNTqVI8yRf4zrLlY4/7dT2Eyw6uPLtkrn+vY0J2tB5Ycs1xf6/YUV3m4S8/d4WoQ15X7QJmexE9ef/f1APltZNi60+dk7qEIk8KkMNmWOZP3P7b1i3SO3ZkfmWnOJ8ux3ej/PzeGPyqGbPLUnnlMO/f111Pyj4aXGn9+1kTHQ9XB7YHHjTbnQaWXotthMr2vOU/u8+zufd70kCQo7evRTkqZZ/fwDj8o3LPlnL+14jBjP4TJqbmVxosvnK7cQ3bxNfMt/d1v377YfPDo5neUh8dP3GOxZ135/GX+Zq6DcefkSunvux3tYSePdX2TDGESYXKLhsnfPb27F+u1gkUmy2dBy3KPr22Xf3V/M9j16lgkkGexTrfCZHqQO90Lsl575AvGGt/8Ufd6SLKQKAsUevV50wP2/i+UD1m9DpPX3LhQe27i266caymI3feY3l2TTnrndGN2f2u/rXOLhVll/lYWMKXXt8yDeLvbBZ+ZE0yESWFSmGw9TD7n7VM9D5P37L25ebD7k8QTYl/2gZm+OAYPqjB3r5Uwee1NC41fPnG05583PaKZl9ppmSf2hy8f74vv+LTiN71Y4jTvVZjMcO+L3jvd0ny9y75S/TvNFJl+uSblXBlpYYV+Kj2U+TsZqWn3/OSyLSvdESaFSWGy5TCZVYL9FCZXVz2/5/Pde2LO0PIp757uu+PQyTCZkiHpJeunz9LJodr8Jh996lhffd4Tihv5RouRehEmry7KOv36C8ZafkDYPV4tiM0U53IWnPTTd3TUi8YaPx6p93BbNkz2suW+hzApTAqTLYfJ1F3rx4tcN3qqVoPks8+b2pRBsm6YzHSCXvWEbNReeUn7A2V+j484ZawvP+89F1/0MkxmQdLz2/RQtdFmCYcLkpnq0o/fUeYW1impsxnC5Bs/btMJYVKYFCbbECbTM9JqL0S7W97P/i5No0vh380aJOuEyawUvd8x/f2Z3vap9vVK751YbntZp3a2FELvhzD5uaIMza89v/XjlN7ud1Sch5fh/r9982Rfn5M5NlVXp/d7mEzvse1whUlhUphsS5iMPJ0eib2SZSfIl6kneHRxM8yqzH8q6hWmxt7zit04nlgsbHnQCaN9EyZvGVpqPOj41t9Pij7nt5ypASmtk5Iq+ewZomxHHcDM08uOMq3KKvXshNKOaRdZVZwe7HzO/B5TzukpZ0+0HFRzvHoZJtMbuVEtxLItC7lurdGDl7mZ7fodJpRm8UzmP6eXNbsypXB+O3riH1csVqzye+t0mMzCqPzmsqAsc3DzPeZ8SQ9vmbnQ511p8Y0wKUwKk20MkylJ0Y4SQe1ouWAvdmH9zVdvWWzpBpNdYVJfc6N5YamTl9XZCVydqJVX9uaWlamPa2HlfnqLs5PNjSW2o0tpo2wh2UpZl4TwVntNTmvhd/OA4veQUJL5gzMbHON83jwA1bm+ZR5nr8Jktrx85Ava0xuZldtLNb6uy4rqCa387Wwh+OGivNjQBuXFUgLnM8U84cxTbWWVeLZE7GWYTGBPNYCNPm9+o3l4zAPz758xfsjDYOqeIkwKk8JkW8NkZK5aP5QIyjZtnZYbS92b6F8VRb1T/66Ombt28XhIG1dQlw2TdXufEiITmusG/C8WpWXq9g5m+7jFmnkye0TX+Zt5qMo+znnAqvuQUuU6l97ObofJdvZGphes7gKV7buXGr9UowxXrhMJdQlLdeQBMNfFutM9El67HSb/4vUHSobVldq5+U3k+trpLSQRJoXJIzhM5gLzuB7XnHz1R7qzJVyGoau+twTAj329PcWM904ut3S+VQ2TqeNYp8RLhrBTsLpV6bFKT2Wd1eP576rKe67zsJBerh1tmkOWYvxl6pVutBNQu8Nku+ZGJnTX7Y1cVWee5GNOa9/uSQlYT6qxOUFGGEZLFNtvR5hs53UHYXLLyEU+vUJ12sLiocOHdV/rcFtmpdeo7uvd80kvQwx1X+twOxJkiLLua81VKLz79k/1rkxQinV3Y3j7+3dUH97+v8Uw0cDe9k9U/+er5kptt9ZKmMzNvmptxQSFdsxZPNyxr7rYKzfTqr2EeSipehxfe/lsS8HocNJjt96xTw/oRtoVJsfb2BuZPdbr9kau+vS3qvccJ3y2ezvWfOd16suu7lrTyTCZ687gXgtkhEnYJL5x62KzV6ZnxYGLCfITXdrW6xlvqfY5/+RVEx3dcuyjX2utTM9GN9dsG1h1W8cM1XZKbo6/WXHRSpUh3KzertoDWqf3s6w89KZm6upnTg9xCvOX3bKvHWEyDwYPO7n1qRUPuKs3stVdqlJB4vdeVu0BJ4tMFjuYq/JgV2kldPGb3agXu5UwmbmRtjoUJqHv3bhjqfGGj832fDvFpxerEQ/XU9wJqRVXZbj3scWQWjf2js7ijU6FyQT1KjfILMrotNt3LTUeWmEx0oOLxThlz5H09nWyHmIrMkpQNRC1EibbOZ0ie9Xne2uHDLVXLZ+01IUOukwJqvK+Ml2mE2Hyt18yXmoYHWESuibTAzKHMysZs7Iv22c9qg92AklweV2xOnixi6M4VYb5MtRbp1BxXXWLRa8XJr/2w2rzis+5onvBKgtzqgT7d161ce9hpptUWdyUPZFX+vyeXTdMpjfyoSf1T2/kwbKIrezfz8NuO+btlpHP+A/nTlW6Rqz3kFMnTOZ4Zy4nwiRrSCmD3MyP9PaqD880L/ztaJnrs/q6KXmRPW2PLoZxM0SSmmudrnHYyvzIzJ/rdqhOSYyy7/GCz3S3BltC4VE1ajSuFyZffOF0pWG15S4HqyzwqTLdYCOfqrCCO8O+Y9P93/tTNUxmmL9dOzqlhmHVQt0b2VOspC47rSMPGzfc1t3rRHoEq5Tw+siX59saJjs55QJhcku4sU+37dO61xOZnqB2rcSs6rPfKT+09jsv7U6ty3tKb1K7wmTef9mbYm7a39m+2PXPmzlhD63wHjdaBJWHqbLH7QNf2hx19qqEyXb1RuYh9OJr5jvSa5uwVPZ9pCh+L1SZdpJFQe0Kk5lHumi9jTDJ+m4SJo+olt6HXBwzfJs6hb2eA1RlxWYWxfRCbt7/r2JNxrXC5A0VSmdlUVKvVNmFKAFnvWNXtuc5u84sbpKRxLJh8sFtGoVIOBoe7VyiObrkArhcPzr5PtaT+ZllF4llqHthsT1h8uNKAAmTbOzmQWFyK7WExNzcD24Z8slcuBQTbncJj1aVXYjyiFPGeto7kILI7QiT53+6fA/QtTct9OzzZhV/2d2XTlpn95Eq15d27v3dL2Gy1fbgDvZGrlquEPjX6/HrhnMqPOSsVUy8SphM7U+9ksIkJaQkiBC2NVp2rejWCux2SJ3OsvO0srd2L2WxwQMqbG25Vpgsu4o3xb2Xe/xVHnt+ufeaecBrSRAq8xqp6zkyunnu2t0Ik+kt3DXW+WOSfbvLvqc3fny28b1iXnWvWpUV52vNr64SJl9xyYyQIExStgdCENsa7fSLN9eFLz2lm6GXblXKJbUaJu+5H+9a7YXvne75502Pdtmhz7WGFLOwrWxN082kG2HyuPO7s6o9FSW24vUwO5S1Gib74bqDMLkppPej1d0+tN63LIRodfeLbit7E0tYmd3f+x7XKvMI1wqTZfc8Xm81arcMVBi1WOvcK7uCOXNnhcnD7wDUaenB24rXxJQ6aiVM5r44M6+upDBJaVVKs2j92Xo9l6mO93+hXM/Xo08d64v3W6XEzeHCZKYglP3vv337Ys8/bx40y86bXKsaQEoblfnvs1JXmOzNsSnbe7zZ2uNOH28pTD6qT647CJObRtU9grX+a9fcuPmGY8ouRnnK2RN98X6/u32xpTCZ+W9l//vd4/0xf/Axp5W7NmRP58Mpuz1fSkQJk2v3zF/17c6tKM5w8Fa8Jh71orGWwuSTzpoQDoRJqkidQYFs87bUX1zZhKMxmcxfdiFCP8hQbithMtvetWs7xm4pWxLp0jWG5cvu6vSVW4TJdWtMHj/a3Gq1I5/lnVszTKaeayth8ug3yxvCJJWc8cEZoWwTt8u+ujnroGX/5a0aJg9XL3H77vL/fbe2qmvXqMVaYfLRJcNkr4rm9ypMlu3xvWeZmp372t9jffK7tmaYzPFqJUxmC0eESSp412fnhLJN2n77JePNYr6b0TtKTvzvl+GmzGMs837ve8y+w/73Gbou+712oyRMGWWLRH/yesPcZdqvPm+scWUx9zYPG3/x+sla8wBTgaOdTtuiw9zZdlKYRJjsovQKCGabs13+1c27O8NFXyy3ACd7Y/eDT3yj3AKcLGg7nKkKC3DWKrjcTXlISTAu836/uMac3SeWXIDz3qs3197HdcJktpXcd9COUzkfypaKOrg99ezJxv42nh6v/sjWHJlaax6vMClMCpMdklWm91IeaNO1DJVt5t0ZPl+yAHFKdEz1QTH2snM8ExDW8qCS2+v1wx7VVYb1UzP0cMoWaX/pRVu3NNBqb+ThZGvCX3/BWOXf/gnvaF8Nyq04MrXe+SRMCpPCZAf9n3+0onuztV7tVd2LsHL193o/DJpV5WXeaxa0raXsHMQsitgsPcf3Wqce35kle73+7xlbs2h5zpmx6fVT3/eLnV3K1h+952403Xyo2yzTfi65bv0HMWFSmBQmO+i4863o3mw11JY2+Z6xGaq7z7PLfd6XXNTbcDVaDE+WHfLNsGGrv7OHnTx22EU83ZSFT2Xea3rW1vLBL5UPpEP7tt52imdeWq7HNQ9L93lWtWtAjtmHr2u9B7tKlYEE2B17lvuybRTahUmEyS5451UW4Wym9sUbt8Y2X2Xn1KXMx/4eTiPMnL6y382nbli7x7jKkGIvF6XsnVguHW4ylL2WKvs+v/WTs5vmvG13mIwPlAzeB7c8jH2pxS3/Mlyeh5cyfy9F6Dc7YVKYFCY7qMqQo9bb9vdb6CJXZfeNi6/pzTzC9AA/tmQpl/QW7Z1cu4ctQ5plP+/TXte7693Zl5ffOvLdn5vbIKiMlu7hXFjcHOdtJ8JknHXZbOXrQebh3jTQWjf2s84rPzL1g8GlTX3NESaFSWGyw8qWAdF61zLUetuupS1zzlWpJJAdLeZ6sEd35mCVfY+Pf8XEhsH04aeU/531ov5ieiUffEL5OXwb7Qn/3AqLVTbLtoqdCpMJ33WKiLdagzIPamX/1t+8aXPfh4VJYVKY7LCtWm9sK7XXXDqzpc65hKvcCMt+/td/tLtDoeNFTb+sxi37/t7+qY1L3LzsA+V7Y3+3mBvb7d66KkWss6BoI5+rsMAjZZXunOz/7Zw6FSajbg3K1PScrFn1IOd52TnBaZ/59uZd/CdMCpPCZIdljpbA1r8toaYfSuS02ysuKR+uMo+vmzUYn11h+C97KJdZRFK2+Plqy/Hpliu+ub/SeysTnhOOyg51r+541O/bg3YyTEbdGpRPLwp11y0XlukzZf/OI4spCf1SWF+YRJjsMxlC/OUTRwW3Pm1r7TKy2WV4ruyq7tUhvaE7O38jK7vd42o79vzyN58/e81E6dfNPMyPfLnzw783F3PhqgxvP7AoZzM6VS71la3Rudpee3l/L8bpdJiMujUoX/jeepUPsj96lb+Tfdtn92++h1thUpgUJrsgJVgEt/5rJ16wtS9sz624o8jvvHS8MTLauUCZVddVC/lncU1ZV317f+W5smvt6NGuIFllLmfaKyv0mCZ0PrBiLcVOru5O713mCWaRU3r8E9pSCLzs4pJuhMmoW4PynCvqHbsnvHqi0t95RtGL3MlA+Y1bF5vXhkz3+INiSsWp75tu/HBna3PGhUlhUpjsglxMhbf+ahki3AzzyFqxffdS437HVDsujzp1rHHjQHsXIyVkVFlhXqY8zuFkGPdPz6x2484Qfye2HbymKDP1kIojEhnByEKdKt7wseorlfNw2+45o1kw9AdrFI/POXjlDRuH9m6Fyahbg/LSGr3ZdbbW/ZNXTVQ+FzaS7/yfPjRz2Ae6PFhd9pX6PfW9CJP5vWdk6e/OmWw89KQDv7U8JPz5WRPNB9e5/Vv7+i5MHqEyfCHE9U8rc3PbCl730eph4/7HjjYvxu0o4J5V8k86q/q5nx63Oitpb9yx1JxnWfXvZTi9HTfv3MASdu5dYyvV9coBrff38gBQ9W/98Ssnmj2n7ZCAtVFP3wOO3fj77GaYjLo1KK/7QfVqAMfW2MAivdr/8o32XKfyO9zoHpTPVrdEUbfD5J7x5X+9rmQebK5z6RXPfOO/Lua4JjCnUsV3ty82ECa3lAu/MC/E9UnLytojRYbLsh1aneOUVcVZQFZn4UbqQmaRS9We0dX2z1fV7y185SUztf5mehIzDDw9X/0DJ3gnVD361HqlwNITVXeRR3rZ7lUjvCY8ZL/l4ZpTG772w8XGU88uv0J6o6oB3Q6TkUoOdWpQVg3imT7yKyfVmzufBUBfv7VeKMrvMJ+x7HSI59W8NnYzTE4Uq+QzJSfn7/uL++rhrk8Zyk8Yf9Dxo5u+hqcwyd1kn90qqy+1zrTHnFa/1MdmleLLv/ic+udeiotnvljmmi2vc+hSCiU9vtnesJW/94wWVx5nOC89b3X/fsJC5pF94fsLa+6PHQl/WQWfhS11FnUcPLw9sLe1XtG6AXp1iDN7n3+i6AXbt8Hin/RwpQf1ya+tfnw3qqXYizBZtwZlvu+qITwPZnVC/8GLc3LsM79xvd9HwlbmAuccTo9w1etjv4fJfK68VnqWs4NXdppLz+Q/FmX4sjFASizlOrV63cse9Zt9m1xhkrt58ydmBboetgzFtTrRfLOqM6R32KBVPOmniHjmKT3n7VPNlgUX6ZG79zNbf/28TtnVzOte4PbU7wm655zK3GAzdLb6eRN2Mz/w/se2/vo5Zu1YBJRSQVVWs6/3frLRQoLf8cXimee/e7r5ebNF5yNOaW0Dho12H+pFmFx9+KhTgzLhrmovdvaYb1dJs3zfCWdZaZ7z8ilnTzQeVyyqqTPNY7XlO+7nMJme1ny+P3rlxL8+wOZ187kzEvL4u4by3/P5AyMbL//QgeN91bf3CyDC5NaRJ8YUEBbsetPaNf9os6ozf7KbLZPoN9r5pYrUnnzgcf39e3vnVe1b/JMQXndKQzdaeo76MUyuhpIEkjq96FV6vdJjdlyN+ZPdalnA1s9h8rKvHqjYcP6n5+4WJrOoLDKdIP+c1eqr14D884svnBZAhMmtJTcPwa77rZtFqvtVhsZWh4j6rWWotxOT5TO0eN9j+vOczErsdhsshst/44X9t4Vrhnc3KozfyzC5euweXqP39eyK9TszNPuXb5jsy3Pygs/Ue7jpVpg894oDfye/64PDZHplU5Xh6DdPNqcgfOeua0kK1effZ2QBYXJLyZBKhs0EvO61DK8tmoP9r4GyXUNt7Wq5gbe7HNHBUpolw/P9FKzeduVcxz5vis8/ts+uMas9R/0cJuN7NWpQ5mGl6s418wsrzXmq/fQdZW5h3XI63QqTWa2d1/nUXdU4VsNkVm6nJFC+iyxYWp3rPHHXv0/IRJjccnJzu9czhbxutJSNyAWFu3tbcVFuZW5Vu1qGFjO/sdPSK/bwU3rfY5cFAd3YeSdzy5746v4oR3bGB2dKrVTvhzAZn/9u9RqUmZNcVY5Jhl/74TtKEGulNFa3wuRn7tqYYLVXfzVMpo5tfOjaA3PDL/rige8jFQfyz6mviTC5JaUEg7DX2ZaFBKlHxuF99ZbeBqzMa6pThqeVgFVnoUW72lHF8HPmcHVzFORlH+hdL3RWEl9yXfmQdXLJa+JZl3V+W8iEkSqfNduE1vXh4hi1YzFX3V7y097fehH71eHnjdqzzmstTKbHMT3HWaiX0aZ7hslsRJFFZPmdRxaQ5d/nWocwuSWNTa/05dymrdKy2jE7wLC+3UXYPrbLCwLy3Xz0a71ZDJXeoAwxP6CLN+/c3LL4pFclqTK/7KguX2uykOP2XdV+f2eWnH5Rp7h7HVVqUKZgditu3VmvuH8r7ZHF3MKUv2qHstUiNlqEVUaC+2pv4+omAZ//3r99jpwfqWl67U0LzdGXjaoIIExueilE2w9DjVutpfh0lT2dOVD4OlMCOvm9pIB5esrG+2DaQeo6ZrvGez+z86HqW7f1/lxMD3DCWqdXt2fxQ4bxl2t8xV+5ZaFUML9tV3ceEjO/OHuLlyn+PtyGPe3z9zJM2+lOhjxIJWxNza209fdU5l7WrjJYqyMM6Xm8ZymxnHsJt/mcKXXUju8GYbLvnXOF2pPtXsxhx4P6N7Nc7FO/rp1zehPuU+9tpA8v6rcMLTWH21spsn64wJPVunW23eu0DANmmPihJ7U3VGZHkgwNt7ofckrtdLpnq4qsvM5K4fXe0+oQa7tkyDk9nTmm7fyOHnbyWDNEdmrqz+kXz2w4L3O5Tfk1C5he8J7p5nUqv92s1n5RUW8zZZd+7fkHwnjmDGcxGsLkEXMDP/GCKUGwTXPSutVrsdXdUSyKyXBSetbS81Kn+HF6dbIjzv5N0EmcRVrpzTi6CDPZAadOr2uGKTOEXmdP8W5L706GvxOkV2++dXaTSsmtLG5aaVNIyFSAtcrmpDB3L86l9KSvVRA+8zw7WSkiq8tzjDNqUOcBL7/DU4reu88Vi4o6fewSgtfqyc12oZmz3G6pApHh7icUwTHzKHOcsqNRipSvWHcpTB5p8jSfm7ZAWL+lWPNmuIlvRpn0ngns6S3JUGku1hkizk0/4Ss3+UziP68IUp+8fn9bC4/3QopQZ5rEZV+Zb/bkZJXx6udNy4rU3DRTYinHJCtGW+2R67XMb7zim/ubCykSPlY/b+ab5X/mn1PeJ8Wic6PuRDA4+AE7DyF5H9mJJzu8XP29hZ6fEx//+v7mwsm/L77/7Gme772bstVl5jhmTmCmi6zuxpTv56/ecOB3mDqy2V8+W2O2ukVnXdfcuNB8H3lP2UUp0x4WXZqFSbr39Jst2gTD6i3DUBm+AwCEySNa6nz93ssEyiotT+gKkgOAMMldMnfrya815F1mjlpWPgIAwiT30I9bbfXb/MhO7OMMAAiTW0YmfGexg20X715yJSsbN/tiBwAQJuma1Kp7xCl2ysnWiLbEAgBhkhpSZPav3jB5RIbI7NiReoezeiMBQJikNc09dl80dsQMaaee4e5xBcoAQJikbVJA+rWXz7Z1+7d+C5EpCnyzLREBQJikcwaL3Q1SY/GXjtsaofL+x442Xnzh9KbfPQUAhEk2lbHpleb2WZt1kU4W1mROpB1sAECYpIf2Lx7YzzZ7ofZ7b+XDTh5tnH7xTOP6Hy829+EFAIRJ+kjqMCZYnlAEy4ed3Psey1941r7GH79yovGaS2eapY4WrakBAGGSzeP2XUuNS78835yT+PtnjDcXuXQyPGbI/elvnGwWXU+oHZ/R/QgAwiRbxsLigYB5zY0LjYu+ON84s+gxPPb8qcZfvH6y8fhXTDQed/p4cy7jQ04cbTzg2AND5hk6zz+nNFH+Xf7/nvGWycap75tuvPHjs819sq+9acHcRwAQJgEAQJgEAECYBABAmAQAQJgEAABhEgAAYRIAAGESAABhEgAAYRIAAIRJAACESQAAhEkAAIRJAACESWESAABhEgAAYRIAAGESAABhEgAAhEkAAIRJAACESQAAhEkAAIRJYRIAAGESAABhEgAAYRIAAGESAACESQAAhEkAAIRJAACESQAAhElhEgAAYRIAAGESAABhEgAAYRIAAIRJAACESQAAhEkAAIRJAACESUcDAABhEgAAYRIAAGESAABhEgAAhEkAAIRJAACESQAAhEkAAIRJAAAQJgEAECYBABAmAQAQJgEAQJgEAECYBABAmAQAQJgEAECYBAAAYRIAAGESAABhEgAAYRIAAIRJAACESQAAhEkAAIRJAACESQAAECYBABAmAQAQJgEAECYBAECYBABAmAQAQJgEAECYBABAmAQAAGESAABhEgAAYRIAAGESAACESQAAhEkAAIRJAACESQAAhEkAABAmAQAQJgEAECYBABAmAQBAmAQAQJgEAECYBABAmAQAQJgEAABhEgAAYRIAAGESAABhEgAAYVKYBABAmAQAQJgEAECYBABAmAQAAGESAABhEgAAYRIAAGESAABhUpgEAECYBABAmAQAQJgEAECYBAAAYRIAAGESAABhEgAAYRIAAGFSmAQAQJgEAECYBABAmAQAQJgEAABhEgAAYRIAAGESAABhEgAAYdLRAABAmAQAQJgEAECYBABAmAQAAGESAABhEgAAYRIAAGESAABhEgAAhEkAAIRJAACESQAAhEkAADgkTA4MDJ82Nj655HAAAFDWyspKY2BwZHHbjsGdJ+4bnZhzSAAAKGt5eTlhcqoIk8NP37t31Dg3AAClLS4uFmFy18i27UO7jhoe2TPukAAAUNbs7FxjaOfItdu2b9/+0wODw/sdEgAAypqYnF4phrnP3RaDQ7uG9i8sOCoAAJSye8++iR07Rp7cDJNFqnzXZJEuHRYAAMoo8uP88PDwzzbD5B2DI48f2bV3wmEBAGAjs3PzjcHBXTduW1X8336ySJcTWZUDAADr2bN3dHpgYOT4bQcbGNr1xtGxiXmHBwCAtSwtLWWIe2ZwcPBn7hYmt2/f8/PFv5hdWlp2lAAAOKx0Pg4Ojpyz7XAGhkbedue+cbvhAABwiAOFykem0wl52DB5222j/6WoZD62f78yQQAA3N2u3XfO7BgcOXXbeop6QU8d2rl7enlFpSAAAA6YmppZGhwaueX66xs/tW0jxXD3e4tVOjMOGwAAGbUu5klODQzsvt+2MootFv9DkTy/NWZ1NwDAES3zJIvdEmcHBnY+YVsVWe5d9FBuHx+fNIESAOAIDZJDO3fN7Bgafva2Om6/fffPFT2UN9+5b2zW4QQAOHI0h7aHmkHymG2tuGXv3v9UBMovFNstTqdIJQAAW1tzsU1zjmTFoe21FK/5EwMDwy8pXnSmeHFVzQEAtqAMaxflf6azarv0YpsqBgZ2PaSYR3nD8MieqdlZtc0BALaCjD5nZ5sUJC/qSL6oVPmf1nopdz4xcyl3Du+empicWjb8DQCw+czOzTf27h2dzpba2SJxzZ1tOmXHjuHfKkLlhUmxRbCcSKKdnp5tTthMwFxeVvgcAKCXVoqNaJaXlxsLC4uN2dn5xsTk9MruPfsmivxW7LG968aBgZHjU8VnWy8V7/PfF3Mqf+2OwZEXDu7cdXlznL3YlnFgcHhux8BwQ9M0TdM0TetNK0LjUjr+iuA4PDS067rifz+32PHwycPDwz/bjhz4/wGY5EZoIbyIKwAAAABJRU5ErkJggg==;clipPath=inset(25% 11% 25.5% 8.33%);" vertex="1" parent="1">
          <mxGeometry x="990" y="387.59000000000003" width="93.9" height="38.41" as="geometry" />
        </mxCell>
        <mxCell id="oM49j2kRH9s5FRGwLrnU-81" value="Server API" style="text;html=1;align=center;verticalAlign=middle;whiteSpace=wrap;rounded=0;fontStyle=1;fontSize=23;" vertex="1" parent="1">
          <mxGeometry x="665" y="110" width="120" height="30" as="geometry" />
        </mxCell>
        <mxCell id="oM49j2kRH9s5FRGwLrnU-82" value="BDD" style="text;html=1;align=center;verticalAlign=middle;whiteSpace=wrap;rounded=0;fontStyle=1;fontSize=23;" vertex="1" parent="1">
          <mxGeometry x="976.95" y="120" width="120" height="30" as="geometry" />
        </mxCell>
        <mxCell id="oM49j2kRH9s5FRGwLrnU-83" value="Private Airnet Server" style="text;html=1;align=center;verticalAlign=middle;whiteSpace=wrap;rounded=0;fontStyle=1;fontSize=20;" vertex="1" parent="1">
          <mxGeometry x="653.9" y="330" width="146.1" height="30" as="geometry" />
        </mxCell>
        <mxCell id="oM49j2kRH9s5FRGwLrnU-84" value="Web server" style="text;html=1;align=center;verticalAlign=middle;whiteSpace=wrap;rounded=0;fontStyle=1;fontSize=20;" vertex="1" parent="1">
          <mxGeometry x="962.8000000000001" y="310" width="146.1" height="60" as="geometry" />
        </mxCell>
        <mxCell id="oM49j2kRH9s5FRGwLrnU-87" style="edgeStyle=orthogonalEdgeStyle;rounded=0;orthogonalLoop=1;jettySize=auto;html=1;" edge="1" parent="1" source="oM49j2kRH9s5FRGwLrnU-85">
          <mxGeometry relative="1" as="geometry">
            <mxPoint x="840" y="490" as="targetPoint" />
          </mxGeometry>
        </mxCell>
        <mxCell id="oM49j2kRH9s5FRGwLrnU-85" value="Actor" style="shape=umlActor;verticalLabelPosition=bottom;verticalAlign=top;html=1;outlineConnect=0;" vertex="1" parent="1">
          <mxGeometry x="976.95" y="550" width="30" height="60" as="geometry" />
        </mxCell>
      </root>
    </mxGraphModel>
  </diagram>
</mxfile>
